<svg width="30" height="30" viewBox="0 0 30 30" fill="none" xmlns="http://www.w3.org/2000/svg">
    <path d="M13.3734 4.5C10.5985 4.52625 8.0001 5.99043 6.92086 8.11366C6.31037 9.17298 6.00095 10.386 6.00095 11.7196C6.00095 14.4021 6.82861 16.5895 8.23335 17.6856C9.69208 19.0054 11.9304 19.5956 13.5009 19.5956C14.5254 19.5956 15.947 19.3179 17.078 18.7239C16.6895 20.307 15.6173 20.9083 13.5009 20.9083C12.3069 20.9083 11.6127 20.1424 11.5512 20.0314C11.4387 19.7925 11.1773 19.6336 10.8818 19.6251C9.76052 19.5955 7.42057 19.5752 6.72457 19.5969C6.50783 19.6034 6.30519 19.6902 6.16794 19.8379C6.03144 19.9855 5.9737 20.179 6.0112 20.366C6.4207 22.4006 8.28348 24.2543 10.6445 24.9783C11.7777 25.3294 12.9679 25.5 14.1439 25.5C16.2717 25.5 18.3489 24.9411 19.9329 23.8733C21.5462 22.791 22.5301 21.0225 22.4993 19.2674V5.81266C22.4993 5.45496 22.172 5.16355 21.764 5.15633C20.8595 5.14123 20.1062 5.14595 19.306 5.1512C18.8927 5.15383 18.4666 5.15633 18.0008 5.15633C17.7173 5.15633 17.4713 5.29323 17.3446 5.49603C16.3193 4.85742 14.9906 4.53216 13.8641 4.5H13.3822H13.3734ZM13.3866 5.81266H13.8378C15.1293 5.85007 16.7901 6.42156 17.3226 7.40606C17.4763 7.68828 17.8345 7.83921 18.181 7.76242C18.5275 7.68694 18.7666 7.40953 18.7508 7.09712C18.7373 6.83262 18.7376 6.64954 18.7406 6.46643C18.937 6.46577 19.1294 6.46518 19.3177 6.46386C19.8787 6.46058 20.4165 6.45608 21.0008 6.46002V19.2777C21.024 20.6343 20.2661 21.9956 19.0203 22.8311C16.9511 24.2245 13.8604 24.582 11.144 23.74C9.58173 23.2615 8.2993 22.1699 7.7353 20.8993C8.5603 20.9006 9.66381 20.9124 10.4423 20.9275C10.9636 21.5123 12.0609 22.2209 13.5009 22.2209C18.1538 22.2209 18.7508 19.4151 18.7508 16.9703C18.7508 16.6592 18.5019 16.3911 18.1546 16.328C17.8066 16.2637 17.4563 16.4233 17.3138 16.7075C16.8256 17.6841 14.7639 18.2829 13.5009 18.2829C12.2874 18.2829 10.4584 17.81 9.27191 16.7395C8.16267 15.8719 7.50093 13.9951 7.50093 11.7196C7.50093 10.5934 7.75683 9.57887 8.27583 8.67641C9.12257 7.0113 11.2236 5.83432 13.3866 5.81266ZM14.6244 7.78165C13.0269 7.80987 11.7181 8.46324 11.1278 9.51862C10.5084 10.5819 10.3449 11.9072 10.6591 13.3681C11.0258 14.8744 12.5272 16.3962 14.6317 16.3063C14.7105 16.3108 14.7888 16.3139 14.8661 16.3139C16.4741 16.3139 17.6857 15.2657 18.2542 14.3219C18.2662 14.3028 18.2767 14.282 18.2865 14.2616C18.9479 12.8315 18.8967 11.1321 18.1414 9.5904C17.5879 8.50812 16.1795 7.78165 14.639 7.78165H14.6244ZM14.6478 9.09431C15.5898 9.09628 16.4629 9.52066 16.7689 10.1173C17.3569 11.3177 17.4082 12.6354 16.911 13.7373C16.5165 14.3733 15.7114 15.0756 14.7064 14.9949C14.6839 14.9929 14.6615 14.9923 14.639 14.9923C14.621 14.9923 14.6043 14.9923 14.5878 14.9936C13.2355 15.0769 12.3322 13.9329 12.1313 13.1092C11.9573 12.3026 11.8756 11.1277 12.4711 10.1044C12.8138 9.49078 13.6271 9.114 14.6478 9.09431Z"
    />
</svg>
