<svg viewBox="0 0 30 30" xmlns="http://www.w3.org/2000/svg">
    <path d="M12.8378 12.6324V15H10.6324V21.6324H12.8378V19.4216H17.2649V21.6324H19.4757V15H17.2649V12.6324H21.6865L21.6811 8.21081H17.2595V12.6324H12.8378ZM12.8378 12.6324H8.42162V8.21081H12.8378V12.6324ZM23.9189 5H6.08108C5.79436 5 5.51938 5.1139 5.31664 5.31664C5.1139 5.51938 5 5.79436 5 6.08108V23.9189C5 24.2056 5.1139 24.4806 5.31664 24.6834C5.51938 24.8861 5.79436 25 6.08108 25H23.9189C24.2056 25 24.4806 24.8861 24.6834 24.6834C24.8861 24.4806 25 24.2056 25 23.9189V6.08108C25 5.79436 24.8861 5.51938 24.6834 5.31664C24.4806 5.1139 24.2056 5 23.9189 5Z"
          stroke-linecap="round" stroke-linejoin="round"/>
</svg>
