<svg viewBox="0 0 30 30" xmlns="http://www.w3.org/2000/svg">
    <path d="M13.4286 13.3409C13.4286 13.5542 13.2526 13.7273 13.0357 13.7273H12.6429V14.1136C12.6429 14.3269 12.4669 14.5 12.25 14.5C12.0331 14.5 11.8571 14.3269 11.8571 14.1136V13.7273H11.4643C11.2474 13.7273 11.0714 13.5542 11.0714 13.3409C11.0714 13.1276 11.2474 12.9545 11.4643 12.9545H11.8571V12.5682C11.8571 12.3549 12.0331 12.1818 12.25 12.1818C12.4669 12.1818 12.6429 12.3549 12.6429 12.5682V12.9545H13.0357C13.2526 12.9545 13.4286 13.1276 13.4286 13.3409ZM9.10714 11.4091H8.32143C8.10457 11.4091 7.92857 11.5822 7.92857 11.7955C7.92857 12.0087 8.10457 12.1818 8.32143 12.1818H8.71429V14.8864C8.71429 15.0996 8.89029 15.2727 9.10714 15.2727C9.324 15.2727 9.5 15.0996 9.5 14.8864V11.7955C9.5 11.5822 9.324 11.4091 9.10714 11.4091ZM26 21.4545V22.2273C26 22.6538 25.648 23 25.2143 23H4.78571C4.352 23 4 22.6538 4 22.2273V21.4545C4 21.028 4.352 20.6818 4.78571 20.6818V8.31818C4.78571 7.03777 5.84093 6 7.14286 6H22.8571C24.1591 6 25.2143 7.03777 25.2143 8.31818V20.6818C25.648 20.6818 26 21.028 26 21.4545ZM5.57143 20.6818H20.1158C19.8675 20.358 19.7143 19.9593 19.7143 19.5227C19.7143 18.5885 20.3892 17.8088 21.2857 17.6295V17.2045C21.2857 16.9913 21.4617 16.8182 21.6786 16.8182C21.8954 16.8182 22.0714 16.9913 22.0714 17.2045V17.6295C22.9679 17.8088 23.6429 18.5877 23.6429 19.5227C23.6429 19.9593 23.4896 20.358 23.2414 20.6818H24.4286V8.31818C24.4286 7.46432 23.7254 6.77273 22.8571 6.77273H7.14286C6.27464 6.77273 5.57143 7.46432 5.57143 8.31818V20.6818ZM21.6786 18.3636C21.0288 18.3636 20.5 18.8837 20.5 19.5227C20.5 20.1618 21.0288 20.6818 21.6786 20.6818C22.3284 20.6818 22.8571 20.1618 22.8571 19.5227C22.8571 18.8837 22.3284 18.3636 21.6786 18.3636ZM25.2143 21.4545H4.78571V22.2273H25.2143V21.4545ZM18.5357 12.9545H20.1071C20.324 12.9545 20.5 12.7815 20.5 12.5682C20.5 12.3549 20.324 12.1818 20.1071 12.1818H18.5357C18.3189 12.1818 18.1429 12.3549 18.1429 12.5682C18.1429 12.7815 18.3189 12.9545 18.5357 12.9545ZM20.5 14.1136C20.5 13.9004 20.324 13.7273 20.1071 13.7273H18.5357C18.3189 13.7273 18.1429 13.9004 18.1429 14.1136C18.1429 14.3269 18.3189 14.5 18.5357 14.5H20.1071C20.324 14.5 20.5 14.3269 20.5 14.1136ZM16.1786 11.4091H15.3929C15.176 11.4091 15 11.5822 15 11.7955C15 12.0087 15.176 12.1818 15.3929 12.1818H15.7857V14.8864C15.7857 15.0996 15.9617 15.2727 16.1786 15.2727C16.3954 15.2727 16.5714 15.0996 16.5714 14.8864V11.7955C16.5714 11.5822 16.3954 11.4091 16.1786 11.4091Z"
    />
</svg>
