<svg viewBox="0 0 30 30" xmlns="http://www.w3.org/2000/svg">
    <path d="M22.8456 6.03217C22.5045 6.03217 22.154 6.08577 21.8034 6.1914C21.7871 6.19621 21.7702 6.20194 21.7543 6.20788C21.7241 6.21884 18.6979 7.31112 14.7385 7.31112C12.415 7.31112 10.2308 6.94005 8.24655 6.20809C7.87223 6.07 7.49307 6 7.11961 6C5.62616 6 4.5 7.12035 4.5 8.60598V17.1204C4.5 22.4757 9.30839 27 14.9999 27C20.6915 27 25.5 22.4757 25.5 17.1204V8.60598C25.5 7.1147 24.3836 6.03217 22.8456 6.03217ZM23.8722 17.1204C23.8722 21.6765 19.8092 25.5256 14.9999 25.5256C10.1908 25.5256 6.1278 21.6765 6.1278 17.1204V8.60598C6.1278 7.9291 6.52632 7.47431 7.11961 7.47431C7.2816 7.47431 7.4542 7.50769 7.63265 7.57352C9.81276 8.37767 12.2036 8.78543 14.7385 8.78543C18.8675 8.78543 21.9862 7.7104 22.3385 7.58398C22.5154 7.53265 22.6858 7.50648 22.8456 7.50648C23.4788 7.50648 23.8722 7.92783 23.8722 8.60598V17.1204Z"
    />
    <path d="M19.4019 20.1322C19.1332 19.9156 18.7216 19.9374 18.4828 20.1809C17.7467 20.9304 16.4123 21.3961 15.0002 21.3961C13.5881 21.3961 12.2537 20.9304 11.5177 20.1809C11.2788 19.9375 10.8672 19.9157 10.5985 20.1322C10.3298 20.3486 10.3057 20.7214 10.5448 20.9647C11.5352 21.9734 13.2007 22.5755 15.0003 22.5755C16.7999 22.5755 18.4656 21.9733 19.4558 20.9647C19.6947 20.7214 19.6706 20.3486 19.4019 20.1322Z"
    />
    <path d="M22.1035 14.5756C21.1101 14.1257 20.2665 13.972 19.5771 13.972C18.1358 13.972 17.3714 14.6442 17.3251 14.6861C17.0665 14.9125 17.0618 15.2755 17.312 15.5113C17.5622 15.7469 17.976 15.7541 18.2344 15.5279C18.2781 15.4911 19.3312 14.6389 21.521 15.6305C21.8428 15.7761 22.2338 15.6582 22.3946 15.3669C22.5554 15.0756 22.425 14.7213 22.1035 14.5756Z"
    />
    <path d="M11.8634 15.4572C12.122 15.6832 12.5356 15.6762 12.7858 15.4405C13.0361 15.2048 13.0313 14.8418 12.7727 14.6153C12.7265 14.5734 11.962 13.9013 10.5207 13.9013C9.83132 13.9013 8.98776 14.055 7.99438 14.5048C7.67284 14.6506 7.54247 15.0047 7.70328 15.296C7.86409 15.5874 8.25504 15.7053 8.57682 15.5597C10.7667 14.5682 11.8199 15.4203 11.8634 15.4572Z"
    />
</svg>
