<svg viewBox="0 0 30 30" xmlns="http://www.w3.org/2000/svg">
    <path d="M15.5004 3L15.3307 3.74113C15.2007 4.30903 14.9255 4.82719 14.5359 5.23643L13.6538 6.16309L9.62711 9.18778C9.14852 9.54734 8.78132 10.0132 8.53044 10.5336L6.53769 10.9067C6.40572 10.9314 6.27135 10.9438 6.13746 10.9448L5.51414 10.9488C5.15421 10.954 4.79397 10.8514 4.48683 10.646L4.07816 10.3842L4.32468 10.8185C4.51328 11.1512 4.61111 11.5329 4.60775 11.9216L4.60119 12.5825C4.59975 12.7279 4.58815 12.8735 4.56463 13.0168L4.03504 16.2511C3.84873 17.3897 4.42183 18.4778 5.36229 18.9378L5.34823 18.9348C5.36023 18.9428 5.3924 18.9547 5.41009 18.9639C5.43102 18.9735 5.45069 18.985 5.47196 18.994C5.72412 19.1073 6.24287 19.2716 6.57987 19.346C7.22727 19.4892 7.95036 19.5443 8.5848 19.7461C9.16086 19.9297 9.72828 20.1823 10.2739 20.4863C10.1946 20.5187 10.1122 20.5461 10.0339 20.5785C9.84969 20.6549 9.65058 20.7293 9.44808 20.7992C9.05115 20.6166 8.65726 20.4839 8.18925 20.3689C7.63448 20.2323 6.08851 20.4723 5.8572 20.1683C5.69211 19.9517 5.59337 20.0081 5.63224 20.1282C5.94754 21.1002 6.65945 21.3803 7.78339 21.3588C8.2453 21.3498 8.7812 21.149 9.22968 21.0178C9.52816 21.1707 9.83565 21.3543 10.1604 21.5734C10.2343 21.6232 10.24 21.5648 10.3039 21.5252C10.5967 21.3441 10.9314 21.219 11.2815 21.1281C11.7182 21.4429 12.1322 21.7889 12.5103 22.1631C12.5511 22.2036 12.6671 22.0304 12.695 22.0006C13.3508 21.287 14.4859 21.7962 15.266 22.5492C15.0912 22.7484 14.9444 22.9536 14.8555 23.181C14.6818 23.6257 14.7425 24.0003 14.9033 24.4075C15.0833 24.8635 15.4401 25.0476 15.4722 25.9128C15.4761 26.014 15.6018 26.0258 15.5922 25.955C15.5385 25.556 15.7789 25.1377 15.9522 24.7906C16.1139 24.4671 16.2056 24.2127 16.2483 23.9261C16.3098 23.5154 16.2139 23.1034 15.7441 22.6073C15.6938 22.5542 15.6409 22.5069 15.5894 22.4569C15.8619 22.1947 16.1415 21.9634 16.3496 21.778C17.025 21.9778 17.7096 22.1738 18.2373 22.3436C18.2882 22.36 18.3526 22.2888 18.4351 22.2082C19.0075 21.6507 19.6277 21.1389 20.2948 20.7169C20.4966 20.835 20.7153 20.9744 20.9593 21.1482C21.0313 21.1995 21.0638 21.1073 21.1243 21.0759C21.3897 20.9395 21.6716 20.8168 21.9585 20.7059C22.3615 20.9056 22.7686 21.1007 23.1264 21.2284C24.0742 21.5663 24.8895 20.9882 25.3685 20.0891C25.3867 20.0552 25.2833 19.95 25.2195 20.0891C24.9944 20.5785 24.0873 19.9122 22.983 20.1864C22.6779 20.2621 22.4056 20.3505 22.1657 20.4411C21.942 20.3284 21.7067 20.2197 21.4617 20.1072C21.7393 19.9902 22.0217 19.8853 22.3138 19.8063C23.0353 19.6112 23.7617 19.4416 24.4827 19.2437L24.5286 19.2427L25.1014 19.1273C26.3539 18.8763 27.1845 17.5943 26.9647 16.2511L26.4352 13.0178C26.4116 12.8745 26.4 12.7289 26.3986 12.5835L26.393 11.9226C26.3896 11.5339 26.4875 11.1512 26.6761 10.8185L26.9216 10.3852V10.3842L26.5139 10.646C26.2068 10.8514 25.8465 10.954 25.4866 10.9488L24.8633 10.9448C24.7294 10.9438 24.595 10.9314 24.463 10.9067L22.4722 10.5336C22.2213 10.013 21.8533 9.54744 21.3746 9.18778L17.3478 6.16309L16.4658 5.23643C16.0756 4.82667 15.8005 4.30903 15.671 3.74113L15.5004 3ZM15.5004 7.37156L15.6625 7.6293C15.8722 7.96306 16.1417 8.24988 16.4546 8.47273L17.42 9.16171L19.1728 10.312C19.8365 10.7474 20.4523 11.2611 21.009 11.8434L21.3268 12.1754L21.5873 12.6196C22.0346 13.3832 22.0251 14.356 21.562 15.1088L20.9237 16.1458L21.757 15.1389L22.2453 14.3757C22.5384 14.4399 22.84 14.4341 23.1264 14.3426L23.208 14.3165L23.1789 14.4198C23.0925 14.7587 23.0878 15.1178 23.1742 15.4618L23.2848 15.888L23.4376 16.5199L23.4817 16.7154C23.633 17.3961 23.4024 18.0773 22.9408 18.5116C22.254 19.021 21.5141 18.8469 21.2743 18.7011L21.1393 18.8536C21.487 18.9261 21.847 18.94 22.2135 18.9238L22.1853 18.9328L22.3916 18.9197C22.4143 18.9179 22.4362 18.9199 22.459 18.9177L22.4628 18.9147L22.7281 18.8977C23.7407 18.6974 24.4119 17.6596 24.2343 16.571L23.9559 14.8821C23.9415 14.7897 23.9325 14.6969 23.9325 14.5993L23.9278 14.1731C23.9278 13.9215 23.9897 13.6747 24.1097 13.4591L24.2681 13.1823L24.0047 13.3517C23.8031 13.4801 23.5772 13.5463 23.342 13.5463L22.9436 13.5413C22.8573 13.5413 22.7713 13.5368 22.6849 13.5162L22.6559 13.5112C22.8238 13.0097 22.8887 12.4839 22.8518 11.9678L23.0064 12.0169L23.6204 12.1964C24.1147 12.3453 24.6381 12.3403 25.1276 12.1914L25.2757 12.1453V12.1463L25.2345 12.3017C25.0938 12.8286 25.0916 13.387 25.227 13.9154L25.3957 14.5753L25.8531 16.214L25.8803 16.3604C26.1077 17.563 25.5452 18.6941 24.4443 19.0381L23.5557 19.2607L23.7047 19.2577C22.9291 19.448 22.1534 19.6361 21.4102 19.9407C21.3562 19.9628 21.3063 19.987 21.2536 20.0099C21.2169 19.9939 21.1839 19.9764 21.1468 19.9607C20.9382 19.8727 20.7309 19.777 20.5263 19.6839C20.7532 19.4032 20.9304 19.0996 21.0409 18.7894C21.1273 18.5475 20.9232 18.3394 20.8834 18.4765L20.7719 18.8134C20.6393 19.1056 20.4839 19.3603 20.3145 19.5907C19.6222 19.2793 19.0069 19.034 18.6985 19.2497C18.7856 19.0338 18.8237 18.8823 18.8757 18.5487C18.879 18.5281 18.9103 18.3828 18.8532 18.3802C18.6655 18.372 18.3811 18.613 18.2683 18.6931C18.3801 18.3881 18.3626 18.5492 18.4192 18.2268C18.4393 18.1133 18.4668 17.9161 18.3161 17.8858C18.1663 17.8555 18.0233 17.9363 17.898 18.0272C17.8328 18.0749 17.8684 18.0954 17.9149 18.0513L18.0874 18.0833C18.2577 18.1321 18.1947 18.5389 18.1549 18.6771C18.1214 18.7936 18.0728 18.926 18.0264 19.0551C18.0169 19.0295 18.0072 19.0036 17.9899 18.9889L17.9599 18.9659C17.2175 18.8858 16.7379 19.2865 16.3074 19.6218C16.1466 19.7471 16.35 19.7724 16.4902 19.7441C17.0526 19.6317 17.6301 19.6719 17.9449 20.057C17.9775 20.0966 18.0192 20.2051 18.0274 20.2646C18.0351 20.3206 18.1073 20.3024 18.0949 20.2325C17.9677 19.5389 17.4012 19.3671 16.8548 19.4453C17.1598 19.2218 17.57 19.0079 17.9974 19.2938C18.0281 19.3143 18.048 19.2536 18.0489 19.1795C18.0628 19.1632 18.0813 19.1451 18.0883 19.1344C18.1387 19.0573 18.2407 19.0348 18.2955 18.9609C18.3367 18.9044 18.5307 18.6532 18.6507 18.645C18.644 18.9587 18.5997 19.1519 18.4782 19.4302C18.4677 19.4538 18.5155 19.4477 18.5663 19.4252C18.5669 19.4346 18.5726 19.4373 18.5851 19.4282L18.7397 19.3189C19.014 19.2823 19.5783 19.5489 20.1289 19.8223C19.9961 19.9749 19.854 20.1104 19.7033 20.2305C19.3256 20.0517 19.0634 19.9844 18.7772 20.0329C18.5862 20.0653 18.5373 20.2415 18.5373 20.2415C18.5373 20.2415 18.822 20.0791 19.5496 20.3549C19.0426 20.7084 18.4459 20.894 17.779 20.9175C17.5561 20.9253 17.3301 20.9084 17.1032 20.8794C17.1567 20.7465 17.1844 20.6068 17.1613 20.4592C17.1531 20.4078 17.1008 20.252 17.0413 20.2355C16.9919 20.2222 16.9722 20.4077 16.9607 20.4411C16.9136 20.5782 16.8521 20.7041 16.7854 20.8262C16.3572 20.7397 15.9323 20.5961 15.5304 20.386C15.8605 20.3218 16.0403 20.2894 16.4377 20.0009C16.4598 19.9849 16.5129 19.9201 16.4649 19.8986C15.9265 19.6527 15.4953 19.4257 15.1104 19.2537V19.022L14.8255 19.1324C14.106 18.8604 13.5435 18.89 12.7559 19.6478C12.6234 19.7752 12.7589 19.7818 12.8318 19.7582C13.425 19.5651 14.3384 19.68 14.4656 20.2335C14.48 20.2962 14.5371 20.2408 14.5256 20.1854C14.3907 19.5276 13.6327 19.4554 13.1149 19.4954C13.7948 19.072 14.1452 19.1396 14.7805 19.3971V19.72L15.1104 19.5917V19.5385C15.2924 19.6209 15.4736 19.7051 15.6531 19.7923C15.7722 19.8508 16.0543 20.0089 16.0543 20.0089C16.0543 20.0089 16.2044 20.1374 15.282 20.3218C15.2081 20.31 14.7046 20.3378 14.7046 20.3378C15.277 20.6322 15.9771 20.8533 16.7011 20.9676C16.592 21.1424 16.4667 21.3033 16.3327 21.455C15.3856 21.1612 14.5607 20.9234 13.9107 20.7941C13.245 20.6617 12.5877 20.7205 11.9648 20.8453C11.8167 20.8751 11.6646 20.8988 11.5139 20.9255C11.2903 20.7778 11.0668 20.6418 10.8381 20.5163C11.2923 20.383 11.7081 20.2814 11.8936 20.3138C12.0303 20.3379 12.0813 20.3138 12.111 20.3138L12.0285 20.1934C11.8452 20.1272 11.8459 20.1176 11.6611 20.1212C11.28 20.1294 10.9208 20.2405 10.5691 20.3719C10.4507 20.3098 10.3344 20.2486 10.2082 20.1844C8.75742 19.4454 8.04661 19.3601 7.16476 19.1905L6.55644 19.0371C5.45553 18.6931 4.89205 17.562 5.11953 16.3594L5.14764 16.214L5.60412 14.5743L5.77378 13.9144C5.90911 13.386 5.90689 12.8286 5.76628 12.3017L5.7241 12.1453H5.72504L5.87313 12.1914C6.36264 12.3403 6.88604 12.3453 7.38035 12.1964L7.99429 12.0169L8.14989 11.9678C8.113 12.4837 8.178 13.0089 8.34579 13.5102L8.31579 13.5162C8.22941 13.5368 8.14348 13.5413 8.05709 13.5413L7.65873 13.5463C7.42358 13.5463 7.19761 13.4801 6.99604 13.3517L6.73266 13.1823L6.89106 13.4591C7.01104 13.6747 7.0729 13.9215 7.0729 14.1731L7.06822 14.5993C7.06822 14.6969 7.05918 14.7897 7.04478 14.8821L6.7664 16.571C6.58883 17.6596 7.26007 18.6974 8.27268 18.8977L8.53794 18.9147L8.54169 18.9177C8.56452 18.9199 8.5864 18.9179 8.60917 18.9197L8.81539 18.9328L8.78727 18.9238C9.15376 18.94 9.51375 18.9261 9.86144 18.8536L9.72646 18.7011C9.48658 18.8469 8.74671 19.021 8.0599 18.5116C7.59837 18.0773 7.36775 17.3961 7.51907 16.7154L7.56312 16.5199L7.71591 15.888L7.82651 15.4618C7.91289 15.1178 7.90821 14.7587 7.82182 14.4198L7.79277 14.3165L7.87431 14.3426C8.16098 14.4342 8.46296 14.4401 8.75633 14.3757L9.24468 15.1389L10.078 16.1458L9.43964 15.1078C8.97653 14.355 8.96658 13.3832 9.41433 12.6196L9.67491 12.1754L9.99266 11.8424C10.5494 11.2606 11.1656 10.747 11.8289 10.311L13.5807 9.16171L14.5462 8.47273C14.8591 8.24937 15.1285 7.96306 15.3382 7.6293L15.5004 7.37156ZM15.5004 8.64823L15.3879 9.14165C15.3015 9.51957 15.1175 9.86336 14.8583 10.1355L14.2715 10.7523L11.5927 12.7641C10.5498 13.5476 10.2903 15.0824 11.0097 16.208L11.3387 16.7224L11.8926 17.3924L11.4689 16.7024C11.1608 16.2017 11.154 15.5554 11.4521 15.0476L11.6255 14.7518L11.8364 14.5301C12.2069 14.143 12.6167 13.8018 13.0577 13.5122L14.2237 12.747L14.8667 12.2897C15.075 12.1413 15.2539 11.9499 15.3935 11.7281L15.5004 11.5556L15.6082 11.7271C15.7478 11.9494 15.9267 12.1403 16.1349 12.2887L16.7779 12.747L17.944 13.5122C18.3855 13.8018 18.7948 14.143 19.1653 14.5301L19.3762 14.7518L19.5496 15.0466C19.8471 15.5544 19.8403 16.2017 19.5327 16.7024L19.1091 17.3914L19.663 16.7224L19.992 16.208C20.7104 15.0829 20.4509 13.5471 19.4081 12.7641L16.7292 10.7523L16.1424 10.1355C15.8828 9.86285 15.6992 9.51905 15.6128 9.14165L15.5004 8.64823ZM15.5004 12.6227L15.4301 12.9285C15.3763 13.1632 15.2628 13.3764 15.102 13.5453L14.7374 13.9284L13.0755 15.177C12.4281 15.6633 12.2665 16.6158 12.7128 17.3141L12.9171 17.6331L13.262 18.0482L12.9977 17.62C12.8067 17.3094 12.8026 16.9083 12.9874 16.5931L13.0952 16.4095L13.2264 16.2721C13.4563 16.0318 13.7112 15.82 13.9847 15.6403L14.7074 15.165L15.1067 14.8811C15.2358 14.7892 15.3465 14.6708 15.4329 14.5331L15.5004 14.4268L15.5669 14.5331C15.6538 14.6708 15.7649 14.7892 15.894 14.8811L16.2924 15.166L17.016 15.6403C17.29 15.82 17.5435 16.0328 17.7734 16.2731L17.9055 16.4095L18.0124 16.5931C18.1972 16.9083 18.1931 17.3104 18.0021 17.621L17.7387 18.0492L18.0827 17.6331L18.287 17.3141C18.7338 16.6153 18.5721 15.6633 17.9252 15.177L16.2633 13.9284L15.8987 13.5453C15.738 13.3764 15.6244 13.1627 15.5707 12.9285L15.5004 12.6227ZM10.3638 18.308L10.0339 18.4364V18.8134L10.3638 18.6851V18.308ZM11.2777 18.3832C11.0992 18.3851 10.8707 18.5875 10.766 18.676C10.6205 18.7988 10.5064 18.9244 10.4435 19.1113C10.4157 19.194 10.3756 19.421 10.4923 19.4513C10.6914 19.5021 10.9353 19.3301 11.0893 19.2176C11.3216 19.0482 11.513 18.7814 11.4333 18.4604C11.3916 18.4048 11.3372 18.3826 11.2777 18.3832ZM11.1203 18.5577C11.139 18.5564 11.155 18.5626 11.1671 18.5788C11.2439 18.8869 11.0539 19.1215 10.825 19.2637C10.6441 19.3762 10.6781 19.1689 10.7088 19.021C10.7231 18.9532 10.989 18.5667 11.1203 18.5577ZM8.11521 18.5687L8.13208 18.5818C8.12661 18.5772 8.12062 18.5734 8.11521 18.5687ZM22.8855 18.5687C22.8801 18.5734 22.8741 18.5772 22.8687 18.5818L22.8855 18.5687ZM12.3838 18.9579C11.7887 18.9854 11.3741 19.3284 10.9975 19.6218C10.8367 19.7471 11.0411 19.7724 11.1812 19.7441C11.7436 19.6317 12.3211 19.6719 12.6359 20.057C12.6685 20.0966 12.7102 20.2051 12.7184 20.2646C12.7261 20.3206 12.7984 20.3024 12.7859 20.2325C12.6586 19.5386 12.0915 19.3668 11.5449 19.4453C11.8499 19.2218 12.261 19.0079 12.6884 19.2938C12.7484 19.3339 12.7692 19.0644 12.68 18.9889L12.6509 18.9659C12.5581 18.9559 12.4688 18.9539 12.3838 18.9579ZM20.3173 19.9136C20.5117 20.0106 20.7223 20.1158 20.8759 20.1844C20.6661 20.2883 20.466 20.3988 20.2732 20.5163C20.1461 20.4496 20.0183 20.3851 19.8795 20.3138C19.8764 20.3122 19.8742 20.3113 19.8711 20.3097C20.0335 20.1881 20.1811 20.055 20.3173 19.9136ZM21.0765 20.2807C21.2902 20.377 21.5255 20.4934 21.7654 20.6126C21.333 20.8088 21.0681 20.9777 21.0681 20.9777C21.0681 20.9777 20.937 20.9232 20.7681 20.8082C20.6614 20.7353 20.5592 20.679 20.456 20.6206C20.6586 20.4984 20.8652 20.3843 21.0765 20.2807ZM23.3823 20.3779C23.4945 20.3744 23.6067 20.3768 23.7188 20.386C24.0951 20.4168 24.7311 20.6026 24.7311 20.6026C24.7311 20.6026 24.657 21.092 23.8388 21.092C23.4744 21.092 22.9691 20.8455 22.3841 20.5504C22.7114 20.4527 23.0467 20.3885 23.3823 20.3779ZM19.7136 20.4211C19.8332 20.4729 19.9669 20.5413 20.1082 20.6176C19.473 21.0262 18.9079 21.5145 18.3048 22.1019C18.2525 22.1019 18.1849 22.0376 18.0424 21.9976C17.478 21.8116 17.0647 21.6864 16.6036 21.5413C16.7632 21.3864 16.93 21.2115 17.0423 21.0108C17.2404 21.0318 17.4388 21.0527 17.6365 21.0549C18.4206 21.0635 19.1333 20.8111 19.7136 20.4211ZM7.21725 20.4842C7.82635 20.4819 8.41145 20.6328 9.03284 20.9245C8.43968 21.0968 7.82706 21.2095 7.31942 21.1451C6.59428 21.0532 6.40459 20.5304 6.40459 20.5304C6.40459 20.5304 6.54003 20.5366 6.80014 20.5083C6.94082 20.4928 7.07984 20.4848 7.21725 20.4842ZM10.4998 20.6176C10.7095 20.7417 10.9163 20.8716 11.1174 21.0108C11.0147 21.0383 10.9136 21.0704 10.8156 21.112C10.6691 21.1742 10.5222 21.2375 10.3807 21.3126C10.2788 21.2483 10.1762 21.186 10.0723 21.1251C9.92485 21.0365 9.78263 20.9594 9.6421 20.8884C9.90781 20.8044 10.1852 20.7164 10.4998 20.6176ZM12.62 20.9526C13.4301 20.9416 14.1993 21.0758 14.6905 21.2525C15.0904 21.3961 15.5906 21.5503 16.104 21.7037C15.8865 21.925 15.6736 22.1332 15.4704 22.3406C14.7941 21.7293 14.0128 21.4015 13.0868 21.5884C12.889 21.6285 12.5994 21.7629 12.5994 21.7629C12.5994 21.7629 12.4259 21.6124 12.3266 21.5292C12.103 21.341 11.8939 21.1858 11.6892 21.0429C11.9973 20.9905 12.3107 20.9568 12.62 20.9526ZM15.3804 22.6665C15.7213 23.0235 15.9869 23.4168 16.0721 23.7637C16.1206 23.9608 16.1058 24.1305 16.0478 24.3122C15.9307 24.6799 15.7439 24.7141 15.5519 25.1336C15.5121 25.0222 15.5379 25.1269 15.3776 24.7274C15.2158 24.3249 15.0054 24.1463 14.9277 23.6955C14.8671 23.3458 15.0855 22.9915 15.3804 22.6665Z"
    />
</svg>
