<svg width="32" height="24" viewBox="0 0 32 24" fill="none" xmlns="http://www.w3.org/2000/svg">
    <rect width="32" height="24" rx="2" fill="#CC2727"/>
    <path fill-rule="evenodd" clip-rule="evenodd"
          d="M20 6.4C20 5.9584 19.552 5.6 19 5.6H13C12.448 5.6 12 5.9584 12 6.4V7.2V8.8V11.2V12.8V15.2V16.8V17.6C12 18.0416 12.448 18.4 13 18.4H19C19.552 18.4 20 18.0416 20 17.6V16.8V15.2V12.8V11.2V8.8V7.2V6.4ZM22 8.8V11.2H25C25.552 11.2 26 11.5584 26 12C26 12.4416 25.552 12.8 25 12.8H22V15.2H24C25.105 15.2 26 15.916 26 16.8V19.2C26 19.6416 25.552 20 25 20C24.448 20 24 19.6416 24 19.2V17.6C24 17.1584 23.552 16.8 23 16.8H22V18.4C22 19.284 21.105 20 20 20H12C10.895 20 10 19.284 10 18.4V16.8H9C8.448 16.8 8 17.1584 8 17.6V19.2C8 19.6416 7.552 20 7 20C6.448 20 6 19.6416 6 19.2V16.8C6 15.916 6.895 15.2 8 15.2H10V12.8H7C6.448 12.8 6 12.4416 6 12C6 11.5584 6.448 11.2 7 11.2H10V8.8H8C6.895 8.8 6 8.084 6 7.2V4.8C6 4.3584 6.448 4 7 4C7.552 4 8 4.3584 8 4.8V6.4C8 6.8416 8.448 7.2 9 7.2H10V5.6C10 4.716 10.895 4 12 4H20C21.105 4 22 4.716 22 5.6V7.2H23C23.552 7.2 24 6.8416 24 6.4V4.8C24 4.3584 24.448 4 25 4C25.552 4 26 4.3584 26 4.8V7.2C26 8.084 25.105 8.8 24 8.8H22ZM18 15.2C17.448 15.2 17 15.5584 17 16C17 16.4416 17.448 16.8 18 16.8C18.552 16.8 19 16.4416 19 16C19 15.5584 18.552 15.2 18 15.2ZM15 16C15 16.4416 14.552 16.8 14 16.8C13.448 16.8 13 16.4416 13 16C13 15.5584 13.448 15.2 14 15.2C14.552 15.2 15 15.5584 15 16Z"
          fill="white"/>
</svg>
