<svg width="32" height="24" viewBox="0 0 32 24" fill="none" xmlns="http://www.w3.org/2000/svg">
    <path d="M32 20.3077C32 21.287 31.6254 22.2261 30.9586 22.9185C30.2918 23.611 29.3874 24 28.4444 24H3.55556C2.61256 24 1.70819 23.611 1.0414 22.9185C0.374602 22.2261 0 21.287 0 20.3077V3.69231C0 2.71305 0.374602 1.77389 1.0414 1.08145C1.70819 0.38901 2.61256 0 3.55556 0H28.4444C29.3874 0 30.2918 0.38901 30.9586 1.08145C31.6254 1.77389 32 2.71305 32 3.69231V20.3077Z"
          fill="#DE2910"/>
    <path d="M9.8985 3.67108L10.5527 3.9997L11.0763 3.47723L10.9776 4.22493L11.6176 4.58123L10.9029 4.71416L10.7749 5.45631L10.4318 4.7917L9.71183 4.89416L10.2149 4.35046L9.8985 3.67108ZM14.0452 6.38585L13.7287 7.06431L14.2318 7.60893L13.5127 7.50554L13.1696 8.17108L13.0416 7.428L12.3261 7.29508L12.9669 6.93877L12.8674 6.192L13.3918 6.71446L14.0452 6.38585ZM13.1945 9.87416L13.4327 10.5868L14.1589 10.6025L13.5803 11.0575L13.7909 11.7803L13.1945 11.3492L12.5981 11.7803L12.8078 11.0575L12.2292 10.6025L12.9554 10.5868L13.1945 9.87416ZM9.8985 12.9018L10.5527 13.2305L11.0763 12.708L10.9776 13.4557L11.6176 13.812L10.9029 13.9449L10.7749 14.6871L10.4318 14.0225L9.71183 14.1249L10.2149 13.5812L9.8985 12.9018ZM6.22206 5.49323L7.04783 7.95877L9.55983 8.01231L7.55717 9.58893L8.28517 12.0868L6.22206 10.596L4.15894 12.0868L4.88694 9.58893L2.88428 8.01231L5.39628 7.95877L6.22206 5.49323Z"
          fill="#FFDE02"/>
</svg>
