<svg width="32" height="24" viewBox="0 0 32 24" fill="none" xmlns="http://www.w3.org/2000/svg">
    <rect width="32" height="24" rx="2" fill="#4E77C6"/>
    <path d="M21.4787 13.4221C21.4866 13.4051 21.4975 13.3894 21.511 13.3759C21.5206 13.3622 21.5314 13.3494 21.5434 13.3375L21.592 13.2913C21.6122 13.2759 21.6284 13.2567 21.6526 13.2413C21.6891 13.2106 21.7336 13.1759 21.7821 13.1413C21.8387 13.1029 21.8994 13.0644 21.9642 13.0221C22.0815 12.9452 22.2109 12.8644 22.3404 12.7913C22.4699 12.7182 22.5993 12.6375 22.7166 12.5721C24.2095 11.7221 26.6976 10.3029 25.8156 7.38363C25.8078 7.34779 25.7955 7.31294 25.7792 7.27979C25.7747 7.2594 25.7665 7.23986 25.7549 7.2221C25.7499 7.20733 25.7431 7.19313 25.7347 7.17979C24.7359 5.45379 23.2231 4.04671 21.3862 3.13512C19.5492 2.22352 17.47 1.84803 15.4095 2.05576C13.3489 2.2635 11.3987 3.0452 9.80377 4.30279C8.20878 5.56036 7.04007 7.23779 6.44423 9.12456C5.8484 11.0113 5.85202 13.0234 6.45463 14.9082C7.05724 16.793 8.232 18.4666 9.83149 19.719C11.4309 20.9714 13.3839 21.7467 15.4452 21.9478C17.5065 22.1488 19.5843 21.7666 21.418 20.849C21.4552 20.8336 21.4905 20.8142 21.5232 20.7913C21.5347 20.7846 21.5455 20.7769 21.5555 20.7682C22.6276 20.0452 23.5945 18.6144 22.7976 16.9567C22.5791 16.5029 22.3728 16.1106 22.1867 15.7682C21.9409 15.3489 21.7338 14.9101 21.5677 14.4567C21.5477 14.4001 21.5315 14.3422 21.5191 14.2836C21.4487 14.0041 21.4336 13.7146 21.4746 13.4298C21.4746 13.4259 21.4787 13.4259 21.4787 13.4221ZM10.4705 11.999C10.4705 11.6453 10.5808 11.2995 10.7876 11.0054C10.9942 10.7113 11.288 10.4821 11.6318 10.3467C11.9756 10.2114 12.3538 10.1759 12.7187 10.2449C13.0837 10.3139 13.4188 10.4843 13.682 10.7344C13.9451 10.9845 14.1242 11.3032 14.1968 11.6501C14.2694 11.9971 14.2321 12.3566 14.0897 12.6834C13.9474 13.0102 13.7062 13.2896 13.3969 13.4861C13.0875 13.6826 12.7238 13.7875 12.3517 13.7875C11.8529 13.7871 11.3747 13.5985 11.022 13.2632C10.6693 12.9279 10.4709 12.4732 10.4705 11.999ZM13.8769 17.3182C13.5931 17.3186 13.3156 17.2389 13.0794 17.0893C12.8432 16.9396 12.6591 16.7267 12.5503 16.4775C12.4415 16.2282 12.4129 15.9539 12.4682 15.6893C12.5235 15.4246 12.6601 15.1815 12.8608 14.9907C13.0615 14.7999 13.3172 14.67 13.5956 14.6174C13.874 14.5649 14.1625 14.5921 14.4247 14.6955C14.6868 14.7989 14.9108 14.974 15.0682 15.1985C15.2257 15.423 15.3095 15.6869 15.3091 15.9567C15.3084 16.3176 15.1572 16.6635 14.8888 16.9187C14.6204 17.1739 14.2565 17.3176 13.8769 17.3182ZM16.5106 10.5567C15.9879 10.5563 15.477 10.4087 15.0426 10.1323C14.6081 9.85602 14.2696 9.46344 14.0697 9.00425C13.8698 8.54506 13.8177 8.03983 13.9197 7.55244C14.0218 7.06506 14.2736 6.61736 14.6432 6.26598C15.0128 5.9146 15.4837 5.67525 15.9964 5.57821C16.5091 5.48113 17.0405 5.53075 17.5235 5.72075C18.0065 5.91075 18.4194 6.23263 18.7101 6.64567C19.0007 7.05871 19.1561 7.5444 19.1565 8.04133C19.1561 8.70821 18.8771 9.34759 18.381 9.81898C17.8848 10.2904 17.2121 10.5552 16.5106 10.5552V10.5567Z"
          fill="#BDFA3B"/>
    <line x1="4.3" y1="3.6" x2="28.3" y2="21.6" stroke="white"/>
    <line x1="28.2774" y1="4.41603" x2="4.27735" y2="20.416" stroke="white"/>
</svg>
