<svg width="32" height="24" viewBox="0 0 32 24" fill="none" xmlns="http://www.w3.org/2000/svg">
    <rect width="32" height="24" rx="2" fill="#A87220"/>
    <path d="M16.0012 17.0016C18.7629 17.0016 21.0017 14.7628 21.0017 12.0011C21.0017 9.23937 18.7629 7.00055 16.0012 7.00055C13.2395 7.00055 11.0007 9.23937 11.0007 12.0011C11.0007 14.7628 13.2395 17.0016 16.0012 17.0016Z"
          fill="white"/>
    <path fill-rule="evenodd" clip-rule="evenodd"
          d="M9.75043 11.9986C9.75043 11.3076 9.19135 10.7485 8.50039 10.7485H7.25004C6.55908 10.7485 6 11.3076 6 11.9986C6 12.6896 6.55908 13.2487 7.25004 13.2487H8.50008C9.19135 13.2487 9.75043 12.6896 9.75043 11.9986Z"
          fill="white"/>
    <path fill-rule="evenodd" clip-rule="evenodd"
          d="M9.81387 16.4182L8.92884 17.3035C8.44039 17.7917 8.44039 18.583 8.92884 19.0711C9.41698 19.5592 10.2083 19.5592 10.6967 19.0711L11.582 18.1861C12.0702 17.6979 12.0702 16.9063 11.582 16.4182C11.0933 15.9297 10.3023 15.9297 9.81387 16.4182Z"
          fill="white"/>
    <path fill-rule="evenodd" clip-rule="evenodd"
          d="M16.0013 18.2495C15.3103 18.2495 14.7512 18.8086 14.7512 19.4996V20.7499C14.7512 21.4409 15.3103 22 16.0013 22C16.6922 22 17.2513 21.4409 17.2513 20.7499L17.25 19.4996C17.2513 18.8086 16.691 18.2495 16.0013 18.2495Z"
          fill="white"/>
    <path fill-rule="evenodd" clip-rule="evenodd"
          d="M22.1874 16.4194C21.7002 15.93 20.9089 15.93 20.4208 16.4182C19.9327 16.9063 19.9327 17.6979 20.4208 18.1861L21.3049 19.0699C21.793 19.5605 22.5843 19.558 23.0724 19.0699C23.5606 18.5817 23.5618 17.7917 23.0724 17.3023L22.1874 16.4194Z"
          fill="white"/>
    <path fill-rule="evenodd" clip-rule="evenodd"
          d="M24.7524 10.7485L23.4995 10.751C22.811 10.7485 22.252 11.3076 22.252 11.9986C22.2495 12.6896 22.811 13.2487 23.4995 13.2487H24.7499C25.4433 13.2512 25.9999 12.6896 25.9999 11.9986C26.0011 11.3089 25.4433 10.7485 24.7524 10.7485Z"
          fill="white"/>
    <path fill-rule="evenodd" clip-rule="evenodd"
          d="M22.1874 7.58026L23.0712 6.69616C23.5631 6.20676 23.5593 5.41672 23.0712 4.92826C22.584 4.43855 21.793 4.43855 21.3049 4.92701L20.4208 5.8133C19.9327 6.29926 19.9327 7.09024 20.4208 7.5787C20.9064 8.06997 21.7002 8.06747 22.1874 7.58026Z"
          fill="white"/>
    <path fill-rule="evenodd" clip-rule="evenodd"
          d="M16.0013 5.74768C16.691 5.75268 17.2513 5.18859 17.2513 4.50012V3.25007C17.2513 2.5566 16.6922 2.00001 16.0013 2.00001C15.3103 1.99751 14.7512 2.5566 14.7512 3.24788L14.7537 4.50044C14.7512 5.18859 15.3103 5.74768 16.0013 5.74768Z"
          fill="white"/>
    <path fill-rule="evenodd" clip-rule="evenodd"
          d="M9.81642 7.57902C10.3024 8.06717 11.0911 8.06717 11.5808 7.57777C12.0727 7.09306 12.0702 6.29958 11.5833 5.81237L10.6993 4.92858C10.2086 4.43762 9.41984 4.44137 8.93139 4.92858C8.43919 5.41579 8.43919 6.20677 8.92764 6.69523L9.81642 7.57902Z"
          fill="white"/>
</svg>
