<svg viewBox="0 0 30 31" xmlns="http://www.w3.org/2000/svg">
    <path d="M16.0781 16.8125H12.5977L12.5859 14.6328H15.668C16.1445 14.6328 16.5508 14.5391 16.8867 14.3516C17.2227 14.1641 17.4766 13.8906 17.6484 13.5312C17.8281 13.1719 17.918 12.7383 17.918 12.2305C17.918 11.668 17.8398 11.2109 17.6836 10.8594C17.5273 10.5 17.2812 10.2383 16.9453 10.0742C16.6172 9.91016 16.1953 9.82812 15.6797 9.82812H13.4414V24.5H10.5938V7.4375H15.6797C16.4766 7.4375 17.1875 7.53125 17.8125 7.71875C18.4453 7.89844 18.9805 8.17578 19.418 8.55078C19.8555 8.92578 20.1875 9.40625 20.4141 9.99219C20.6484 10.5703 20.7656 11.2578 20.7656 12.0547C20.7656 12.75 20.6172 13.3906 20.3203 13.9766C20.0234 14.5547 19.582 15.0312 18.9961 15.4062C18.418 15.7734 17.6992 15.9922 16.8398 16.0625L16.0781 16.8125ZM15.9727 24.5H11.6602L12.9727 22.1211H15.9727C16.4805 22.1211 16.8984 22.0117 17.2266 21.793C17.5547 21.5742 17.8008 21.2695 17.9648 20.8789C18.1289 20.4883 18.2109 20.0312 18.2109 19.5078C18.2109 18.9609 18.1406 18.4844 18 18.0781C17.8594 17.6719 17.6328 17.3594 17.3203 17.1406C17.0078 16.9219 16.5938 16.8125 16.0781 16.8125H13.207L13.2305 14.6328H16.8984L17.5547 15.4648C18.375 15.4805 19.043 15.6836 19.5586 16.0742C20.0742 16.457 20.4531 16.9531 20.6953 17.5625C20.9375 18.1719 21.0586 18.8242 21.0586 19.5195C21.0586 20.6055 20.8555 21.5195 20.4492 22.2617C20.043 22.9961 19.4609 23.5547 18.7031 23.9375C17.9531 24.3125 17.043 24.5 15.9727 24.5Z"
    />
</svg>
