<svg viewBox="0 0 30 31" xmlns="http://www.w3.org/2000/svg">
    <path d="M24.2657 8.57598L16.2359 3.83782C15.882 3.62479 15.4566 3.5 15.0008 3.5C14.545 3.5 14.1196 3.62559 13.7532 3.84417L13.7649 3.83782L5.73511 8.57598C4.99233 9.02189 4.50156 9.83344 4.5 10.7618V20.2382C4.50156 21.1666 4.99389 21.9781 5.72422 22.4177L5.73667 22.424L13.7649 27.1622C14.1188 27.3744 14.5458 27.5 15.0016 27.5C15.4558 27.5 15.8812 27.3744 16.2476 27.1558L16.2367 27.1622L24.2649 22.424C25.0077 21.9781 25.4984 21.1666 25.5 20.2382V10.7618C25.4984 9.83344 25.0077 9.02189 24.2766 8.58233L24.2657 8.57598ZM23.8542 20.2382C23.8542 20.5474 23.6901 20.8184 23.4451 20.9647L23.442 20.9663L15.4122 25.7044C15.294 25.7744 15.1524 25.8173 15 25.8173C14.8476 25.8173 14.7068 25.7752 14.5839 25.702L14.5878 25.7036L6.558 20.9655C6.30989 20.8176 6.14656 20.5466 6.14656 20.2374V10.761C6.14656 10.4518 6.31067 10.1808 6.55567 10.0345L6.55878 10.033L14.5886 5.29479C14.7068 5.22326 14.8483 5.18113 15.0008 5.18113C15.1532 5.18113 15.294 5.22326 15.4169 5.29559L15.4122 5.294L23.442 10.0322C23.6901 10.1792 23.8534 10.451 23.8534 10.7603L23.8542 20.2382Z"
    />
    <path d="M19.7404 18.2431H19.1509C19.0047 18.2431 18.8685 18.282 18.7503 18.3504L18.755 18.3472L15.1974 20.3439L11.0892 17.9203V13.086L15.1974 10.6609L18.7565 12.6512C18.8701 12.7164 19.0078 12.7553 19.1517 12.7553H19.7412C19.9691 12.7553 20.1527 12.5654 20.1527 12.3333V11.7642C20.1527 11.6052 20.0671 11.4677 19.9419 11.3961L19.9388 11.3945L15.9892 9.18722C15.7613 9.05686 15.4875 8.98055 15.1998 8.98055C14.8964 8.98055 14.6118 9.06481 14.3675 9.21027L14.3753 9.2055L10.2679 11.629C9.77321 11.9271 9.44655 12.4676 9.44421 13.0868V17.9211C9.44421 18.5403 9.77244 19.0824 10.2601 19.3741L10.2671 19.3789L14.3745 21.8024C14.6118 21.9439 14.8957 22.0282 15.1998 22.0282C15.4899 22.0282 15.7621 21.9503 15.9985 21.8175L15.9892 21.8223L19.9403 19.607C20.0694 19.5347 20.155 19.3964 20.155 19.2374V18.6683C20.155 18.4354 19.9699 18.2478 19.7435 18.2478L19.7404 18.2431Z"
    />
</svg>
