<svg viewBox="0 0 30 31" xmlns="http://www.w3.org/2000/svg">
    <path d="M21.5871 13.1227C22.4656 12.7715 23.1705 12.1924 23.5875 11.4793C24.0045 10.7662 24.109 9.96088 23.8843 9.19405C23.6595 8.42723 23.1185 7.74386 22.3492 7.25484C21.5798 6.76581 20.6272 6.49981 19.6458 6.5H11.8542C10.8728 6.49981 9.9202 6.76581 9.15084 7.25484C8.38148 7.74386 7.84052 8.42723 7.61574 9.19405C7.39096 9.96088 7.49554 10.7662 7.91251 11.4793C8.32949 12.1924 9.03439 12.7715 9.91286 13.1227C9.1881 13.4122 8.57832 13.8582 8.15207 14.4107C7.72582 14.9632 7.5 15.6002 7.50001 16.25C7.50001 16.8999 7.72584 17.5369 8.1521 18.0893C8.57836 18.6418 9.18815 19.0879 9.91291 19.3774C9.21881 19.6551 8.62972 20.0766 8.20656 20.5983C7.78339 21.12 7.54151 21.723 7.50593 22.3449C7.47035 22.9668 7.64236 23.585 8.00418 24.1357C8.36599 24.6863 8.90448 25.1494 9.56395 25.477C10.2234 25.8046 10.9799 25.9848 11.7553 25.9991C12.5306 26.0133 13.2966 25.8611 13.974 25.558C14.6515 25.255 15.2158 24.8121 15.6086 24.2754C16.0014 23.7386 16.2084 23.1273 16.2083 22.5047V18.3915C16.6091 18.8064 17.1211 19.1434 17.7064 19.3775C18.2917 19.6117 18.9352 19.7369 19.5891 19.744C20.243 19.751 20.8905 19.6397 21.4834 19.4183C22.0763 19.1969 22.5995 18.871 23.014 18.465C23.4285 18.059 23.7237 17.5832 23.8777 17.073C24.0316 16.5628 24.0404 16.0313 23.9033 15.518C23.7662 15.0047 23.4868 14.5228 23.0858 14.1081C22.6848 13.6934 22.1726 13.3566 21.5871 13.1227ZM23.0833 9.99532C23.0823 10.7266 22.7201 11.4277 22.0762 11.945C21.4322 12.4622 20.559 12.7534 19.6481 12.7547L19.6458 12.7547L19.6414 12.7548L16.2083 12.7547V7.23586H19.6458C20.5572 7.23669 21.4309 7.52768 22.0754 8.045C22.7198 8.56232 23.0823 9.26372 23.0833 9.99532ZM16.978 13.4906C16.6905 13.6701 16.432 13.8777 16.2083 14.1085V13.4906L16.978 13.4906ZM8.41667 9.99532C8.41771 9.26372 8.7802 8.56232 9.42463 8.045C10.0691 7.52768 10.9428 7.23669 11.8542 7.23586H15.2917V12.7547H11.8542L11.852 12.7547C10.941 12.7534 10.0678 12.4622 9.42388 11.945C8.77992 11.4277 8.41772 10.7266 8.41667 9.99532ZM11.8542 25.2641C11.4025 25.2644 10.9552 25.1933 10.5379 25.0547C10.1205 24.9162 9.74121 24.713 9.42172 24.4567C9.10222 24.2005 8.84877 23.8962 8.67585 23.5612C8.50293 23.2263 8.41392 22.8673 8.41392 22.5047C8.41392 22.1422 8.50293 21.7832 8.67585 21.4482C8.84877 21.1133 9.10222 20.809 9.42172 20.5527C9.74121 20.2965 10.1205 20.0933 10.5379 19.9547C10.9552 19.8162 11.4025 19.745 11.8542 19.7453L15.2917 19.7452V22.5047C15.2906 23.2363 14.9281 23.9377 14.2837 24.455C13.6393 24.9723 12.7655 25.2633 11.8542 25.2641ZM15.2917 19.0094L11.8542 19.0095C10.9428 19.0093 10.0688 18.7187 9.42427 18.2014C8.77977 17.6841 8.41756 16.9825 8.41727 16.2509C8.41698 15.5193 8.77864 14.8175 9.42273 14.2999C10.0668 13.7823 10.9406 13.4912 11.852 13.4906L11.8542 13.4906L15.2917 13.4906V19.0094ZM19.6458 19.0095C18.7347 19.0092 17.861 18.7186 17.2167 18.2016C16.5723 17.6845 16.2101 16.9832 16.2095 16.2518C16.2089 15.5204 16.57 14.8188 17.2136 14.301C17.8571 13.7833 18.7303 13.4918 19.6414 13.4906H19.6458L19.648 13.4906C20.5591 13.4915 21.4325 13.7828 22.0762 14.3003C22.72 14.8179 23.0814 15.5195 23.0811 16.2509C23.0808 16.9823 22.7188 17.6837 22.0747 18.2009C21.4305 18.7182 20.5569 19.009 19.6458 19.0095Z"
    />
</svg>
