<svg viewBox="0 0 30 31" xmlns="http://www.w3.org/2000/svg">
    <path fill-rule="evenodd" clip-rule="evenodd"
          d="M9.33553 24.6071C8.85918 24.6071 8.40235 24.4359 8.06553 24.1312C7.7287 23.8264 7.53947 23.4131 7.53947 22.9821C7.53947 22.5512 7.7287 22.1378 8.06553 21.8331C8.40235 21.5283 8.85918 21.3571 9.33553 21.3571C9.81187 21.3571 10.2687 21.5283 10.6055 21.8331C10.9424 22.1378 11.1316 22.5512 11.1316 22.9821C11.1316 23.4131 10.9424 23.8264 10.6055 24.1312C10.2687 24.4359 9.81187 24.6071 9.33553 24.6071ZM6 22.9821C6 23.7825 6.35142 24.5501 6.97695 25.1161C7.60249 25.682 8.45089 26 9.33553 26C10.2202 26 11.0686 25.682 11.6941 25.1161C12.3196 24.5501 12.6711 23.7825 12.6711 22.9821C12.6711 22.1818 12.3196 21.4142 11.6941 20.8482C11.0686 20.2822 10.2202 19.9643 9.33553 19.9643C8.45089 19.9643 7.60249 20.2822 6.97695 20.8482C6.35142 21.4142 6 22.1818 6 22.9821ZM9.33553 11.1429C9.09967 11.1429 8.86611 11.1008 8.64821 11.0192C8.4303 10.9375 8.2323 10.8178 8.06553 10.6669C7.89875 10.516 7.76645 10.3369 7.67619 10.1397C7.58593 9.94256 7.53947 9.73126 7.53947 9.51786C7.53947 9.30446 7.58593 9.09315 7.67619 8.896C7.76645 8.69884 7.89875 8.5197 8.06553 8.36881C8.2323 8.21791 8.4303 8.09822 8.64821 8.01655C8.86611 7.93489 9.09967 7.89286 9.33553 7.89286C9.81187 7.89286 10.2687 8.06406 10.6055 8.36881C10.9424 8.67356 11.1316 9.08688 11.1316 9.51786C11.1316 9.94883 10.9424 10.3622 10.6055 10.6669C10.2687 10.9717 9.81187 11.1429 9.33553 11.1429ZM6 9.51786C6 10.3182 6.35142 11.0858 6.97695 11.6518C7.60249 12.2178 8.45089 12.5357 9.33553 12.5357C10.2202 12.5357 11.0686 12.2178 11.6941 11.6518C12.3196 11.0858 12.6711 10.3182 12.6711 9.51786C12.6711 8.71747 12.3196 7.94987 11.6941 7.38391C11.0686 6.81795 10.2202 6.5 9.33553 6.5C8.45089 6.5 7.60249 6.81795 6.97695 7.38391C6.35142 7.94987 6 8.71747 6 9.51786ZM22.1645 11.1429C21.9286 11.1429 21.6951 11.1008 21.4772 11.0192C21.2592 10.9375 21.0613 10.8178 20.8945 10.6669C20.7277 10.516 20.5954 10.3369 20.5051 10.1397C20.4149 9.94256 20.3684 9.73126 20.3684 9.51786C20.3684 9.30446 20.4149 9.09315 20.5051 8.896C20.5954 8.69884 20.7277 8.5197 20.8945 8.36881C21.0613 8.21791 21.2592 8.09822 21.4772 8.01655C21.6951 7.93489 21.9286 7.89286 22.1645 7.89286C22.6408 7.89286 23.0976 8.06406 23.4345 8.36881C23.7713 8.67356 23.9605 9.08688 23.9605 9.51786C23.9605 9.94883 23.7713 10.3622 23.4345 10.6669C23.0976 10.9717 22.6408 11.1429 22.1645 11.1429ZM18.8289 9.51786C18.8289 10.3182 19.1804 11.0858 19.8059 11.6518C20.4314 12.2178 21.2798 12.5357 22.1645 12.5357C23.0491 12.5357 23.8975 12.2178 24.523 11.6518C25.1486 11.0858 25.5 10.3182 25.5 9.51786C25.5 8.71747 25.1486 7.94987 24.523 7.38391C23.8975 6.81795 23.0491 6.5 22.1645 6.5C21.2798 6.5 20.4314 6.81795 19.8059 7.38391C19.1804 7.94987 18.8289 8.71747 18.8289 9.51786Z"
    />
    <path fill-rule="evenodd" clip-rule="evenodd"
          d="M9.33553 20.6607C9.53968 20.6607 9.73547 20.5873 9.87982 20.4567C10.0242 20.3261 10.1053 20.149 10.1053 19.9643V12.5357C10.1053 12.351 10.0242 12.1739 9.87982 12.0433C9.73547 11.9127 9.53968 11.8393 9.33553 11.8393C9.13139 11.8393 8.9356 11.9127 8.79125 12.0433C8.64689 12.1739 8.5658 12.351 8.5658 12.5357V19.9643C8.5658 20.3487 8.91064 20.6607 9.33553 20.6607Z"
    />
    <path fill-rule="evenodd" clip-rule="evenodd"
          d="M21.3947 13.2321V12.3036H22.9342V13.2321C22.9342 14.1557 22.5287 15.0414 21.807 15.6944C21.0852 16.3474 20.1063 16.7143 19.0855 16.7143H11.9013C11.425 16.7143 10.9681 16.8855 10.6313 17.1902C10.2945 17.495 10.1053 17.9083 10.1053 18.3393H8.5658C8.5658 17.5389 8.91722 16.7713 9.54275 16.2053C10.1683 15.6394 11.0167 15.3214 11.9013 15.3214H19.0855C19.698 15.3214 20.2853 15.1013 20.7184 14.7095C21.1515 14.3177 21.3947 13.7863 21.3947 13.2321Z"
    />
</svg>
