<svg viewBox="0 0 30 31" xmlns="http://www.w3.org/2000/svg">
    <path d="M25.5 11.0563V19.9376C25.5 20.514 25.1503 21.0507 24.5884 21.3407L15.9113 25.7839C15.6338 25.9266 15.319 26 14.9975 26C14.6806 26 14.365 25.9266 14.0874 25.7839L11.1902 24.2637C10.758 24.0498 10.9689 23.9736 11.1118 23.9297C11.6889 23.7521 11.8057 23.7112 12.4218 23.4011C12.486 23.3685 12.5708 23.3812 12.6371 23.4152L14.8629 24.5872C14.9435 24.6275 15.0575 24.6275 15.1317 24.5872L23.8095 20.1453C23.8903 20.1044 23.9421 20.0227 23.9421 19.9377V11.0563C23.9421 10.9693 23.8903 10.888 23.8074 10.8441L15.1332 6.40613C15.0532 6.36462 14.9465 6.36462 14.8659 6.40613L6.19364 10.8453C6.10939 10.888 6.05624 10.9718 6.05624 11.0563V19.9376C6.05624 20.0226 6.10935 20.1024 6.19313 20.1427L8.57033 21.3613C9.85993 21.9327 10.6498 21.2592 10.6498 20.5823V11.8141C10.6498 11.6901 10.7621 11.5923 10.9019 11.5923H12.0023C12.1399 11.5923 12.2539 11.69 12.2539 11.8141V20.5824C12.2539 22.1089 11.3162 22.9846 9.68425 22.9846C9.18304 22.9846 8.78771 22.9846 7.68523 22.5032L5.41003 21.3407C4.84778 21.0533 4.5 20.514 4.5 19.9376V11.0563C4.5 10.4791 4.84778 9.9405 5.41003 9.65344L14.0875 5.20654C14.6366 4.93115 15.3669 4.93115 15.9113 5.20654L24.5884 9.65344C25.1503 9.94169 25.5 10.4791 25.5 11.0563ZM18.0201 19.0904C15.4306 19.0904 14.8608 18.5131 14.6699 17.3711C14.6478 17.2492 14.5301 17.1585 14.389 17.1585H13.1236C12.9669 17.1585 12.8411 17.2695 12.8411 17.4093C12.8411 18.8707 13.738 20.6136 18.0201 20.6136C21.1205 20.6136 22.8982 19.5312 22.8982 17.6406C22.8982 15.7657 21.4697 15.2669 18.4631 14.9139C15.4241 14.5573 15.1153 14.3736 15.1153 13.7423C15.1153 13.222 15.3768 12.5267 17.6277 12.5267C19.6377 12.5267 20.3787 12.9109 20.6834 14.112C20.7102 14.2252 20.8262 14.3078 20.9578 14.3078H22.228C22.3067 14.3078 22.3816 14.2778 22.4351 14.228C22.4888 14.1754 22.5173 14.1068 22.5098 14.035C22.3132 11.9647 20.7621 11.0003 17.6276 11.0003C14.8376 11.0003 13.1735 12.0447 13.1735 13.7949C13.1735 15.6943 14.8292 16.2196 17.5063 16.4539C20.7102 16.7326 20.9589 17.1477 20.9589 17.7068C20.9589 18.6767 20.0814 19.0904 18.0201 19.0904Z"
    />
</svg>
