<svg viewBox="0 0 30 31" xmlns="http://www.w3.org/2000/svg">
    <path fill-rule="evenodd" clip-rule="evenodd"
          d="M19.9604 7.11198L23.2194 9.31518L23.2245 9.31889L23.2568 9.3415C23.4577 9.48277 23.6496 9.61763 23.779 9.77228C23.9445 9.97024 24 10.1821 24 10.4333V22.2103C24 22.6137 23.9255 23.0176 23.6413 23.3276C23.3538 23.6413 22.9205 23.7851 22.3825 23.8219L22.3803 23.822L10.8113 24.4936L10.8089 24.4937C10.4286 24.511 10.0941 24.4976 9.79202 24.3917C9.47672 24.281 9.23849 24.0849 9.01738 23.8148L9.01621 23.8134L6.67271 20.8914L6.6713 20.8895C6.22439 20.3174 6 19.838 6 19.2575V8.57272C6 8.22179 6.0807 7.85354 6.32198 7.55672C6.57113 7.24999 6.95023 7.06992 7.43667 7.02965L7.44347 7.02909L17.3967 6.54049C18.0057 6.49044 18.4451 6.4757 18.8378 6.5613C19.2436 6.64982 19.566 6.83709 19.9604 7.11198ZM10.3384 22.3879V22.7591C10.3384 22.9732 10.3935 23.0219 10.4103 23.0349C10.445 23.0613 10.5514 23.1082 10.8375 23.0931L22.2681 22.489C22.4942 22.4771 22.5327 22.416 22.5435 22.3989L22.5441 22.398C22.5781 22.3445 22.6011 22.2398 22.6011 22.0204V11.44C22.6011 11.2561 22.5619 11.1905 22.5517 11.1782L22.5511 11.1775L22.5509 11.1771L22.5502 11.1769C22.5497 11.1768 22.5492 11.1766 22.5488 11.1764C22.5426 11.1743 22.5179 11.1677 22.4639 11.1723L22.4572 11.1728L10.5371 11.8104C10.4639 11.8167 10.423 11.8287 10.402 11.8376C10.3853 11.8446 10.3817 11.8493 10.3807 11.8506L10.3805 11.8508C10.3728 11.8604 10.3383 11.9168 10.3383 12.1119L10.3384 22.3879ZM11.4038 10.3861L21.6174 9.87925L19.1509 8.14992L19.1463 8.14643C18.9986 8.0362 18.8523 7.9379 18.663 7.86974C18.4768 7.80259 18.2296 7.75805 17.8808 7.78718L17.8749 7.78774L7.66892 8.33865H7.66775C7.63256 8.34066 7.59756 8.34502 7.563 8.3517L9.57619 10.1531C9.81512 10.3383 9.94087 10.3945 10.0849 10.4194C10.2653 10.4505 10.4978 10.4381 10.9907 10.4064L11.4038 10.3798V10.3861ZM7.38858 9.98272V19.4187C7.38858 19.4792 7.4091 19.5381 7.44699 19.5863L8.99228 21.5506V11.5775C8.9923 11.5371 8.98311 11.4971 8.96534 11.4604C8.94757 11.4237 8.92165 11.3912 8.88941 11.3651L8.88002 11.3574L7.38858 9.98272ZM20.2762 13.9264C20.3292 14.1558 20.2762 14.3855 20.0368 14.4117L19.6389 14.4874V20.0979C19.2932 20.2762 18.9749 20.3782 18.709 20.3782C18.2842 20.3782 18.1779 20.2506 17.8599 19.8686L17.8596 19.8683L15.2565 15.9412V19.7406L16.0799 19.9195C16.0799 19.9195 16.0799 20.3786 15.4155 20.3786L13.5839 20.4805C13.5305 20.3782 13.5839 20.1233 13.7695 20.0726L14.2478 19.9453V14.9216L13.5839 14.8699C13.5307 14.6405 13.6633 14.309 14.0355 14.2833L16.0007 14.1564L18.7091 18.1344V14.6152L18.0188 14.539C17.9655 14.258 18.1779 14.0537 18.4432 14.0288L20.2762 13.9264Z"
    />
</svg>
