<svg viewBox="0 0 30 31" xmlns="http://www.w3.org/2000/svg">
    <path d="M14.6733 5.00272C14.4676 5.00973 14.262 5.03091 14.0561 5.05918C13.8579 5.08072 13.6595 5.11599 13.4681 5.14479C13.2346 5.17307 13.0008 5.18725 12.7666 5.21587C12.5468 5.24441 12.32 5.28704 12.1005 5.32267C12.0224 5.33676 11.9441 5.36503 11.866 5.37904C11.6963 5.41458 11.519 5.42893 11.3487 5.48583C11.0443 5.57862 10.7392 5.68541 10.4415 5.7986C10.1648 5.91239 9.89543 6.03302 9.63328 6.175C9.36386 6.32381 9.10845 6.50107 8.8533 6.67194C8.61189 6.83528 8.37135 7.00562 8.13694 7.19023C7.91067 7.36811 7.69769 7.56672 7.49189 7.76569C7.37876 7.87888 7.28627 8.01403 7.17978 8.14183C7.00277 8.34798 6.82567 8.54651 6.6554 8.75974C6.51426 8.93762 6.3859 9.12197 6.25115 9.30684C6.01052 9.633 5.80507 9.9813 5.6138 10.3294C5.53566 10.4715 5.46505 10.6136 5.39417 10.7553C5.28777 10.9682 5.17429 11.1744 5.07515 11.3946C5.0041 11.5439 4.9474 11.7071 4.90488 11.8704C4.806 12.2186 4.7066 12.5738 4.61438 12.9215C4.52933 13.2342 4.50789 13.5609 4.50115 13.8805C4.49389 14.1645 4.52224 14.4416 4.5505 14.7256C4.55776 14.7968 4.51559 14.8819 4.6002 14.9385C4.57185 15.0167 4.5932 15.0598 4.6352 15.0732C4.5862 15.1514 4.65673 15.2016 4.62864 15.2727C4.62138 15.2868 4.65025 15.3151 4.66373 15.3364C4.66373 15.3579 4.65699 15.3862 4.66373 15.4074C4.67134 15.4713 4.69943 15.5352 4.69943 15.6063C4.69943 15.656 4.74186 15.7129 4.75621 15.7628C4.76313 15.7838 4.75621 15.8192 4.74195 15.8335C4.69943 15.8831 4.70643 15.9257 4.77021 15.9543C4.80609 16.0464 4.79183 16.0889 4.78474 16.132C4.79874 16.1957 4.77748 16.2171 4.78474 16.2313C4.84135 16.3451 4.8627 16.4727 4.86944 16.6004C4.86944 16.6289 4.8837 16.6575 4.89796 16.6929C4.90496 16.6929 4.89796 16.8279 4.89796 16.8279C4.93296 16.8069 4.96201 16.7996 4.99728 16.7853C5.0188 16.8775 5.03971 16.9632 5.06806 17.0413C5.10359 17.0979 5.10376 17.1259 5.08968 17.1329C5.11803 17.2607 5.13203 17.3815 5.18129 17.5023C5.18129 17.3675 5.16773 17.2327 5.14629 17.1047C5.24534 17.1403 5.33047 17.1758 5.38726 17.1758C5.39452 17.1542 5.40161 17.1261 5.40896 17.1118C5.36644 17.0696 5.33091 17.0058 5.2883 16.9631C5.30247 17.0198 5.2883 17.0412 5.2883 17.0627C5.26004 17.0482 5.22434 17.0339 5.18899 17.0197C5.21734 16.9847 5.24577 16.9488 5.2883 16.9064C5.2883 16.8422 5.2533 16.7853 5.15364 16.7926C5.19625 16.7784 5.23878 16.7574 5.2883 16.7429C5.36644 16.7006 5.28121 16.6225 5.28121 16.5232C5.28821 16.4026 5.21751 16.2818 5.19616 16.1538C5.16064 15.9552 5.16781 15.6568 5.14664 15.458C5.10403 15.4223 5.06859 15.5146 5.06159 15.5219C5.0832 15.6922 5.10411 15.8625 5.11811 16.0331C5.07585 15.891 5.04724 15.7347 5.01198 15.5641C5.00471 15.6139 4.9978 15.635 4.9978 15.6638C4.9628 15.6988 4.9908 15.742 5.01198 15.7916C4.96245 15.77 4.90558 15.7775 4.90558 15.7775V15.9764C4.83496 15.9053 4.81388 15.8485 4.77809 15.7983C4.76409 15.7417 4.75639 15.6851 4.743 15.6285C4.75639 15.5927 4.743 15.5716 4.743 15.5506C4.73472 15.4937 4.72757 15.4367 4.72156 15.3796C4.72856 15.3726 4.71448 15.2663 4.71448 15.2663C4.77109 15.2733 4.80696 15.2797 4.84223 15.2797C4.77135 15.1881 4.82061 15.1311 4.8494 15.0743C4.86358 15.0458 4.91328 15.0392 4.92754 15.01C4.98415 14.9035 5.07646 14.8188 5.07646 14.6835C5.07646 14.6196 5.09834 14.5487 5.10499 14.4846C5.11916 14.3638 5.13308 14.2431 5.13981 14.1224C5.15434 13.9661 5.1399 13.8097 5.17569 13.6606C5.23282 13.4127 5.30361 13.1638 5.3814 12.9151C5.43801 12.7373 5.50232 12.5676 5.57285 12.3897C5.67925 12.1126 5.77847 11.8356 5.91322 11.5731C6.1045 11.1894 6.3243 10.82 6.5371 10.4438C6.67185 10.2093 6.8136 9.98909 6.96278 9.76194C7.10427 9.54179 7.24576 9.31454 7.40929 9.10831C7.63636 8.81726 7.88459 8.54721 8.161 8.30579C8.44468 8.05027 8.714 7.78758 9.01859 7.55316C9.4147 7.24694 9.83674 6.97584 10.2799 6.74293C10.6417 6.55158 11.0173 6.40171 11.3931 6.25973C11.6342 6.16756 11.8965 6.12493 12.1449 6.04676C12.4283 5.95432 12.7119 5.91222 13.0095 5.90495C13.2008 5.89795 13.3852 5.87633 13.5765 5.85497C13.7517 5.84175 13.9268 5.8253 14.1015 5.8056C14.0875 5.82304 14.0755 5.84198 14.0657 5.86206C13.9881 5.97585 13.903 6.08965 13.825 6.2031C13.7611 6.29553 13.6902 6.39489 13.6263 6.48706C13.5127 6.63675 13.3922 6.78573 13.286 6.94198C13.123 7.17658 12.9738 7.41791 12.8036 7.65216C12.6338 7.87931 12.4494 8.09264 12.2721 8.31253C12.0382 8.6182 11.8183 8.93053 11.5845 9.23585C11.3717 9.52691 11.1456 9.80439 10.9397 10.0954C10.7555 10.3507 10.5921 10.621 10.4148 10.8833C10.1527 11.274 9.89044 11.6574 9.62829 12.0483C9.42253 12.3457 9.21456 12.6416 9.00442 12.9359C8.99015 12.9574 8.96889 12.9638 8.94789 12.9781C8.89128 13.0703 8.89128 13.1201 8.86967 13.1628C8.81314 13.2691 8.75662 13.3758 8.69257 13.4755C8.65695 13.5322 8.60725 13.5816 8.56473 13.6385C8.55773 13.5534 8.67778 13.5106 8.62117 13.4039C8.58617 13.461 8.55029 13.5106 8.51512 13.5675L8.43007 13.7373C8.45789 13.7585 8.50558 13.773 8.45982 13.8138C8.45509 13.7971 8.4312 13.7859 8.41327 13.7724C8.3535 13.8555 8.2967 13.9406 8.24352 14.0281C8.28604 14.0633 8.30704 14.0494 8.33539 13.9995C8.36094 13.9482 8.39778 13.9082 8.43094 13.8645C8.41918 13.8865 8.40702 13.9081 8.39445 13.9296C8.42515 13.9115 8.45176 13.8872 8.47259 13.8582C8.47259 13.9364 8.42998 14.0001 8.39445 14.064C8.3661 14.1207 8.29532 14.1636 8.2457 14.2058C8.2527 14.2129 8.3024 14.2345 8.30967 14.2416C8.37354 14.22 8.3948 14.1848 8.40215 14.2058C8.42368 14.1776 8.4445 14.1563 8.4515 14.135C8.4795 14.0639 8.52212 14.0072 8.59299 13.9786C8.62152 13.9644 8.64269 13.9432 8.66404 13.9221C8.87684 13.7017 9.09638 13.4888 9.28765 13.2543C9.58559 12.8919 9.855 12.5159 10.139 12.1467C10.2592 11.9903 10.4013 11.8342 10.5287 11.6848C10.5497 11.8482 10.5357 12.0042 10.5287 12.1538C10.5071 12.4164 10.4932 12.6791 10.4722 12.9487C10.465 13.0551 10.472 13.1616 10.4648 13.2683C10.4648 13.2966 10.4433 13.318 10.4433 13.3465C10.4433 13.4174 10.4648 13.4957 10.4648 13.5668C10.4433 13.8296 10.4147 14.085 10.3935 14.3477C10.3862 14.4043 10.4145 14.4615 10.4285 14.5113C10.3935 14.8945 10.4715 15.2997 10.4075 15.7045C10.457 15.6264 10.4713 15.5766 10.4713 15.527C10.4781 15.4844 10.4713 15.4418 10.4713 15.3922V15.3212C10.4781 15.1932 10.5062 15.0585 10.4922 14.9305C10.478 14.7885 10.4778 14.6537 10.5063 14.5186C10.5206 14.462 10.4996 14.3908 10.5352 14.3197V14.4262C10.5282 14.8304 10.5425 15.2355 10.4859 15.6403C10.4786 15.6759 10.5072 15.7401 10.4291 15.7327C10.3649 15.8605 10.4431 15.953 10.3726 16.0239C10.358 16.0381 10.3861 16.102 10.3935 16.1447C10.3649 16.23 10.3649 16.23 10.4075 16.2371C10.4145 16.3934 10.429 16.535 10.4357 16.6843C10.5489 16.4148 10.4923 16.1371 10.5425 15.8601C10.5494 15.9738 10.5567 16.0878 10.5495 16.208C10.5495 16.3931 10.5422 16.5702 10.5353 16.7548C10.5353 16.7904 10.528 16.826 10.5211 16.8616C10.4995 16.9613 10.493 17.0605 10.4575 17.1526C10.4292 17.2238 10.4435 17.3306 10.4435 17.4155V17.6858C10.4718 17.8066 10.4362 17.8703 10.4575 17.9412C10.4359 18.0127 10.4291 18.0341 10.4358 18.0554L10.4575 18.1618C10.5994 18.1477 10.5356 18.2543 10.5922 18.3108C10.5496 18.368 10.5639 18.389 10.5639 18.4179C10.5639 18.4818 10.5571 18.5387 10.5499 18.6026C10.5499 18.7658 10.5427 18.9291 10.5427 19.0854C10.5427 19.107 10.5498 19.1278 10.5498 19.1491C10.5498 19.1636 10.5428 19.3483 10.5428 19.3483C10.5569 19.3693 10.5427 19.3907 10.521 19.4119C10.5143 19.4119 10.493 18.5101 10.493 18.5101H10.3866C10.3726 18.9358 10.4083 19.3192 10.3302 19.7173C10.2451 19.7243 10.2169 19.7383 10.1242 19.7383C9.90444 19.7383 9.68473 19.7383 9.46493 19.7454C9.20251 19.7454 8.94763 19.7524 8.68495 19.7524C8.55782 19.7524 8.42324 19.767 8.29558 19.767C8.12522 19.767 7.94803 19.7453 7.77828 19.7453C7.51561 19.7453 7.26037 19.7668 6.99805 19.7738C6.80677 19.7808 6.61558 19.7808 6.42431 19.788C6.2963 19.795 6.16829 19.8017 6.04106 19.8163C5.98454 19.8233 5.93484 19.8443 5.86396 19.8656C5.84244 19.8656 5.793 19.8586 5.75074 19.8656C5.67934 19.8798 5.61616 19.9224 5.54476 19.937C5.43836 19.9585 5.41001 19.9863 5.42401 20.093V20.1641C5.4171 20.1781 5.58011 20.1424 5.58011 20.1424C5.56559 20.1424 5.55859 20.185 5.53706 20.2206C5.59411 20.199 5.62955 20.185 5.66516 20.1709C5.77156 20.2208 5.86361 20.1925 5.9484 20.214C6.2249 20.2847 6.5084 20.3138 6.79172 20.3416C6.97635 20.3557 7.15353 20.3631 7.33772 20.3698C7.59996 20.384 7.86219 20.3984 8.12434 20.3984C8.34414 20.3984 8.55694 20.3769 8.77622 20.3769C9.08072 20.3769 9.38618 20.3909 9.69085 20.3984C9.75473 20.3984 9.82569 20.3914 9.89656 20.3914H10.4138C10.875 20.3774 11.3357 20.3697 11.7966 20.3563C12.0593 20.3485 12.3284 20.3347 12.5906 20.3275L13.3988 20.3058C13.7108 20.2988 14.0227 20.2988 14.3277 20.2924C14.5615 20.2924 14.7883 20.2845 15.0227 20.2775C15.2845 20.2705 15.5539 20.2493 15.8164 20.2352C15.9584 20.2282 16.1003 20.2136 16.242 20.1995C16.4123 20.1855 16.5895 20.1645 16.7593 20.1572C17.0147 20.1427 17.277 20.1358 17.5324 20.1215C17.8513 20.1005 18.1705 20.0719 18.4964 20.0647C18.7943 20.0507 19.0991 20.0577 19.397 20.0507C19.6595 20.0437 19.9217 20.0291 20.191 20.0221L20.6384 20.0004C20.6384 20.0004 20.9359 19.9934 21.0848 19.979C21.34 19.965 21.5949 19.9366 21.8503 19.9296C22.013 19.9226 22.1763 19.9298 22.3393 19.9226C22.6014 19.9156 22.8709 19.9009 23.1333 19.9009C23.2321 19.9009 23.3385 19.9156 23.4662 19.9226C23.4096 19.9725 23.3741 20.0006 23.3315 20.0362C23.3598 20.0432 23.388 20.0579 23.4165 20.0719C23.374 20.1002 23.3386 20.107 23.3036 20.107C23.289 20.1429 23.2748 20.1569 23.2605 20.2281H23.388C23.3385 20.2281 23.2961 20.292 23.2465 20.3346C23.19 20.32 23.1398 20.3346 23.1116 20.4127C23.1612 20.4407 23.1543 20.4621 23.1473 20.4909C23.0621 20.5189 22.9984 20.5474 23.0342 20.6395C23.0053 20.6536 22.97 20.6679 22.9345 20.6892C22.8994 20.7458 22.8353 20.7601 22.8493 20.8381C22.8779 20.8451 22.9059 20.86 22.9276 20.8664C22.8919 20.8806 22.8567 20.9018 22.8212 20.9158C22.6937 20.994 22.7503 21.0296 22.7786 21.0651C22.7571 21.0793 22.7363 21.0935 22.715 21.1008C22.729 21.1647 22.75 21.179 22.7572 21.179C22.732 21.1983 22.7072 21.2181 22.6828 21.2384C22.6851 21.2304 22.688 21.2227 22.6916 21.2152H22.6631C22.6631 21.2283 22.6658 21.2395 22.6677 21.2506C22.6612 21.2559 22.6575 21.2585 22.6508 21.264C22.6293 21.3279 22.6009 21.3561 22.5727 21.3986C22.5444 21.4413 22.53 21.4984 22.4945 21.5408C22.3458 21.7045 22.2393 21.8965 22.048 22.024C21.9769 22.0739 21.9133 22.1377 21.8494 22.2018C21.7217 22.3223 21.6084 22.4574 21.4737 22.5712C21.2967 22.7202 21.1129 22.8548 20.9211 22.9899C20.6875 23.1531 20.4537 23.3167 20.2195 23.473C20.0919 23.558 19.95 23.6218 19.8153 23.6999C19.6805 23.7781 19.5529 23.8492 19.4182 23.9271C19.3331 23.9837 19.255 24.0618 19.1629 24.1049C18.929 24.2047 18.6808 24.2896 18.44 24.382C18.2055 24.4818 18.0357 24.5665 17.8585 24.6304C17.6955 24.687 17.5252 24.7301 17.3552 24.7651C17.2987 24.7796 17.2345 24.7652 17.1706 24.7729C17.0499 24.7945 16.9296 24.8232 16.8089 24.8372C16.4969 24.8797 16.1851 24.9081 15.8735 24.9507C15.6889 24.9723 15.5113 25.0074 15.3271 25.0289C15.1997 25.0359 15.0651 25.0219 14.9374 25.0219C14.8453 25.0219 14.7462 25.0436 14.6538 25.0298C14.5051 25.0082 14.356 24.9733 14.2071 24.9447C14.1721 24.9377 14.1221 24.923 14.0941 24.9377C14.0375 24.9662 13.9872 24.9237 13.9303 24.9377C13.8953 24.9447 13.8598 24.9162 13.8242 24.9162C13.7956 24.9092 13.7602 24.9241 13.7246 24.9162C13.6465 24.8952 13.5758 24.8667 13.4901 24.8737C13.4058 24.8807 13.3203 24.8383 13.2288 24.8172C13.1008 24.7887 12.981 24.7608 12.8527 24.7319C12.8035 24.7177 12.7611 24.6963 12.7113 24.668C12.5267 24.668 12.4061 24.661 12.2927 24.6181C12.1936 24.5831 12.1016 24.5333 11.9952 24.5475C11.9672 24.5545 11.9458 24.5405 11.917 24.5405C11.8955 24.512 11.8747 24.4552 11.8537 24.4552C11.7119 24.4622 11.6269 24.3421 11.5062 24.3062C11.4426 24.2847 11.3929 24.2137 11.329 24.1924C11.1727 24.1285 11.0458 23.9939 10.8686 23.9726C10.812 23.9656 10.7552 23.9367 10.6911 23.9157C10.7127 23.9437 10.7263 23.9653 10.7478 23.9865C10.5423 23.8867 10.3509 23.7736 10.1593 23.6669C10.1313 23.6598 10.1101 23.6318 10.0889 23.6172L9.89735 23.4883C9.79095 23.5098 9.74851 23.4669 9.71973 23.4529C9.52836 23.3182 9.30883 23.2327 9.12429 23.0836C9.04615 23.0194 8.95454 22.9768 8.89802 22.8987C8.79827 22.7779 8.67778 22.693 8.54312 22.6221C8.43698 22.5655 8.33784 22.5013 8.2387 22.4374C8.18883 22.4019 8.13913 22.3592 8.13913 22.2811C8.13913 22.2312 8.11822 22.1815 8.05443 22.21C8.02608 22.1675 7.99782 22.1178 7.96229 22.1036C7.87716 22.0685 7.82037 22.0038 7.75658 21.9471C7.69271 21.8905 7.64353 21.8125 7.56539 21.7841C7.42347 21.7275 7.33816 21.6068 7.25328 21.5074C7.05448 21.2728 6.8773 21.0169 6.69302 20.769C6.67876 20.7475 6.65041 20.7331 6.62915 20.7119C6.65741 20.7901 6.69302 20.8539 6.72837 20.9248C6.65776 20.8965 6.60832 20.8465 6.5658 20.797C6.55853 20.804 7.05448 21.6209 7.05448 21.6209C7.09753 21.6848 7.13262 21.7489 7.17515 21.8127C7.06875 21.8197 6.99787 21.7628 6.96235 21.6989C6.89873 21.5856 6.82786 21.5148 6.68611 21.5293C6.67211 21.4792 6.65776 21.4223 6.65111 21.3729C6.61763 21.3734 6.58418 21.3707 6.55118 21.365C6.65093 21.5214 6.73581 21.6562 6.82795 21.8125C6.79207 21.791 6.77142 21.777 6.75663 21.77C6.88403 21.9048 6.97626 22.0753 7.13918 22.1607C7.17479 22.3238 7.35907 22.402 7.40168 22.5583C7.36668 22.5513 7.33737 22.5439 7.30176 22.5366C7.24523 22.4657 7.18136 22.395 7.11775 22.3169C7.13015 22.3632 7.15178 22.4066 7.18136 22.4444C7.26649 22.5509 7.34472 22.6573 7.44386 22.7497C7.47938 22.7859 7.52891 22.8001 7.52891 22.864C7.58543 22.8923 7.60713 22.899 7.62813 22.899C7.64266 22.9422 7.62157 23.006 7.70636 22.9918C7.76288 23.0982 7.81932 23.0981 7.89746 23.0629C7.98986 23.1553 8.03956 23.1626 8.10308 23.1059C8.10308 23.1409 8.11025 23.1767 8.11025 23.2053C8.13852 23.1911 8.13195 23.1698 8.13195 23.1342C8.16695 23.1625 8.18839 23.1767 8.20239 23.1907C8.27327 23.2904 8.33723 23.3825 8.43637 23.4606C8.57112 23.5744 8.69152 23.6952 8.81865 23.8017C9.06706 24.0079 9.34418 24.1782 9.62033 24.3343C9.96088 24.5262 10.2871 24.7322 10.6343 24.9164C11.0523 25.137 11.499 25.2864 11.9597 25.3929C12.13 25.4285 12.2931 25.4636 12.4635 25.5058C12.6117 25.549 12.7608 25.613 12.9098 25.6483C13.1366 25.6981 13.3705 25.7407 13.5973 25.783C13.6466 25.79 13.697 25.7977 13.7536 25.8047C13.8169 25.8189 13.8949 25.7904 13.9091 25.8117C13.9447 25.8684 13.973 25.8397 14.0155 25.8327C14.0651 25.8186 14.1218 25.8186 14.1785 25.8186C14.377 25.8257 14.5682 25.868 14.7667 25.854C14.8098 25.854 14.8735 25.8181 14.9091 25.889C14.9727 25.8608 15.0083 25.8608 15.0366 25.854C15.0442 25.9177 15.0364 25.9178 15.0228 25.9247C15.0083 25.9317 14.9872 25.9387 14.959 25.9601C15.2141 26.0097 15.4551 26.0167 15.6673 25.9601C16.0364 25.9884 16.3554 25.9459 16.6605 25.8393C16.6887 25.8749 16.7101 25.9246 16.7526 25.8536C16.7666 25.832 16.802 25.8249 16.8305 25.8179C16.8941 25.8037 16.9722 25.7751 17.0288 25.7962C17.0929 25.8177 17.1144 25.7611 17.1637 25.7611C17.2491 25.7611 17.327 25.754 17.4051 25.7396C17.4476 25.7326 17.4901 25.7113 17.5397 25.6971C17.4911 25.6729 17.4376 25.6606 17.3834 25.6611C17.463 25.6217 17.5435 25.584 17.6247 25.548C17.6105 25.569 17.5963 25.5971 17.5683 25.5971H17.667C17.6454 25.5971 17.6172 25.661 17.5819 25.7036C17.8368 25.6397 18.0706 25.5829 18.2977 25.5258C18.2196 25.3769 18.3826 25.4268 18.4395 25.3414C18.3686 25.3629 18.2978 25.3839 18.2267 25.3979C18.4678 25.2774 18.7158 25.171 18.9567 25.0645C18.9217 25.1071 18.8785 25.1286 18.8152 25.1644C18.8578 25.1714 18.8861 25.1714 18.9074 25.1778C19.0205 25.2136 18.9925 25.1072 19.0278 25.0431C19.1625 25.0431 19.219 25.0221 19.2828 25.0005C19.3537 24.979 19.4246 24.9578 19.4956 24.9295C19.6088 24.8798 19.7152 24.8163 19.8286 24.7596C19.8502 24.7518 19.8854 24.7596 19.9139 24.7596C19.992 24.7095 20.0198 24.667 20.0411 24.674C20.1409 24.6882 20.2109 24.6527 20.2394 24.561C20.2478 24.5549 20.252 24.5522 20.2597 24.5465C20.2881 24.6091 20.345 24.616 20.4371 24.5526C20.3803 24.5526 20.3235 24.5456 20.2739 24.5385C20.2687 24.5385 20.2669 24.542 20.2639 24.5438C20.2993 24.5175 20.332 24.4925 20.3601 24.4752C20.5158 24.3901 20.6643 24.305 20.8206 24.2198C20.8771 24.2198 20.9058 24.2199 20.9198 24.2128C21.0125 24.1697 21.0974 24.1205 21.1823 24.0707C21.1608 24.0637 21.1115 24.0356 21.1115 24.0356C21.1573 24.0271 21.2023 24.0152 21.2462 23.9998C21.4159 23.8004 21.6503 23.6655 21.8272 23.5092C21.9055 23.5022 21.9055 23.481 21.9055 23.467C21.9335 23.4314 21.9621 23.3888 21.9971 23.3602C22.1534 23.2182 22.323 23.0975 22.4649 22.9485C22.6706 22.742 22.8689 22.5287 23.0532 22.3086C23.223 22.1097 23.3939 21.9112 23.5357 21.6909C23.7342 21.3856 23.9041 21.0729 24.0814 20.7531C24.2092 20.5262 24.3227 20.299 24.4507 20.0719C24.464 20.0503 24.4927 20.0219 24.5139 20.0219C24.7052 20.0003 24.8972 19.9869 25.0814 19.9654C25.124 19.9584 25.1735 19.9301 25.216 19.9085C25.1945 19.873 25.1806 19.8306 25.1595 19.795C25.131 19.7518 25.0885 19.7168 25.06 19.6737C25.032 19.6386 25.0105 19.5956 24.9892 19.5532C24.9677 19.5182 24.9466 19.4894 24.9254 19.4533C24.8822 19.3752 24.84 19.2971 24.8041 19.2124C24.7971 19.1909 24.7825 19.1558 24.7901 19.1343C24.9177 18.8575 24.9674 18.5594 25.0878 18.2824C25.2083 17.9983 25.2441 17.6786 25.3007 17.3733C25.3502 17.0823 25.3786 16.791 25.4136 16.5C25.4352 16.2941 25.4637 16.0951 25.4705 15.8892C25.5135 15.5626 25.4988 15.257 25.4918 14.9514C25.4849 14.6818 25.4702 14.4048 25.4568 14.1348L25.4562 14.1339C25.4421 13.8569 25.435 13.58 25.4065 13.3032C25.357 12.9267 25.3074 12.543 25.2222 12.1738C25.1584 11.8685 25.0525 11.5772 24.9457 11.2862C24.8111 10.9452 24.6764 10.5973 24.5061 10.2708C24.2297 9.74513 23.8683 9.27629 23.535 8.78627C23.3147 8.47368 23.0312 8.21808 22.8184 7.8984C22.698 7.71378 22.5206 7.55788 22.3433 7.41608C22.0596 7.18831 21.7621 6.98225 21.4644 6.78363C21.2375 6.62729 21.0108 6.47822 20.7694 6.34324C20.5781 6.23627 20.3726 6.1511 20.174 6.05866C19.9471 5.95222 19.7273 5.82407 19.4722 5.77444C19.4081 5.76104 19.3514 5.73942 19.2876 5.71798C19.1246 5.66134 18.9687 5.59744 18.8054 5.54754C18.5576 5.46938 18.3165 5.37738 18.0611 5.31321C17.8138 5.24931 17.5585 5.20694 17.3031 5.17114C17.0197 5.12939 16.7292 5.11468 16.4452 5.08693C16.2609 5.0654 16.0768 5.0443 15.8995 5.0373C15.6301 5.02321 15.3537 5.02321 15.0844 5.0162C14.9497 5.0092 14.8079 4.99537 14.6733 5.00272ZM15.2806 5.82556C15.373 5.84009 15.4585 5.85427 15.5434 5.86145L15.8837 5.88298C16.1389 5.90373 16.394 5.91817 16.6489 5.95318C16.8617 5.98198 17.0747 6.02461 17.2945 6.05998C17.7627 6.13806 18.2232 6.26595 18.6699 6.41493C18.9323 6.5001 19.1871 6.6139 19.4431 6.72043C20.0169 6.95485 20.563 7.23882 21.1017 7.53687C21.2714 7.62931 21.3712 7.7783 21.4982 7.91328C21.6829 8.10524 21.8673 8.29694 22.0442 8.49556C22.2496 8.73007 22.4409 8.97158 22.6398 9.21309C22.8167 9.42598 23.0009 9.63895 23.1787 9.85245C23.2352 9.91635 23.2783 9.99443 23.3273 10.0653C23.4404 10.2359 23.5682 10.3993 23.6674 10.5836C23.738 10.7189 23.7807 10.8753 23.8303 11.0243C23.9008 11.2445 23.972 11.4574 24.0431 11.6776C24.0924 11.8409 24.1344 12.0119 24.17 12.1816C24.1986 12.2957 24.1918 12.4161 24.2268 12.5293C24.2699 12.6791 24.2268 12.842 24.2699 12.9916C24.2766 13.0058 24.2835 13.027 24.291 13.0413C24.3193 13.0693 24.3404 13.098 24.2977 13.1405C24.291 13.1475 24.291 13.1756 24.2977 13.197C24.3122 13.183 24.3194 13.1686 24.3337 13.1474C24.3337 13.1616 24.3403 13.1693 24.3403 13.1759C24.3403 13.2039 24.3331 13.2324 24.3403 13.2606C24.3403 13.2747 24.3543 13.2957 24.3614 13.3103C24.3757 13.2957 24.3897 13.2887 24.4179 13.2672C24.4818 13.509 24.4893 13.7502 24.4893 13.9987C24.4893 14.2332 24.5313 14.4677 24.4325 14.6948C24.4535 14.6167 24.404 14.5454 24.4255 14.4745L24.4283 14.4762C24.421 14.4762 24.3788 14.433 24.3718 14.426C24.3646 14.4475 24.3718 14.4685 24.3576 14.4971C24.3503 14.4761 24.3009 14.4833 24.3009 14.4622C24.2936 14.5614 24.3432 14.6608 24.3359 14.7602C24.3575 14.746 24.4424 14.7387 24.4637 14.7177C24.471 14.7247 24.4852 14.7318 24.4922 14.7318C24.3503 14.8386 24.3859 14.9447 24.4498 15.066C24.4638 15.094 24.5063 15.1506 24.4638 15.2075C24.4498 15.2217 24.4711 15.2642 24.478 15.3H24.4989V15.3138L24.435 15.3352C24.4209 15.3137 24.336 15.2718 24.336 15.2356V15.5984C24.4068 15.6199 24.4069 15.7189 24.4352 15.7687C24.4476 15.7515 24.4573 15.7324 24.4641 15.7122L24.4711 15.7192C24.4639 15.7619 24.4569 15.8042 24.4426 15.8471C24.4286 15.9108 24.4143 15.9677 24.4075 16.0315C24.4075 16.0385 24.4212 16.053 24.4212 16.0598C24.3437 16.2376 24.3862 16.436 24.3578 16.6203C24.3363 16.7551 24.3578 16.8981 24.3437 17.0399C24.3291 17.1607 24.3003 17.2881 24.2723 17.4089C24.2651 17.4305 24.2509 17.4375 24.2158 17.4517C24.2299 17.3666 24.2229 17.3095 24.2088 17.2314C24.2011 17.2314 24.1091 17.1818 24.1018 17.1818C24.1018 17.2815 24.1584 17.4165 24.1799 17.5297C24.1584 17.5227 24.0735 17.4728 24.0667 17.4728C24.0522 17.558 24.052 17.6718 24.045 17.764C24.0378 17.8352 23.9744 17.8988 23.9671 17.9769C23.9671 18.02 24.0167 18.0481 24.0097 18.1193H24.0661C24.0661 17.9775 24.1303 17.8497 24.1303 17.7003H24.1512C24.1584 17.7145 24.1799 17.7291 24.1729 17.7361C24.1587 17.8142 24.1296 17.8993 24.1372 17.9775C24.1372 18.0201 24.1723 18.0626 24.1589 18.1122C24.1443 18.1554 24.1373 18.1976 24.1301 18.2615C24.1228 18.2259 24.1159 18.212 24.1159 18.1907C24.1089 18.1907 24.045 18.1837 24.0377 18.1837C24.0308 18.2264 24.0875 18.2689 24.0802 18.3045C24.0733 18.3115 24.0662 18.3115 24.0519 18.3186L23.818 17.9776C23.6318 17.7067 23.4474 17.4345 23.2649 17.161C23.2171 17.0933 23.1742 17.0221 23.1368 16.9482C22.9171 16.5713 22.6761 16.2092 22.4067 15.8613C22.2014 15.5987 22.0376 15.3141 21.8464 15.0379C21.6697 14.7751 21.4924 14.5192 21.3152 14.2562C21.2513 14.1713 21.1734 14.0932 21.1166 14.0008C20.9326 13.7096 20.7692 13.4113 20.5854 13.1201C20.4292 12.8785 20.2593 12.644 20.0961 12.4098C20.0395 12.3316 19.9829 12.2461 19.9258 12.1609C19.9189 12.1475 19.9118 12.1334 19.9118 12.1121C19.8975 11.9558 19.8834 11.7994 19.8764 11.6503C19.8764 11.5083 19.8906 11.3664 19.8906 11.217V11.0885C19.8906 11.0529 19.8973 11.0246 19.8973 10.9889C19.904 10.9819 19.9113 10.9677 19.9183 10.9606C19.7128 10.9606 19.5 10.9528 19.2944 10.9606C19.1596 10.9677 19.0889 10.9105 18.9969 10.811C18.7274 10.5057 18.5288 10.1579 18.295 9.83127C18.0752 9.51859 17.8483 9.213 17.6214 8.90768C17.4369 8.65917 17.2522 8.41783 17.0682 8.16932C16.8624 7.88527 16.6642 7.60121 16.4514 7.31707C16.196 6.97647 15.9336 6.63517 15.6715 6.29448C15.5503 6.13815 15.4153 5.98916 15.2806 5.82556ZM14.6228 6.19828C14.6379 6.20091 14.6523 6.2136 14.6664 6.23137C14.8577 6.47288 15.0488 6.72139 15.2401 6.9629C15.3824 7.14078 15.5242 7.3106 15.6589 7.49547C15.822 7.72289 15.9778 7.95013 16.1411 8.17737C16.3253 8.43998 16.5096 8.70293 16.6868 8.97246C16.9563 9.37048 17.2114 9.76815 17.4808 10.1657C17.6794 10.4568 17.8778 10.7411 18.069 11.0323H17.7071C17.374 11.0252 17.0335 10.9971 16.7005 11.0112C16.2469 11.0327 15.7862 11.0823 15.3326 11.1179C14.7582 11.1677 14.177 11.1743 13.6031 11.1743C13.3971 11.1743 13.1916 11.2032 12.9863 11.2174C12.7379 11.2315 12.4967 11.2458 12.2486 11.2525C11.9576 11.267 11.6748 11.274 11.3839 11.2814C11.2206 11.2884 11.0507 11.2814 10.8735 11.2814V11.2796C11.0998 10.9669 11.3342 10.6545 11.561 10.3351C11.6319 10.2422 11.6885 10.1427 11.7593 10.0506C11.7809 10.022 11.8093 10.0077 11.8446 9.9792L11.8375 9.96581C11.8657 9.92992 11.8939 9.90112 11.9083 9.87302C11.9443 9.81647 11.9658 9.75231 11.994 9.68841C12.001 9.67501 12.0224 9.66075 12.0224 9.66075C12.122 9.71038 12.1219 9.60411 12.157 9.56831C12.2206 9.49678 12.2821 9.42339 12.3413 9.34825C12.3838 9.29161 12.4264 9.24171 12.4621 9.1779C12.4689 9.15637 12.4476 9.12135 12.4403 9.09255H12.4194C12.441 9.07855 12.4621 9.05745 12.4833 9.04292C12.4903 9.04292 12.4903 9.04275 12.4974 9.03592C12.5382 8.97319 12.5807 8.9116 12.6249 8.85122C12.7098 8.73804 12.8019 8.62415 12.901 8.52497C12.887 8.55999 12.8729 8.5957 12.8586 8.62406C12.8659 8.62406 12.8659 8.63107 12.8728 8.63107C12.9579 8.51727 13.0501 8.41083 13.1353 8.29686C13.128 8.28985 13.1209 8.28285 13.1136 8.28285C13.0786 8.31839 13.0501 8.35402 13.0145 8.38964C13.0076 8.38264 13.0004 8.37538 12.9929 8.37538C13.0642 8.28294 13.1351 8.19068 13.2057 8.08423C13.2199 8.10577 13.2342 8.13387 13.2622 8.19076C13.291 8.11986 13.3194 8.07023 13.3404 8.02033C13.3194 8.04187 13.2912 8.06296 13.2699 8.08458L13.2482 8.06296L13.376 7.87178C13.5107 7.67982 13.6453 7.48085 13.78 7.28897C13.8299 7.21807 13.8932 7.16143 13.9363 7.09027C14.0711 6.82083 14.284 6.60725 14.4467 6.35882C14.4823 6.30919 14.5316 6.26665 14.5742 6.22402C14.5917 6.20257 14.6077 6.19566 14.6228 6.19828ZM12.6238 8.96501C12.5814 8.99329 12.5456 9.01465 12.5034 9.04318C12.4961 9.05019 12.4887 9.05054 12.4956 9.05054C12.5028 9.08555 12.5028 9.11444 12.5098 9.16381C12.5597 9.09238 12.5948 9.03574 12.6379 8.97911L12.6238 8.96501ZM18.6068 11.8902C18.6704 11.8902 18.706 11.9118 18.7416 11.9684C18.8051 12.0748 18.869 12.1812 18.9398 12.288C18.947 12.302 18.9615 12.323 18.9615 12.3445C18.9615 12.5007 18.9613 12.6642 18.9682 12.8205C18.9749 12.9839 18.9901 13.1401 18.9965 13.3034C18.9965 13.4668 18.9821 13.6371 18.9894 13.8075C18.9966 14.0492 19.0035 14.2978 19.0035 14.5458L19.0047 14.5464V14.6106C18.9978 14.6106 18.9907 14.6176 18.9765 14.6176C18.9482 14.5179 18.9199 14.4114 18.8843 14.3119C18.8135 14.1058 18.7353 13.8996 18.6076 13.7152C18.4653 13.5165 18.3381 13.3108 18.1959 13.1047C18.1609 13.0548 18.1107 13.0123 18.0682 12.97C17.9192 12.8063 17.7704 12.6358 17.579 12.5154C17.2972 12.3385 17.0006 12.1863 16.6927 12.0604C16.6076 12.0253 16.5297 11.9821 16.4448 11.9326H16.6145L17.8268 11.911C18.0892 11.904 18.3447 11.9043 18.6068 11.8902ZM13.2833 12.0754C13.3347 12.0745 13.3861 12.0761 13.4391 12.0824C13.3259 12.1396 13.2121 12.1965 13.113 12.2674C12.9852 12.3525 12.8653 12.4661 12.7372 12.5584C12.6093 12.6506 12.4959 12.7645 12.3898 12.8853C12.255 13.0483 12.1061 13.1902 11.9641 13.3465C11.8644 13.4602 11.7515 13.5668 11.6666 13.6876C11.5461 13.8439 11.4396 14.0134 11.3262 14.1913C11.3617 13.5164 11.4044 12.8493 11.3758 12.1675C11.709 12.1533 12.0284 12.1324 12.355 12.1181C12.6096 12.1039 12.8721 12.0963 13.127 12.0823C13.1802 12.0788 13.232 12.0754 13.2833 12.0754ZM15.0618 12.4384C15.2739 12.4454 15.4866 12.4454 15.6992 12.4595C15.7912 12.4665 15.8765 12.4877 15.9617 12.516C16.0677 12.5519 16.1811 12.6013 16.2805 12.6508C16.401 12.7154 16.5143 12.786 16.6281 12.8642C16.8336 12.999 17.0251 13.1482 17.2306 13.2689C17.4292 13.3897 17.585 13.5529 17.7127 13.7378C17.869 13.9578 18.0459 14.1567 18.1167 14.4265L18.2229 14.8955C18.2444 14.9806 18.2941 15.0657 18.2727 15.1649C18.2369 15.3428 18.2086 15.5275 18.1803 15.7052C18.1663 15.7766 18.1523 15.848 18.1595 15.918C18.1729 16.1391 18.088 16.3302 18.0032 16.529C17.9746 16.5929 17.932 16.6572 17.8968 16.728C17.9037 16.735 17.9462 16.7565 17.9532 16.7565L18.0171 16.629C18.0244 16.629 18.0244 16.6288 18.0313 16.636C17.9958 16.7352 17.9676 16.842 17.9318 16.9414C17.8471 17.1616 17.762 17.3886 17.6556 17.6015C17.599 17.7223 17.4994 17.8218 17.4288 17.9357C17.3582 18.0349 17.3014 18.1415 17.2305 18.234C17.1667 18.3121 17.1031 18.3903 17.0177 18.4469C16.8265 18.5889 16.6278 18.7311 16.4223 18.8448C16.2949 18.923 16.1458 18.9653 16.004 19.0009L16.006 19C15.7789 19.0566 15.5454 19.121 15.311 19.1493C15.1128 19.1779 14.9069 19.1708 14.7014 19.1708C14.5166 19.1708 14.3393 19.1638 14.155 19.1493C13.9494 19.1283 13.7438 19.1068 13.5453 19.0143C13.3749 18.9362 13.1978 18.8654 13.0282 18.78C12.8573 18.6948 12.6874 18.5955 12.5594 18.4392C12.4677 18.3252 12.3398 18.2333 12.2264 18.1338C12.2471 18.2193 12.3006 18.2932 12.3753 18.3395C12.3398 18.3823 12.2901 18.3612 12.219 18.2471C12.198 18.2613 12.1768 18.2686 12.1625 18.2756C12.1841 18.2257 12.2052 18.1761 12.2264 18.1338C12.1982 18.0772 12.1625 18.0129 12.1343 17.9557C12.0773 17.8627 12.0229 17.7681 11.9711 17.6721C11.9569 17.6505 11.9569 17.6294 11.9428 17.6082C11.9073 17.5655 11.8719 17.5228 11.8433 17.4803C11.7867 17.3954 11.7373 17.3031 11.6664 17.2177C11.6664 17.2392 11.6735 17.2601 11.6735 17.2888C11.6662 17.2888 11.6593 17.2958 11.6593 17.2958L11.5101 16.9336C11.5031 16.9336 11.5031 16.9335 11.4961 16.9406L11.6233 17.4096C11.6164 17.4096 11.6095 17.4166 11.6019 17.4166C11.5812 17.3885 11.5599 17.36 11.5454 17.3249C11.5314 17.2677 11.4885 17.2677 11.4535 17.289C11.432 17.3031 11.4177 17.353 11.425 17.3743C11.4749 17.4951 11.5318 17.6157 11.5885 17.7365C11.6019 17.778 11.6184 17.8183 11.6379 17.8572C11.6452 17.8714 11.6664 17.8852 11.6664 17.9066C11.6949 17.9632 11.7164 18.0199 11.7517 18.0701C11.8156 18.1553 11.8865 18.2404 11.9503 18.3255C12.0136 18.4107 12.0701 18.5035 12.1268 18.5884C12.1338 18.6026 12.1552 18.6026 12.1619 18.6098C12.1978 18.7163 12.3182 18.7943 12.4033 18.7517C12.4249 18.915 12.6018 18.9718 12.6726 19.1281C12.6031 19.0997 12.5346 19.0689 12.4672 19.0357C12.46 19.0427 12.46 19.0497 12.4527 19.064C12.5378 19.1065 12.6231 19.1491 12.7006 19.1987C12.772 19.2418 12.8428 19.2844 12.9066 19.3337C12.9917 19.4118 13.0912 19.4549 13.2111 19.4829C13.2045 19.4613 13.1976 19.4541 13.1976 19.4541C13.3959 19.5466 13.6017 19.6459 13.7573 19.7236C13.02 19.7381 12.2331 19.7524 11.4177 19.7666C11.4177 19.6318 11.4106 19.5038 11.4106 19.3688C11.4106 19.3121 11.4247 19.2623 11.4173 19.2055C11.3958 18.8794 11.3957 18.5522 11.3534 18.2326C11.3112 17.8919 11.3111 17.5579 11.3184 17.2165C11.3252 17.0325 11.3111 16.8408 11.3038 16.656C11.3038 16.4075 11.304 16.1656 11.3116 15.9176C11.3116 15.882 11.3258 15.8535 11.3401 15.8177H11.3618C11.3686 15.8323 11.3617 15.8535 11.3752 15.8608C11.3967 15.8823 11.4323 15.9174 11.4465 15.9104C11.4888 15.8819 11.5527 15.854 11.5669 15.8108C11.6019 15.7259 11.6165 15.6334 11.6165 15.5482C11.6165 15.4846 11.645 15.4421 11.673 15.3992C11.6875 15.3777 11.6947 15.3568 11.7089 15.3285C11.6807 15.307 11.6523 15.2929 11.6168 15.2646C11.6454 15.1864 11.6382 15.094 11.7446 15.0517C11.7586 15.0447 11.7588 15.0085 11.7663 14.9875C11.7731 14.93 11.7795 14.8662 11.7872 14.8097C11.8012 14.8312 11.8088 14.8379 11.8222 14.8519C11.8298 14.8379 11.8368 14.8302 11.8368 14.8302C11.8368 14.8022 11.8298 14.7453 11.8368 14.7453C11.9219 14.7312 11.8863 14.639 11.9289 14.5964C11.9357 14.5886 11.9218 14.5675 11.9218 14.5534C11.9218 14.5393 11.9217 14.5183 11.9286 14.5183C12.0274 14.4967 12.0134 14.3903 12.0772 14.3405C12.0988 14.3263 12.1057 14.3053 12.134 14.2694C12.1905 14.3686 12.0913 14.4186 12.0843 14.4894C12.2045 14.4185 12.24 14.2481 12.1691 14.1983C12.1985 14.1758 12.2247 14.1495 12.2472 14.1202C12.3254 14.035 12.4101 13.957 12.4812 13.8718C12.5311 13.8082 12.5594 13.7299 12.609 13.6661C12.6376 13.6305 12.694 13.6022 12.7365 13.5807C12.8643 13.51 12.9845 13.432 13.0627 13.3112C13.0768 13.2971 13.0981 13.2827 13.1191 13.2684C13.1407 13.2543 13.1831 13.2544 13.1901 13.2331C13.1974 13.2191 13.1761 13.1833 13.1619 13.162C13.1899 13.1478 13.2186 13.1195 13.2752 13.0909C13.2536 13.1335 13.2469 13.1619 13.2327 13.1905L13.2675 13.2256C13.3315 13.1761 13.4307 13.1195 13.4946 13.077C13.4946 13.07 13.4592 13.0419 13.4592 13.0419C13.4169 13.0634 13.353 13.0986 13.2895 13.1272C13.3028 13.1057 13.3028 13.0913 13.3108 13.0843C13.4097 13.0204 13.5088 12.9567 13.6153 12.9066C13.8631 12.7934 14.1114 12.6797 14.3596 12.5732C14.4021 12.5517 14.4594 12.5662 14.5088 12.5662C14.5298 12.5662 14.5438 12.5661 14.5652 12.5592C14.6783 12.5236 14.7922 12.4881 14.9056 12.4596C14.9564 12.4457 15.0091 12.4384 15.0618 12.4384ZM14.786 12.5441C14.7081 12.5799 14.6444 12.608 14.5805 12.6365C14.5805 12.6435 14.545 12.7004 14.5517 12.7004C14.5873 12.6934 14.6652 12.6366 14.7077 12.6293C14.729 12.6293 14.7575 12.6363 14.7791 12.6439C14.7791 12.6153 14.7791 12.5866 14.786 12.5441ZM19.9117 13.753C19.9826 13.8452 20.0604 13.9308 20.1101 14.0225C20.2733 14.321 20.4858 14.5769 20.6843 14.8467C20.8546 15.0812 21.0105 15.3367 21.1668 15.5782C21.3581 15.8693 21.5422 16.1602 21.7336 16.4513C21.8754 16.6717 22.0248 16.892 22.173 17.1052C22.3077 17.2965 22.4498 17.4813 22.5916 17.6663C22.7117 17.8296 22.8394 17.993 22.9598 18.1563C23.1018 18.3552 23.2435 18.5537 23.3854 18.7457C23.4561 18.8449 23.5342 18.9441 23.6117 19.0437C23.6549 19.1003 23.7184 19.1436 23.7609 19.1786C23.7511 19.1789 23.7414 19.1764 23.7329 19.1716C23.7545 19.1999 23.7681 19.2213 23.7826 19.2355C23.8607 19.2782 23.8677 19.3207 23.8251 19.3848L23.8257 19.383C23.8187 19.3972 23.8041 19.4116 23.7974 19.4261C23.7901 19.4116 23.7901 19.3904 23.7832 19.3616C23.7407 19.4756 23.6485 19.4187 23.5846 19.4187C23.2021 19.4257 22.812 19.4257 22.429 19.4257C22.0604 19.4257 21.6849 19.4258 21.3163 19.4327C21.1956 19.4327 21.0678 19.461 20.9471 19.4684C20.6568 19.4825 20.366 19.4899 20.0753 19.4967C20.0537 19.4967 20.033 19.4616 19.9974 19.433C19.9904 19.4472 19.9756 19.4687 19.9546 19.4969C19.947 19.4829 19.9332 19.4688 19.919 19.4476C19.9132 19.4669 19.9059 19.4858 19.8973 19.504H19.8767C19.8625 19.4048 19.8342 19.3126 19.8342 19.2129C19.8342 19 19.8557 18.7874 19.8624 18.5739C19.8697 18.4747 19.8624 18.3823 19.8624 18.2896C19.8911 18.3112 19.9123 18.3257 19.9407 18.3464C19.9532 18.3221 19.9674 18.2987 19.9831 18.2762C19.9831 18.2762 19.9689 18.2692 19.9546 18.2548C19.968 18.2478 19.9828 18.2333 19.9828 18.2263C19.9897 18.2047 20.0043 18.1834 20.0043 18.1694C20.0043 18.1195 19.9898 18.077 19.9828 18.0347C19.9897 18.0347 19.9967 18.0348 20.0043 18.0277L20.0465 18.2406H20.0681C20.0396 18.1913 20.1318 18.1483 20.054 18.0916C20.047 18.0846 20.0607 18.0418 20.0607 18.0206C20.0391 17.9783 20.0257 17.9356 20.0042 17.8787C20.0112 17.8717 20.0325 17.8646 20.0538 17.8573C20.0255 17.8432 20.0041 17.8292 19.9828 17.8222C20.0537 17.758 20.0537 17.7224 19.9898 17.6515C20.0044 17.6445 20.0184 17.6445 20.0184 17.6381C20.0184 17.5739 20.0184 17.5102 20.0044 17.4468C19.9902 17.3752 20.0261 17.2905 19.9194 17.2474C19.9258 17.2675 19.9353 17.2866 19.9476 17.3038C19.9476 17.3038 19.9261 17.3108 19.9051 17.3255C19.813 17.2401 19.8699 17.1259 19.8483 16.9985C19.8979 17.0127 19.9334 17.027 19.9688 17.0416C19.9545 16.9914 19.9192 16.9348 19.898 16.8709H19.8691V16.4019C19.8691 16.4089 19.9188 16.4089 19.9473 16.4165C19.9473 16.4095 19.954 16.4021 19.954 16.3948C19.9324 16.3665 19.9044 16.3381 19.8761 16.3026L19.8903 16.2884C19.8337 16.2178 19.8621 16.1188 19.8621 16.0971V15.5999C19.9332 15.6712 19.827 15.7632 19.9331 15.8057V15.735H19.9257C19.9187 15.6286 19.9187 15.5221 19.9117 15.4154H19.8976C19.8903 15.4299 19.8904 15.4368 19.8831 15.4511H19.8691L19.9117 13.753ZM7.96658 14.3338C7.88206 14.4333 7.80392 14.5329 7.72587 14.6318H7.72499C7.73899 14.6388 7.76008 14.6889 7.77469 14.7031C7.85257 14.5967 7.95897 14.4618 8.03719 14.3621C8.02984 14.3551 7.97332 14.3408 7.96658 14.3338ZM7.49163 14.682C7.44902 14.7457 7.34306 14.8597 7.30044 14.9235C7.30744 14.9305 7.38532 14.8951 7.39232 14.9026C7.43484 14.8387 7.47737 14.7675 7.51989 14.7034C7.50598 14.6964 7.49889 14.689 7.49163 14.682ZM7.63994 14.7882C7.59768 14.8174 7.55533 14.853 7.51272 14.8813C7.52689 14.8953 7.52689 14.9029 7.52689 14.917C7.47037 14.91 7.44876 14.9384 7.42049 15.016C7.41349 15.0375 7.37788 15.0444 7.34236 15.0724C7.33536 15.087 7.32844 15.1228 7.31409 15.1581L7.32118 15.1651C7.3109 15.1745 7.2989 15.1819 7.28583 15.1868C7.24322 15.2291 7.19343 15.2649 7.15091 15.3072C7.14391 15.3288 7.13691 15.3498 7.13691 15.3711C7.1867 15.3215 7.27157 15.229 7.33544 15.1722L7.34279 15.1792C7.37114 15.1365 7.39241 15.0942 7.42102 15.0516C7.42776 15.0586 7.42776 15.0655 7.43502 15.0731C7.41349 15.1297 7.39241 15.1934 7.37114 15.2503C7.35627 15.2573 7.33492 15.2719 7.33492 15.2645C7.30666 15.286 7.28531 15.314 7.25669 15.3352L7.12947 15.4201C7.0586 15.484 6.98772 15.5408 6.9095 15.6048C6.85997 15.683 6.81062 15.7539 6.75348 15.8464C6.83888 15.8248 6.86006 15.8609 6.85306 15.932C6.9522 15.946 6.95937 15.8681 6.98772 15.8112C6.99472 15.7967 7.0019 15.768 7.01598 15.761C7.07986 15.7044 7.15073 15.6548 7.22161 15.598C7.23587 15.5838 7.23587 15.5548 7.23587 15.5338C7.23587 15.5268 7.19999 15.5268 7.17873 15.5196C7.24261 15.4484 7.33483 15.3283 7.39844 15.2501C7.43406 15.2286 7.46949 15.1998 7.46949 15.1785C7.46372 15.1133 7.49749 15.0879 7.54194 15.0647C7.50887 15.2181 7.41594 15.3493 7.32144 15.3763C7.34971 15.3905 7.37806 15.405 7.39958 15.398C7.42058 15.391 7.43467 15.3548 7.44893 15.3337L7.64012 15.057L7.70426 14.9502L7.67599 14.9216L7.67573 14.9225C7.64747 14.9721 7.61903 15.0148 7.59077 15.0647L7.56653 15.0524C7.56732 15.052 7.56811 15.0515 7.56889 15.0507C7.54037 15.0291 7.53302 15.0083 7.53302 15.0013L7.53328 15.0004C7.54081 14.9789 7.55489 14.9578 7.56916 14.9365C7.58324 14.9365 7.60433 14.9295 7.60433 14.9295C7.63321 14.8799 7.63312 14.8442 7.66138 14.8017C7.65438 14.7947 7.64729 14.7955 7.63994 14.7882ZM19.9337 15.7961V15.8031C19.941 15.8101 19.9416 15.8101 19.9478 15.8036C19.9408 15.8036 19.9408 15.8033 19.9337 15.7961ZM19.9337 15.8103C19.913 15.8173 19.8915 15.8173 19.863 15.8245C19.8977 15.8377 19.9322 15.8453 19.9337 15.8587V15.8103ZM18.8913 17.1034C18.8771 17.9131 18.9694 18.7082 19.0756 19.5108C18.2747 19.5391 17.4591 19.5673 16.6369 19.5959C16.9556 19.4611 17.2182 19.2695 17.4588 19.0491C17.4947 19.0136 17.53 18.9784 17.5727 18.9495C17.8706 18.7651 18.09 18.5094 18.2888 18.2254C18.5156 17.8988 18.6645 17.5293 18.849 17.1814C18.8615 17.1546 18.8756 17.1285 18.8913 17.1034ZM19.8838 17.1677C19.8952 17.1906 19.9047 17.2144 19.9123 17.2388C19.9473 17.2318 19.9619 17.2318 19.9759 17.2246C19.9759 17.2176 19.9758 17.2107 19.983 17.2031C19.962 17.1961 19.9337 17.182 19.8838 17.1677ZM19.9043 17.2322C19.9035 17.2322 19.9016 17.234 19.898 17.2375L19.8983 17.2383C19.9051 17.2383 19.9123 17.2453 19.9123 17.2453L19.9053 17.2375C19.9053 17.234 19.9052 17.2322 19.9043 17.2322ZM5.43626 17.2599C5.42217 17.2599 5.37939 17.2814 5.37239 17.2884C5.40074 17.3593 5.43626 17.4376 5.46461 17.5087C5.47152 17.5017 5.51405 17.4805 5.52105 17.4805C5.49261 17.4096 5.46444 17.3314 5.43626 17.2599ZM5.2372 17.5513C5.2162 17.5869 5.19485 17.622 5.2022 17.65C5.2022 17.6713 5.23737 17.6924 5.2589 17.7139C5.25907 17.7069 5.26572 17.7 5.2729 17.6933C5.2589 17.6435 5.25172 17.6009 5.2372 17.5513ZM24.1871 17.5583C24.1871 17.5724 24.1941 17.5931 24.1871 17.6076V17.5583ZM5.60584 17.7144C5.59884 17.7144 5.54922 17.7357 5.54222 17.743C5.59875 17.8634 5.65536 17.9916 5.71197 18.1123C5.71924 18.1123 5.77611 18.0837 5.77611 18.0837C5.71906 17.9624 5.68397 17.8276 5.60584 17.7144ZM5.46435 17.9984C5.46435 18.0264 5.42865 18.0194 5.42865 18.0478C5.38665 18.0478 5.35112 18.0408 5.31569 18.0408C5.30869 18.0478 5.33695 18.0906 5.34421 18.0978H5.49287C5.49287 18.062 5.48605 18.0339 5.48605 17.9982L5.46435 17.9984ZM11.9857 18.2752C12.0639 18.396 12.1423 18.5097 12.2272 18.6229L12.2204 18.6299C12.2055 18.6229 12.1842 18.6158 12.1702 18.6016L12.0001 18.3456C11.9861 18.3246 11.9781 18.3036 11.9857 18.2752ZM19.8983 18.6589C19.8914 18.744 19.8839 18.8082 19.8839 18.872C19.8839 18.8862 19.8982 18.9143 19.9056 18.9143C19.9196 18.9222 19.9478 18.9073 19.962 18.9009C19.969 18.8939 19.976 18.8796 19.976 18.8724C19.9547 18.8578 19.934 18.8509 19.9125 18.8361C20.0471 18.7652 19.9123 18.7298 19.8983 18.6589ZM7.54894 22.6782C7.62629 22.7637 7.70443 22.8489 7.78231 22.9414C7.73969 22.9198 7.69008 22.9057 7.66908 22.8771C7.61947 22.8205 7.57712 22.7565 7.52751 22.6998L7.54894 22.6782ZM7.84644 22.9271C7.86806 22.9626 7.88197 23.0053 7.90297 23.0479C7.80383 23.0409 7.75396 22.998 7.78231 22.9414C7.80383 22.9344 7.82553 22.9343 7.84644 22.9271ZM21.3519 24.0145C21.2948 24.0278 21.2522 24.0356 21.2172 24.0496C21.2028 24.0781 21.1884 24.0992 21.1741 24.1275C21.1814 24.1275 21.1885 24.1345 21.1958 24.1416C21.2385 24.099 21.2877 24.0638 21.3519 24.0145ZM20.9893 24.2123C20.9112 24.2622 20.8263 24.3117 20.7482 24.3613C20.7552 24.3683 20.7552 24.376 20.7627 24.383C20.8619 24.3617 20.94 24.3117 21.018 24.2552C21.0111 24.241 20.9965 24.2257 20.9893 24.2123ZM17.5167 25.5625C17.1907 25.6547 17.0841 25.6686 17.0486 25.619C17.2117 25.5974 17.3611 25.5834 17.5167 25.5625ZM17.034 25.6262C17.0413 25.6403 17.0413 25.6543 17.0482 25.6684C17.0057 25.6684 16.9773 25.6831 16.9418 25.6898C16.8429 25.7113 16.7362 25.7255 16.6371 25.7398C16.6015 25.7468 16.559 25.7825 16.545 25.7183C16.5308 25.7253 16.5164 25.7253 16.5024 25.7329C16.5374 25.839 16.623 25.7536 16.6939 25.7962C16.5376 25.8178 16.3895 25.832 16.2403 25.8531V25.839C16.2833 25.832 16.3326 25.8246 16.375 25.8172V25.7962C16.3043 25.7892 16.2335 25.782 16.1621 25.782C16.1413 25.782 16.1126 25.8107 16.0914 25.8177C16.063 25.8247 16.0348 25.8319 15.9992 25.8319C15.8787 25.8389 15.7586 25.8389 15.6449 25.846C15.6376 25.846 15.6233 25.839 15.6163 25.839V25.8172C16.0913 25.7536 16.5591 25.6901 17.034 25.6262ZM15.5525 25.8102V25.8311C15.421 25.8522 15.2886 25.8664 15.1556 25.8736V25.8528C15.2904 25.8388 15.4178 25.8243 15.5525 25.8102Z"
    />
</svg>
