<svg viewBox="0 0 30 30" xmlns="http://www.w3.org/2000/svg">
    <path d="M16.2305 17.6719H12.6328V15.293H16.2305C16.8164 15.293 17.2891 15.168 17.6484 14.918C18.0156 14.668 18.2812 14.3242 18.4453 13.8867C18.6172 13.4492 18.7031 12.9531 18.7031 12.3984C18.7031 11.8672 18.6172 11.3672 18.4453 10.8984C18.2812 10.4297 18.0195 10.0508 17.6602 9.76172C17.3008 9.47266 16.8242 9.32812 16.2305 9.32812H13.4297V24H10.5938V6.9375H16.2305C17.3555 6.9375 18.3164 7.17188 19.1133 7.64062C19.9102 8.10938 20.5195 8.75391 20.9414 9.57422C21.3633 10.3867 21.5742 11.3203 21.5742 12.375C21.5742 13.4766 21.3633 14.4219 20.9414 15.2109C20.5195 16 19.9102 16.6094 19.1133 17.0391C18.3164 17.4609 17.3555 17.6719 16.2305 17.6719Z"
    />
</svg>
