<svg viewBox="0 0 30 31" xmlns="http://www.w3.org/2000/svg">
    <path d="M21 18.567C19.7 18.567 18.6 19.3715 18.2 20.5782H14C14 19.8743 13.8 19.271 13.5 18.7682L20.6 11.4274C20.9 11.4274 21.2 11.5279 21.5 11.5279C22.9 11.5279 24 10.4218 24 9.01397C24 7.60615 22.9 6.5 21.5 6.5C20.1 6.5 19 7.60615 19 9.01397C19 9.31564 19.1 9.71788 19.2 10.0196L12.2 17.2598C11.6 16.757 10.8 16.5559 10 16.5559V12.3324C11.2 11.9302 12 10.824 12 9.51676C12 7.80726 10.7 6.5 9 6.5C7.3 6.5 6 7.80726 6 9.51676C6 10.824 6.8 11.9302 8 12.3324V17.0587C6.8 17.7626 6 19.0698 6 20.4777C6 22.6899 7.8 24.5 10 24.5C11.5 24.5 12.8 23.6955 13.4 22.4888H18.1C18.5 23.595 19.6 24.5 20.9 24.5C22.5 24.5 23.9 23.1927 23.9 21.4832C24 19.8743 22.6 18.567 21 18.567Z"
    />
</svg>
