<svg viewBox="0 0 30 31" xmlns="http://www.w3.org/2000/svg">
    <path d="M8.28094 15.0217C10.4381 15.5613 12.7139 15.8211 15 15.7886C17.2862 15.8209 19.5619 15.5609 21.7191 15.0211C23.4029 14.5537 24 14.0343 24 13.7354V11.45C23.4113 11.7306 22.7797 11.9626 22.1174 12.1417C19.8351 12.7233 17.4239 13.0069 15 12.9787C12.5763 13.0063 10.1654 12.7232 7.88257 12.143C7.21994 11.9639 6.5883 11.7314 6 11.45V13.7321C6 14.0369 6.59892 14.5537 8.28094 15.0217Z"
    />
    <path d="M8.28094 19.3321C9.04301 19.5389 9.82885 19.6983 10.6296 19.8084C12.0696 20.0067 13.5334 20.1042 15 20.0996C16.4666 20.1044 17.9304 20.0071 19.3704 19.8091C20.1711 19.6989 20.957 19.5395 21.7191 19.3327C23.4029 18.8654 24 18.3459 24 18.047V15.8677C23.5134 16.0761 23.0019 16.2536 22.4715 16.3981C20.0739 17.0022 17.5431 17.2946 15 17.2614C12.4566 17.2936 9.92585 17.0001 7.52846 16.3949C6.9983 16.25 6.48689 16.0725 6 15.8645V18.0457C6 18.3453 6.59892 18.8628 8.28094 19.3321Z"
    />
    <path d="M15 24.5C19.9684 24.5 24 23.3789 24 21.9967V20.1729C23.5573 20.3628 23.0936 20.5267 22.6134 20.6628L22.4715 20.7033C20.0743 21.3092 17.5435 21.6034 15 21.5718C12.4564 21.6043 9.92535 21.3101 7.52846 20.7033C7.47967 20.6904 7.4327 20.6756 7.38663 20.6628C6.90644 20.5267 6.44268 20.3628 6 20.1729V21.9967C6 23.3789 10.0316 24.5 15 24.5Z"
    />
    <path d="M15 11.5066C19.9706 11.5066 24 10.3858 24 9.00329C24 7.62076 19.9706 6.5 15 6.5C10.0294 6.5 6 7.62076 6 9.00329C6 10.3858 10.0294 11.5066 15 11.5066Z"
    />
</svg>
