<svg viewBox="0 0 30 31" xmlns="http://www.w3.org/2000/svg">
    <path d="M20.8844 6.5L20.7546 7.17182C20.554 8.44502 20.6266 8.80928 21.1767 9.28179L21.7078 9.71821L21.1577 12.1546C20.829 13.6082 20.4259 14.8265 20.1699 15.2268C19.9502 15.5722 19.6942 16.0808 19.6388 16.354C19.5471 16.6804 19.2358 17.0086 18.76 17.299C18.3396 17.5361 17.5145 18.1718 16.9297 18.6821C16.4627 19.0997 16.1409 19.3557 15.9662 19.4656L15.3953 19.9141C15.2119 20.2062 15.1081 20.4416 15.0683 20.6203C15.0285 20.8041 15.051 20.9261 15.1099 21.0155C15.1669 21.1014 15.2655 21.1615 15.4005 21.1993C15.5602 21.2365 15.7246 21.2498 15.8883 21.2388C16.2586 21.2137 16.6252 21.1492 16.9816 21.0464C17.1027 21.0137 17.1979 20.9828 17.2809 20.9553C17.4089 20.799 17.7048 20.5034 18.2289 19.9897C19.6198 18.6271 20.1509 17.8814 19.6025 18.0825C19.4001 18.1546 19.4918 17.9725 19.8395 17.6082C20.573 16.8986 20.9934 15.8265 21.8722 12.4639C22.5676 9.80928 22.5676 9.77148 23.0797 9.77148C23.3201 9.77148 24 9.81271 24 9.81271V6.5H22.4396H20.8844ZM14.7223 12.1787C14.2172 12.1753 13.1308 12.9399 9.87852 15.5773C9.7384 15.9089 9.72629 16.1375 9.79029 16.2852C9.83181 16.3866 9.90793 16.457 10.0135 16.5086C10.1173 16.5601 10.2522 16.5911 10.401 16.6031C10.6968 16.6289 11.0462 16.5825 11.3282 16.5275L11.5185 16.4845C11.5836 16.3978 11.6692 16.3282 11.7676 16.2818C11.9683 16.1718 12.8108 15.4089 13.6532 14.5911C15.1358 13.0997 15.4835 12.4261 14.8798 12.2079C14.8302 12.1883 14.7757 12.1784 14.7223 12.1787ZM18.5213 13.2148C18.0767 13.2268 17.2757 13.7388 15.9039 14.8265C15.2154 15.3814 14.7794 15.6804 14.5459 15.7423L13.6394 16.4536C13.2986 17.0722 13.2484 17.4553 13.3384 17.6667C13.3609 17.7188 13.3936 17.766 13.4346 17.8055C13.4755 17.845 13.524 17.8761 13.5771 17.8969C13.7093 17.9487 13.8502 17.975 13.9923 17.9742C14.3319 17.9706 14.6694 17.9215 14.9957 17.8282C15.1657 17.7829 15.3337 17.7301 15.4991 17.6701L15.5493 17.6495L15.6409 17.6014C15.8139 17.3797 16.2118 16.9622 16.71 16.4811C18.2843 14.9725 19.0887 13.9003 18.9244 13.5C18.85 13.3058 18.722 13.2079 18.5213 13.2148ZM14.3279 15.0704C14.1999 15.0842 13.9127 15.3041 13.3955 15.7543C12.6482 16.4107 11.8334 16.7887 11.5514 16.6203C11.4858 16.635 11.4201 16.6487 11.3542 16.6615C11.067 16.7182 10.7089 16.7646 10.3889 16.7388C10.2381 16.7298 10.0903 16.6931 9.95291 16.6306C9.82336 16.5718 9.71997 16.4678 9.66228 16.3385C9.59827 16.1838 9.59827 15.9914 9.67093 15.7457L8.54647 16.6632L6.00173 18.7543V22.1443L14.34 15.6203C14.3384 15.5488 14.3477 15.4776 14.3677 15.4089C14.4317 15.1787 14.4283 15.0619 14.3279 15.0722V15.0704ZM17.9158 16.1684C17.7895 16.1684 17.5785 16.3454 17.2411 16.701C16.7827 17.1873 16.0613 17.6581 15.679 17.7543L15.6202 17.7852C15.5574 17.811 15.494 17.835 15.4299 17.8574C15.3261 17.8918 15.1912 17.933 15.0355 17.9742C14.7241 18.0584 14.3366 18.1357 13.9906 18.1271C13.8275 18.1269 13.6659 18.0954 13.5149 18.0344C13.3724 17.9761 13.2584 17.8652 13.1965 17.7251C13.0962 17.4863 13.136 17.1512 13.3557 16.6753L6 22.4296V24.5H9.23152L16.0855 19.1529C16.2637 18.957 16.5319 18.689 16.8934 18.354C17.8622 17.4622 18.0819 17.1546 18.0819 16.6993C18.0819 16.3454 18.0421 16.1667 17.9158 16.1667V16.1684ZM19.5471 19.5189L18.9607 20.0997C18.632 20.4089 18.0456 20.7904 17.6442 20.9536L17.5646 20.988L17.5594 20.9966L17.5421 21.0137C17.5266 21.0258 17.5197 21.0275 17.5075 21.0326C17.3473 21.0929 17.1846 21.1462 17.0197 21.1924C16.6532 21.2984 16.2761 21.3647 15.8952 21.39C15.7152 21.4015 15.5343 21.3859 15.359 21.3436C15.2068 21.3104 15.0724 21.2222 14.9818 21.0962C14.8988 20.9691 14.8746 20.799 14.9213 20.5893C14.9584 20.4401 15.0136 20.2959 15.0856 20.1598L9.55502 24.5H16.9107L17.7895 23.5C18.997 22.1014 19.5471 21.1014 19.5471 20.2457V19.5189Z"
    />
</svg>
