<svg viewBox="0 0 30 31" xmlns="http://www.w3.org/2000/svg">
    <path d="M9.75 12C10.45 8.33333 12.2 6.5 15 6.5C19.2 6.5 19.725 10.625 21.825 11.3125C23.225 11.7708 24.45 11.0833 25.5 9.25C24.8 12.9167 23.05 14.75 20.25 14.75C16.05 14.75 15.525 10.625 13.425 9.9375C12.025 9.47917 10.8 10.1667 9.75 12ZM4.5 20.25C5.2 16.5833 6.95 14.75 9.75 14.75C13.95 14.75 14.475 18.875 16.575 19.5625C17.975 20.0208 19.2 19.3333 20.25 17.5C19.55 21.1667 17.8 23 15 23C10.8 23 10.275 18.875 8.175 18.1875C6.775 17.7292 5.55 18.4167 4.5 20.25Z"
    />
</svg>
