<svg viewBox="0 0 30 31" xmlns="http://www.w3.org/2000/svg">
    <path d="M21.0561 8.13475C21.6704 8.31558 22.2287 8.72259 22.6604 9.30443C22.8982 9.61932 23.1047 9.96981 23.2753 10.3481C23.2833 10.3892 22.1682 11.337 21.492 11.8657C21.4674 11.8867 21.37 11.7524 21.2596 11.5461C21.136 11.2774 20.9607 11.0528 20.7499 10.8931C20.5392 10.7334 20.2998 10.6439 20.0543 10.633C19.277 10.5654 18.7762 11.0804 18.7798 11.9415C18.773 12.153 18.8112 12.363 18.8902 12.5496C19.0612 12.997 19.3788 13.2655 20.3762 13.8124C22.2122 14.8122 23.0004 15.4715 23.4868 16.4083C23.7618 17.0003 23.9311 17.6611 23.983 18.3445C24.0348 19.028 23.968 19.7175 23.787 20.3648C23.5384 21.0747 23.1441 21.6874 22.6451 22.1394C22.1461 22.5914 21.5605 22.8661 20.9492 22.9352C20.2995 23.0295 19.6429 23.0209 18.9948 22.9096C18.0021 22.7032 17.0876 22.1004 16.3851 21.1893C16.1197 20.8112 15.8949 20.3902 15.7168 19.9375C15.7917 19.867 15.8706 19.8035 15.9528 19.7475C16.0668 19.6654 16.4984 19.3513 16.9055 19.0527L17.6445 18.5048L17.7989 18.7897C18.0591 19.2603 18.3902 19.6613 18.7733 19.9694C19.1601 20.2379 19.5983 20.3651 20.039 20.3369C20.4797 20.3087 20.9055 20.1261 21.269 19.8096C21.4564 19.5784 21.5737 19.2711 21.6 18.9416C21.6264 18.612 21.5603 18.2812 21.4133 18.0072C21.2141 17.6465 20.8071 17.3433 19.6502 16.7087C18.743 16.3217 17.9167 15.6803 17.2331 14.8323C16.9076 14.363 16.6671 13.8091 16.5287 13.2098C16.4264 12.5269 16.4113 11.8277 16.484 11.1388C16.6198 10.3461 16.9449 9.6254 17.4154 9.07432C17.8858 8.52325 18.4788 8.16846 19.1139 8.05805C19.7607 7.96027 20.4154 7.98613 21.0561 8.13475ZM15.0348 9.48888L15.0427 10.8165H11.7012V22.8219H9.34475V10.8193H6.0032V9.51536C5.99431 9.06882 6.00395 8.62201 6.03207 8.17675C6.04434 8.15575 8.07597 8.14571 10.5392 8.15119L15.0218 8.16671L15.0348 9.48888Z"
    />
</svg>
