<svg viewBox="0 0 30 31" xmlns="http://www.w3.org/2000/svg">
    <path d="M24 13H6M9.6 20.0833L11.85 18L9.6 15.9167M14.1 20.0833H17.7M6 12V19C6 20.4002 6 21.1002 6.29428 21.635C6.55314 22.1054 6.96619 22.4878 7.47423 22.7275C8.05178 23 8.80786 23 10.32 23H19.68C21.1922 23 21.9482 23 22.5258 22.7275C23.0338 22.4878 23.4469 22.1054 23.7057 21.635C24 21.1002 24 20.4002 24 19V12C24 10.5999 24 9.89981 23.7057 9.36503C23.4469 8.89462 23.0338 8.51217 22.5258 8.27248C21.9482 8 21.1922 8 19.68 8H10.32C8.80786 8 8.05178 8 7.47423 8.27248C6.96619 8.51217 6.55314 8.89462 6.29428 9.36503C6 9.8998 6 10.5999 6 12Z"
          stroke-linecap="round" stroke-linejoin="round"/>
</svg>
