<svg viewBox="0 0 30 31" xmlns="http://www.w3.org/2000/svg">
    <path d="M22.467 15.2247C22.4155 15.0822 22.3253 14.9496 22.2021 14.8356C22.079 14.7216 21.9258 14.6288 21.7525 14.5631L17.0949 12.7988L18.3451 6.19301C18.3862 5.96407 18.3274 5.73116 18.1778 5.53037C18.0281 5.32959 17.796 5.17213 17.5174 5.0824C17.2389 4.99267 16.9293 4.97569 16.6368 5.03408C16.3443 5.09246 16.0852 5.22296 15.8995 5.40535L6.28197 14.8572C6.15377 14.9855 6.06601 15.1347 6.0255 15.2931C5.98499 15.4516 5.99283 15.6151 6.0484 15.7709C6.10298 15.9281 6.20461 16.0735 6.34529 16.1957C6.48596 16.3178 6.66183 16.4132 6.85902 16.4745L12.7257 18.2703L11.4755 24.8026C11.433 25.0371 11.4953 25.2756 11.6524 25.4796C11.8095 25.6836 12.0522 25.841 12.341 25.9263C12.502 25.9773 12.6751 26.0024 12.8494 25.9998C13.0757 25.9989 13.2982 25.9553 13.4971 25.8729C13.6961 25.7904 13.8653 25.6717 13.9898 25.5272L22.2334 16.0754C22.3495 15.9546 22.4304 15.8161 22.4707 15.6694C22.511 15.5227 22.5097 15.3711 22.467 15.2247Z"
    />
</svg>
