<svg viewBox="0 0 30 31" xmlns="http://www.w3.org/2000/svg">
    <path d="M25.5 20.2258C25.4994 20.4158 25.4416 20.602 25.3327 20.7648C25.2239 20.9275 25.068 21.0606 24.8817 21.1499L15.665 25.8127C15.4697 25.9347 15.2377 26 15 26C14.7623 26 14.5303 25.9347 14.335 25.8127L5.11833 21.1499C4.93204 21.0606 4.77615 20.9275 4.66726 20.7648C4.55837 20.602 4.50056 20.4158 4.5 20.2258V10.7742C4.50056 10.5842 4.55837 10.398 4.66726 10.2352C4.77615 10.0725 4.93204 9.93936 5.11833 9.85007L14.335 5.1873C14.5303 5.06535 14.7623 5 15 5C15.2377 5 15.4697 5.06535 15.665 5.1873L24.8817 9.85007C25.068 9.93936 25.2239 10.0725 25.3327 10.2352C25.4416 10.398 25.4994 10.5842 25.5 10.7742V20.2258ZM15 7.25614L6.83333 11.3938V19.6062L15 23.7439L23.1667 19.6062V11.3938L15 7.25614ZM15 9.4405L20.7167 12.4125L15 15.3845L9.28333 12.4125L15 9.4405ZM20.8333 18.535L16.1667 20.9609V17.2013L20.8333 14.7754V18.535ZM13.8333 20.9609L9.16667 18.535V14.7754L13.8333 17.2013V20.9609Z"
    />
</svg>
