<svg viewBox="0 0 30 30" xmlns="http://www.w3.org/2000/svg">
    <path d="M15.5055 3.33443C15.2101 3.34685 14.9256 3.45738 14.6916 3.65066C14.4576 3.84394 14.2856 4.11037 14.1997 4.41295C14.1138 4.71552 14.1181 5.0392 14.2121 5.33902C14.3061 5.63883 14.4851 5.8999 14.7242 6.08594L16.3821 7.41753C15.719 7.58747 15.0864 7.84347 14.4955 8.17165H7.60311C7.38762 8.16839 7.17367 8.21097 6.97369 8.29691C6.77372 8.38285 6.59171 8.51044 6.43825 8.67226C6.28478 8.83409 6.16292 9.02692 6.07974 9.23955C5.99656 9.45219 5.95373 9.68038 5.95373 9.91087C5.95373 10.1414 5.99656 10.3696 6.07974 10.5822C6.16292 10.7948 6.28478 10.9877 6.43825 11.1495C6.59171 11.3113 6.77372 11.4389 6.97369 11.5248C7.17367 11.6108 7.38762 11.6534 7.60311 11.6501H11.1033C10.962 11.9131 10.8319 12.1864 10.7158 12.4654L3.94412 18.2537C3.77725 18.3965 3.63831 18.5729 3.53523 18.7731C3.43215 18.9733 3.36694 19.1932 3.34333 19.4203C3.31973 19.6475 3.33818 19.8773 3.39765 20.0968C3.45711 20.3163 3.55642 20.5211 3.6899 20.6996C3.82338 20.878 3.98843 21.0266 4.1756 21.1369C4.36278 21.2471 4.56842 21.3168 4.78079 21.342C4.99316 21.3672 5.20809 21.3475 5.41332 21.2839C5.61855 21.2203 5.81005 21.114 5.97689 20.9712L10.0933 17.452C10.7097 21.7241 14.1653 25 18.3323 25C22.9352 25 26.6667 21.0092 26.6667 16.0865C26.6667 12.519 24.7015 9.43978 21.8706 8.01539L16.433 3.65374C16.1686 3.43391 15.8402 3.32084 15.5055 3.33443ZM18.5039 10.4204C21.2368 10.4204 23.4524 12.6214 23.4524 15.3392C23.4524 18.0569 21.2368 20.2647 18.5039 20.2647C15.7709 20.2647 13.5553 18.0569 13.5553 15.3392C13.5553 12.6214 15.7709 10.4204 18.5039 10.4204ZM18.5039 11.9083C16.5959 11.9083 15.0481 13.4418 15.0481 15.3392C15.0481 17.2365 16.5959 18.7768 18.5039 18.7768C20.4118 18.7768 21.9596 17.2365 21.9596 15.3392C21.9596 13.4418 20.4118 11.9083 18.5039 11.9083Z"
    />
</svg>
