<svg viewBox="0 0 30 30" xmlns="http://www.w3.org/2000/svg">
    <path d="M23.5317 17.7214H20.7253L17.7649 12.2401C18.4399 12.086 18.9254 11.4442 18.9136 10.6996V6.57895C18.9136 5.70603 18.2741 5 17.4689 5H17.4571H12.5192C11.714 5 11.0628 5.6932 11.0628 6.56611V6.57895V10.6996C11.0628 11.4442 11.5364 12.086 12.2114 12.2401L9.25104 17.7214H6.45648C5.65127 17.7214 5 18.4146 5 19.2875V19.3004V23.4211C5 24.294 5.63943 25 6.44464 25H6.45648H11.3943C12.1995 25 12.8508 24.3068 12.8508 23.4339V23.4211V19.3004C12.8508 18.4275 12.2114 17.7214 11.4062 17.7214H11.3943H10.9207L13.8573 12.2786H16.1427L19.0912 17.7214H18.6057C17.8005 17.7214 17.1492 18.4146 17.1492 19.2875V19.3004V23.4211C17.1492 24.294 17.7886 25 18.5938 25H18.6057H23.5435C24.3487 25 25 24.3068 25 23.4339V23.4211V19.3004C25 18.4275 24.3606 17.7214 23.5554 17.7214C23.5435 17.7214 23.5435 17.7214 23.5317 17.7214Z"
    />
</svg>
