<svg viewBox="0 0 30 30" xmlns="http://www.w3.org/2000/svg">
    <path d="M22.4231 9.47297C22.3961 9.35355 22.3054 9.2467 22.1705 9.17569C22.0357 9.10468 21.8677 9.07527 21.7032 9.09387C21.5739 9.10635 21.4543 9.15048 21.3641 9.21897L18.109 11.5808L15.5634 8.04753C15.5254 7.99448 15.4734 7.94739 15.4104 7.90895C15.3473 7.87051 15.2745 7.84149 15.196 7.82353C15.1175 7.80557 15.0349 7.79903 14.953 7.8043C14.871 7.80956 14.7913 7.82651 14.7183 7.85419C14.6078 7.9005 14.516 7.9672 14.4523 8.04753L13.0647 9.98098L9.56442 5.23457C9.52517 5.18244 9.47214 5.13647 9.40837 5.09928C9.3446 5.06209 9.27136 5.03442 9.19283 5.01787C9.11431 5.00131 9.03206 4.99619 8.9508 5.0028C8.86955 5.00941 8.79089 5.02762 8.71935 5.05639C8.63443 5.08933 8.56079 5.13575 8.50391 5.19218C8.44702 5.24862 8.40833 5.31364 8.39071 5.38242L5 21.1229L14.0506 24.8306C14.3296 24.9417 14.6427 25 14.9609 25C15.2791 25 15.5921 24.9417 15.8712 24.8306L25 21.1381L22.4231 9.47297Z"
    />
</svg>
