<svg viewBox="0 0 30 30" xmlns="http://www.w3.org/2000/svg">
    <path d="M11.2317 16.2748C11.9628 16.1057 13.1409 15.8457 14.4955 15.7813C13.6828 14.1882 13.4867 12.7941 13.6444 11.5528C13.8266 10.1192 14.4775 8.92271 15.1119 7.90461C15.2472 7.68737 15.3774 7.4851 15.5021 7.29105C15.679 7.01632 15.845 6.75808 16.0004 6.49721C16.2591 6.06294 16.4511 5.67943 16.5481 5.32312C16.6435 4.97275 16.6441 4.65983 16.5312 4.35968C16.4182 4.05912 16.1781 3.73559 15.7215 3.38096C15.1254 3.26099 14.464 3.36632 13.9681 3.71284L8.08265 7.82544C7.75438 8.05483 7.53889 8.36568 7.47302 8.70483L6.96558 11.3181C7.76351 11.8659 9.73294 13.4586 10.9308 15.6685C11.0377 15.8657 11.1384 16.0679 11.2317 16.2748Z"
    />
    <path d="M6.72755 12.5115C6.6998 12.6034 6.66075 12.6932 6.61088 12.7796L3.50034 18.1648C3.18086 18.7179 3.32804 19.3664 3.87174 19.8013L8.76683 23.7172C11.2666 20.8527 10.9021 18.1578 9.76029 16.0512C8.89452 14.4541 7.58232 13.204 6.72755 12.5115Z"
    />
    <path d="M9.89783 24.1785C9.98361 24.1891 10.0706 24.1955 10.1582 24.1976C11.0872 24.2192 12.6495 24.282 13.9165 24.4633C14.9502 24.6113 16.9991 25.0562 18.6852 25.4391C19.9718 25.7312 21.2976 24.9331 21.4844 23.9019C21.6205 23.15 21.8759 22.2993 22.3466 21.5195L22.3357 21.5225C21.5387 19.796 20.5247 18.6812 19.4617 17.9693C18.4019 17.2596 17.2609 16.9285 16.1591 16.8082C14.3273 16.6081 12.6491 16.9821 11.592 17.2234C12.2251 19.2722 12.0303 21.6829 9.89783 24.1785Z"
    />
    <path d="M23.1619 20.4552C24.2197 19.2152 24.9732 18.2508 25.3709 17.728C25.5698 17.4664 25.5338 17.1385 25.2981 16.896C24.6843 16.2642 23.5099 14.9802 22.8699 13.7914C22.212 12.5691 22.1138 10.6714 22.1082 9.74707C22.1061 9.39572 21.9627 9.05256 21.6829 8.77648L17.8805 5.02423C17.8671 5.19336 17.8357 5.36115 17.7905 5.52739C17.664 5.99195 17.4253 6.45442 17.153 6.91149C16.9934 7.17939 16.809 7.4664 16.6227 7.75635C16.4987 7.94932 16.3738 8.14365 16.2549 8.33446C15.6402 9.32102 15.0681 10.3916 14.9083 11.6497C14.76 12.8158 14.9629 14.1722 15.8767 15.7913C16.0289 15.8014 16.1821 15.8146 16.3359 15.8314C17.6473 15.9746 19.0237 16.3736 20.2909 17.2222C21.38 17.9515 22.3641 18.9966 23.1619 20.4552Z"
    />
</svg>
