<svg viewBox="0 0 30 30" xmlns="http://www.w3.org/2000/svg">
    <path fill-rule="evenodd" clip-rule="evenodd"
          d="M18.2014 24.8677C17.639 24.8677 17.1841 24.4104 17.1841 23.8451C17.1841 23.2799 17.639 22.8237 18.2014 22.8237C18.7637 22.8237 19.2187 23.2799 19.2187 23.8451C19.2187 24.4104 18.7637 24.8677 18.2014 24.8677ZM15.084 26.6667C21.0084 26.6667 20.6385 24.0844 20.6385 24.0844L20.6315 21.4093H14.979V20.606H22.8762C22.8762 20.606 26.6667 21.0388 26.6667 15.0308C26.6667 9.02268 23.3592 9.23446 23.3592 9.23446H21.384V12.0235C21.384 12.0235 21.4902 15.3481 18.129 15.3481H12.522C12.522 15.3481 9.37203 15.2981 9.37203 18.4094V23.5529C9.37203 23.5529 8.8937 26.6667 15.084 26.6667ZM11.7999 5.13232C12.3622 5.13232 12.816 5.58959 12.816 6.15487C12.816 6.72014 12.3622 7.17627 11.7999 7.17627C11.2375 7.17627 10.7826 6.72014 10.7826 6.15487C10.7826 5.58959 11.2375 5.13232 11.7999 5.13232ZM14.9161 3.33333C8.99288 3.33333 9.36271 5.91561 9.36271 5.91561L9.36972 8.59074H15.0222V9.39396H7.12387C7.12387 9.39396 3.33337 8.96117 3.33337 14.9692C3.33337 20.9773 6.64204 20.7655 6.64204 20.7655H8.61606V17.9765C8.61606 17.9765 8.50987 14.6519 11.8722 14.6519H17.478C17.478 14.6519 20.628 14.7019 20.628 11.5906V6.4471C20.628 6.4471 21.1064 3.33333 14.9161 3.33333Z"
    />
</svg>
