<svg viewBox="0 0 30 30" xmlns="http://www.w3.org/2000/svg">
    <path d="M10.5586 6.4375V23.5H7.71094V6.4375H10.5586ZM25.4297 13.5742V16.4805C25.4297 17.6836 25.2891 18.7383 25.0078 19.6445C24.7344 20.5508 24.3359 21.3086 23.8125 21.918C23.2969 22.5195 22.6719 22.9727 21.9375 23.2773C21.2109 23.582 20.3984 23.7344 19.5 23.7344C18.6094 23.7344 17.7969 23.582 17.0625 23.2773C16.3359 22.9727 15.707 22.5195 15.1758 21.918C14.6523 21.3086 14.2461 20.5508 13.957 19.6445C13.6758 18.7383 13.5352 17.6836 13.5352 16.4805V13.5742C13.5352 12.3555 13.6758 11.2891 13.957 10.375C14.2383 9.45312 14.6406 8.68359 15.1641 8.06641C15.6953 7.44922 16.3242 6.98438 17.0508 6.67188C17.7852 6.35937 18.5938 6.20312 19.4766 6.20312C20.375 6.20312 21.1875 6.35937 21.9141 6.67188C22.6484 6.98438 23.2773 7.44922 23.8008 8.06641C24.3242 8.68359 24.7266 9.45312 25.0078 10.375C25.2891 11.2891 25.4297 12.3555 25.4297 13.5742ZM22.6055 16.4805V13.5508C22.6055 12.6836 22.5352 11.9414 22.3945 11.3242C22.2617 10.6992 22.0625 10.1914 21.7969 9.80078C21.5312 9.40234 21.2031 9.10938 20.8125 8.92188C20.4297 8.72656 19.9844 8.62891 19.4766 8.62891C18.9844 8.62891 18.543 8.72656 18.1523 8.92188C17.7695 9.10938 17.4414 9.40234 17.168 9.80078C16.9023 10.1914 16.6992 10.6992 16.5586 11.3242C16.4258 11.9414 16.3594 12.6836 16.3594 13.5508V16.4805C16.3594 17.332 16.4297 18.0664 16.5703 18.6836C16.7109 19.293 16.9141 19.793 17.1797 20.1836C17.4531 20.5664 17.7852 20.8516 18.1758 21.0391C18.5664 21.2266 19.0078 21.3203 19.5 21.3203C20 21.3203 20.4453 21.2266 20.8359 21.0391C21.2266 20.8516 21.5508 20.5664 21.8086 20.1836C22.0742 19.793 22.2734 19.293 22.4062 18.6836C22.5391 18.0664 22.6055 17.332 22.6055 16.4805Z"
    />
</svg>
