<svg viewBox="0 0 30 31" xmlns="http://www.w3.org/2000/svg">
    <path d="M13.9762 3.92724L3.42542 14.4759C2.85819 15.043 2.85819 15.9589 3.42542 16.5261L13.9762 27.0747C14.5434 27.6418 15.4596 27.6418 16.0268 27.0747L20.4506 22.6518C20.9586 22.1439 20.9586 21.3204 20.4506 20.8126C19.9426 20.3047 19.119 20.3047 18.611 20.8126L15.2573 24.1655C15.1162 24.3067 14.9019 24.3067 14.7607 24.1655L6.33517 15.7417C6.19399 15.6005 6.19399 15.3863 6.33517 15.2452L14.7607 6.82133C14.9019 6.68018 15.1162 6.68018 15.2573 6.82133L18.611 10.1743C19.119 10.6822 19.9426 10.6822 20.4506 10.1743C20.9586 9.66639 20.9586 8.84294 20.4506 8.33505L16.0273 3.91265C15.4577 3.35781 14.5412 3.3623 13.9762 3.92724Z"
    />
    <path d="M13.9762 3.92724L3.42542 14.4759C2.85819 15.043 2.85819 15.9589 3.42542 16.5261L13.9762 27.0747C14.5434 27.6418 15.4596 27.6418 16.0268 27.0747L20.4506 22.6518C20.9586 22.1439 20.9586 21.3204 20.4506 20.8126C19.9426 20.3047 19.119 20.3047 18.611 20.8126L15.2573 24.1655C15.1162 24.3067 14.9019 24.3067 14.7607 24.1655L6.33517 15.7417C6.19399 15.6005 6.19399 15.3863 6.33517 15.2452L14.7607 6.82133C15.1122 6.51808 15.6858 5.90387 16.5281 5.76021C17.1541 5.65345 17.8384 5.88843 18.5812 6.46515C18.0846 5.96868 17.2333 5.11784 16.0273 3.91265C15.4577 3.35781 14.5412 3.3623 13.9762 3.92724Z"
    />
    <path d="M21.4718 19.8315C21.9798 20.3394 22.8034 20.3394 23.3114 19.8315L26.5746 16.569C27.1418 16.0019 27.1418 15.0859 26.5747 14.5189L23.283 11.2396C22.7738 10.7323 21.95 10.733 21.4417 11.2412C20.9337 11.7491 20.9337 12.5725 21.4417 13.0804L23.6649 15.3032C23.806 15.4443 23.806 15.6585 23.6649 15.7997L21.4718 17.9923C20.9638 18.5002 20.9638 19.3236 21.4718 19.8315Z"
    />
    <path d="M15.0544 18.4018C16.6277 18.4018 17.9031 17.1267 17.9031 15.5537C17.9031 13.9807 16.6277 12.7056 15.0544 12.7056C13.4811 12.7056 12.2057 13.9807 12.2057 15.5537C12.2057 17.1267 13.4811 18.4018 15.0544 18.4018Z"
    />
</svg>
