<svg viewBox="0 0 30 30" xmlns="http://www.w3.org/2000/svg">
    <path d="M25.4701 16.5479C25.5305 16.3822 25.4987 16.2058 25.3815 16.0572L22.7126 12.682C22.5942 12.5342 22.4003 12.4268 22.1733 12.3832C21.9464 12.3396 21.705 12.3635 21.5021 12.4495L20.7168 12.7767C20.7783 12.5266 20.8099 12.2731 20.8113 12.019C20.8113 9.91388 19.2761 8.29519 17.9239 6.853C16.8256 5.69064 15.8809 4.70049 15.8809 3.64575C15.8809 3.47449 15.7875 3.31024 15.6214 3.18914C15.4553 3.06803 15.2301 3 14.9952 3C14.7603 3 14.535 3.06803 14.3689 3.18914C14.2028 3.31024 14.1095 3.47449 14.1095 3.64575C14.1095 4.68757 13.1588 5.69064 12.0605 6.853C10.7083 8.28227 9.17313 9.90096 9.17313 12.019C9.16958 12.2731 9.19923 12.5268 9.2617 12.7767L8.47047 12.4495C8.27039 12.3701 8.03604 12.35 7.81612 12.3933C7.59619 12.4366 7.4076 12.54 7.28953 12.682L4.60289 16.0572C4.49369 16.2082 4.47036 16.3845 4.53794 16.5479C4.56758 16.63 4.6194 16.7069 4.69038 16.7742C4.76136 16.8415 4.85006 16.8977 4.95127 16.9397L7.90362 18.1795L4.95127 19.4237C4.7505 19.5054 4.60199 19.6415 4.53794 19.8025C4.47754 19.9682 4.50937 20.1446 4.62651 20.2933L7.27182 23.6771C7.35006 23.775 7.46206 23.8563 7.59671 23.913C7.73135 23.9696 7.88398 23.9996 8.03943 23.9999C8.19511 24.0016 8.34837 23.9718 8.48228 23.9138L14.9774 21.1758L21.4726 23.9138C21.6065 23.9718 21.7598 24.0016 21.9155 23.9999C22.071 24 22.2239 23.9702 22.3586 23.9135C22.4934 23.8568 22.6053 23.7753 22.6831 23.6771L25.352 20.3062C25.4173 20.2324 25.4615 20.1498 25.4818 20.0632C25.5021 19.9766 25.4981 19.888 25.4701 19.8025C25.4404 19.7205 25.3886 19.6435 25.3176 19.5762C25.2467 19.509 25.158 19.4527 25.0568 19.4108L22.1044 18.1666L25.0568 16.9268C25.2575 16.8451 25.406 16.7089 25.4701 16.5479ZM20.333 18.9415L23.433 20.233L21.6616 22.4846L16.7607 20.4311L20.333 18.9415ZM8.36418 22.4716L6.59278 20.2201L21.6202 13.8874L23.3916 16.1433L8.36418 22.4716ZM13.2237 15.928L9.65141 17.4348L6.58097 16.1433L8.35237 13.8874L13.2237 15.928ZM11.7712 13.797C11.2342 13.2854 10.9436 12.659 10.9445 12.0147C10.9445 10.2927 12.2554 8.93233 13.519 7.59347C14.0505 7.05132 14.5433 6.48948 14.9952 5.9102C15.4429 6.49038 15.9337 7.05231 16.4654 7.59347C17.729 8.93233 19.0399 10.3142 19.0399 12.0147C19.0408 12.659 18.7502 13.2854 18.2132 13.797L18.1719 13.8444L14.9952 15.1832L11.8125 13.8444L11.7712 13.797Z"
    />
</svg>
