<svg viewBox="0 0 30 30" xmlns="http://www.w3.org/2000/svg">
    <path d="M27.9414 15.3728L24.251 12.1082V7.49134C24.251 7.39361 24.1614 7.31442 24.051 7.31442H18.8318L15.1414 4.04979C15.0664 3.9834 14.9336 3.9834 14.8586 4.04979L11.1683 7.31442H5.94888C5.8384 7.31442 5.74888 7.39361 5.74888 7.49134V12.1082L2.05856 15.3728C1.98048 15.4419 1.98048 15.5539 2.05856 15.6229L5.74888 18.8875V23.5044C5.74888 23.6021 5.8384 23.6813 5.94888 23.6813H11.1682L14.8586 26.9459C14.8961 26.9791 14.9469 26.9977 15 26.9977C15.053 26.9977 15.1039 26.979 15.1414 26.9459L18.8318 23.6813H24.051C24.1614 23.6813 24.251 23.6021 24.251 23.5044V18.8875L27.9414 15.6229C27.979 15.5898 28 15.5448 28 15.4978C28 15.4509 27.979 15.4059 27.9414 15.3728ZM21.3736 17.8332V21.1358H17.6398L15 23.4712L12.3602 21.1358H8.62624V17.8332L5.98656 15.4978L8.62624 13.1625V9.85982H12.3602L15 7.52446L17.6398 9.85982H21.3736V13.1625L24.0134 15.4978L21.3736 17.8332Z"
    />
    <path d="M20.3114 10.7996H17.1997L14.9999 8.85339L12.8001 10.7996H9.68849V13.5517L7.48865 15.4979L9.68849 17.444V20.1961H12.8001L14.9999 22.1423L17.1996 20.1961H20.3113V17.444L22.5111 15.4979L20.3113 13.5517V10.7996H20.3114ZM18.8182 16.3617H17.3572L18.3902 17.2753L18.4433 18.5439L17.0092 18.4969L15.9762 17.5832V18.8754L14.9999 19.8056L14.0235 18.8753V17.583L12.9906 18.4968L11.5565 18.5438L11.6096 17.2752L12.6426 16.3615L11.1818 16.3616L10.1302 15.4977L11.1818 14.634L12.6426 14.6338L11.6096 13.7202L11.5565 12.4516L12.9906 12.4986L14.0235 13.4124V12.1201L14.9999 11.1899L15.9763 12.1201V13.4124L17.0093 12.4986L18.4434 12.4516L18.3902 13.7202L17.3573 14.634H18.8182L19.8695 15.4977L18.8182 16.3617Z"
    />
    <path d="M14.0614 13.4934L12.7339 14.6677V16.328L14.0612 17.5022H15.9385L17.2657 16.3282V14.6675L15.9385 13.4934H14.0614Z"
    />
</svg>
