<svg viewBox="0 0 30 30" xmlns="http://www.w3.org/2000/svg">
    <path d="M8.20119 10.5L8.61662 12.2614H1.5C1.5 12.2614 1.619 12.7893 1.67744 12.8481C1.85594 13.1415 2.03338 13.4938 2.27138 13.7283C3.39762 15.0196 5.35475 15.5475 6.95594 15.8409C8.08219 16.0765 9.2095 16.1353 10.3357 16.1932L11.6405 19.656H12.3524L12.7678 20.7717H12.1749L11.1666 24H21.0702L20.0619 20.7717H19.469L19.8834 19.656H20.5953C20.5953 19.656 21.1881 16.0765 23.0263 14.4329C24.8059 12.7893 27 12.5548 27 12.5548V10.5H8.20119ZM18.1643 19.3626C17.6893 19.656 17.1559 19.656 16.8 19.8915C16.5631 20.0083 16.4441 20.3605 16.4441 20.3605C16.2071 19.8326 15.9107 19.656 15.5547 19.5393C15.1988 19.4215 14.5464 19.4804 13.6571 18.7169C13.0643 18.189 13.0047 17.4845 13.0642 17.1322V16.9566C13.0642 16.8977 13.0642 16.8388 13.1237 16.7799C13.2417 16.4287 13.5381 16.0765 14.131 15.8409C14.131 15.8409 13.7166 16.4287 14.131 17.0155C14.369 17.3678 14.8429 17.5434 15.2583 17.3089C15.4358 17.1911 15.5548 16.9566 15.6143 16.7799C15.7322 16.3698 15.7322 15.9587 15.3763 15.6653C14.8429 15.1963 14.7249 14.5506 15.0798 14.1395C15.0798 14.1395 15.1988 14.6674 15.7322 14.6085C16.0881 14.6085 16.0881 14.4917 15.9702 14.374C15.9107 14.1984 15.1393 13.0826 16.2666 12.2614C16.2666 12.2614 16.9774 11.7913 17.8083 11.8502C17.3334 11.9091 16.8 12.2025 16.6226 12.6725V12.7304C16.4441 13.2004 16.5631 13.7283 16.919 14.1984C17.1559 14.5506 17.4524 14.844 17.5714 15.313C17.3929 15.2541 17.2749 15.313 17.1559 15.4308C17.0927 15.5017 17.0487 15.5873 17.0278 15.6796C17.007 15.7719 17.0102 15.8679 17.0369 15.9587C17.0964 16.0765 17.2154 16.1932 17.3334 16.1932H17.5119C17.6893 16.1353 17.8083 15.8998 17.7488 15.7242C17.8678 15.8409 17.9262 16.1353 17.8678 16.311C17.8678 16.4866 17.7488 16.6632 17.6893 16.7799C17.6298 16.8977 17.5119 17.0155 17.4524 17.1322C17.3929 17.25 17.3334 17.3678 17.3334 17.4845C17.3334 17.6023 17.3334 17.7779 17.3929 17.8957C17.6298 18.2479 18.1047 17.8957 18.2237 17.6023C18.4012 17.25 18.3417 16.8388 18.1048 16.4866C18.1048 16.4866 18.5202 16.7221 18.8166 17.5434C19.0536 18.2479 18.6381 19.0692 18.1643 19.3626Z"
    />
</svg>
