<svg viewBox="0 0 30 30" xmlns="http://www.w3.org/2000/svg">
    <path fill-rule="evenodd" clip-rule="evenodd"
          d="M18.4676 5C19.3275 5 20.2344 5.29763 21.0673 5.62636L21.6761 5.87458C23.1316 6.47964 23.9498 7.74854 24.5842 9.14343C25.6132 11.406 26.3277 14.423 26.5752 16.7167C26.6928 17.8064 26.7223 18.9012 26.5102 19.6375C26.2834 20.4246 25.5084 20.9816 24.7564 21.4199L24.385 21.6297L23.9987 21.8419C23.7999 21.9521 23.596 22.0613 23.3926 22.1679L22.789 22.4774L21.9613 22.8868L21.2948 23.2121C20.7242 23.4951 20.0303 23.2657 19.7449 22.6997C19.4595 22.1337 19.6908 21.4455 20.2615 21.1625L21.1754 20.7158L20.5046 20.0184C18.899 20.6722 17.0071 21.0415 14.9983 21.0415C12.9894 21.0415 11.0975 20.6722 9.49185 20.0184L8.82221 20.7147L9.73849 21.1625C10.3092 21.4455 10.5405 22.1337 10.2551 22.6997C9.9698 23.2657 9.27586 23.4951 8.70517 23.2121L8.07714 22.9031C7.61189 22.6749 7.14672 22.4468 6.68678 22.2085L5.61503 21.6297L5.24363 21.4199C4.49169 20.9816 3.71658 20.4246 3.48984 19.6375C3.27775 18.9012 3.3073 17.8064 3.42487 16.7167C3.6723 14.423 4.38686 11.406 5.41588 9.14343C6.05027 7.74856 6.86841 6.47964 8.32398 5.87458C9.28996 5.47304 10.4599 5 11.5324 5C12.229 5 12.7762 5.63619 12.6752 6.31456C13.4231 6.20397 14.2009 6.14582 14.9983 6.14582C15.7969 6.14582 16.576 6.20415 17.3249 6.3151C17.2236 5.63658 17.7709 5 18.4676 5ZM11.2436 12.4478C10.127 12.4478 9.22184 13.3456 9.22184 14.453C9.22184 15.5604 10.127 16.4582 11.2436 16.4582C12.3602 16.4582 13.2654 15.5604 13.2654 14.453C13.2654 13.3456 12.3602 12.4478 11.2436 12.4478ZM18.753 12.4478C17.6364 12.4478 16.7312 13.3456 16.7312 14.453C16.7312 15.5604 17.6364 16.4582 18.753 16.4582C19.8696 16.4582 20.7747 15.5604 20.7747 14.453C20.7747 13.3456 19.8696 12.4478 18.753 12.4478Z"
    />
</svg>
