<svg viewBox="0 0 26 26" xmlns="http://www.w3.org/2000/svg">
    <path d="M9.71282 18.091C9.25641 18.7714 8.74133 19.4526 8.22051 20.0833C4.4359 19.974 3 17.4801 3 17.4801C3.05379 13.9465 3.89722 10.4715 5.46667 7.31706C6.84625 6.22132 8.52725 5.58815 10.2769 5.50521L10.7897 6.7079C11.5222 6.60467 12.2605 6.55075 13 6.5465C13.7427 6.54898 14.4845 6.60116 15.2205 6.7027L15.7333 5.5C17.4847 5.58744 19.1659 6.22613 20.5436 7.32747C22.108 10.4796 22.9479 13.9509 23 17.4801C23 17.4801 21.5641 19.974 17.7795 20.0833C17.2582 19.4475 16.7687 18.7854 16.3128 18.0997M19.6256 16.5898C17.6564 17.6027 15.751 18.6151 13 18.6151C10.249 18.6151 8.34359 17.6027 6.37436 16.5898"
          stroke-linecap="round" stroke-linejoin="round"/>
    <path d="M9.84466 15.6995C10.7935 15.6995 11.5626 14.9186 11.5626 13.9553C11.5626 12.992 10.7935 12.2112 9.84466 12.2112C8.89586 12.2112 8.12671 12.992 8.12671 13.9553C8.12671 14.9186 8.89586 15.6995 9.84466 15.6995Z"
          stroke-linecap="round" stroke-linejoin="round"/>
    <path d="M16.1554 15.6995C17.1042 15.6995 17.8734 14.9186 17.8734 13.9553C17.8734 12.992 17.1042 12.2112 16.1554 12.2112C15.2067 12.2112 14.4375 12.992 14.4375 13.9553C14.4375 14.9186 15.2067 15.6995 16.1554 15.6995Z"
          stroke-linecap="round" stroke-linejoin="round"/>
</svg>
