<svg viewBox="0 0 30 31" xmlns="http://www.w3.org/2000/svg">
    <path d="M12.013 10.7523C12.2302 10.7888 12.4384 10.6562 12.4781 10.4562C12.5177 10.2562 12.3737 10.0645 12.1565 10.028L12.013 10.7523ZM7.02472 15.1352C7.13443 15.3116 7.37871 15.3728 7.57037 15.2718C7.76202 15.1708 7.82844 14.9459 7.71873 14.7694L7.02472 15.1352ZM8.96932 16.3233C8.82082 16.1728 8.56794 16.1617 8.4045 16.2984C8.24105 16.4351 8.22895 16.6679 8.37744 16.8183L8.96932 16.3233ZM22.1256 20.9794C22.308 20.8648 22.3548 20.6358 22.2303 20.4679C22.1058 20.3 21.857 20.2569 21.6746 20.3715L22.1256 20.9794ZM12.1565 10.028C10.9191 9.82025 9.76706 9.81033 8.80945 10.0232C7.85006 10.2365 7.05689 10.6817 6.60636 11.4012L7.29917 11.7689C7.60893 11.2742 8.18103 10.9203 8.99715 10.7388C9.81507 10.557 10.8488 10.5568 12.013 10.7523L12.1565 10.028ZM6.60636 11.4012C5.93709 12.47 6.21145 13.8273 7.02472 15.1352L7.71873 14.7694C6.96221 13.5528 6.84024 12.5018 7.29917 11.7689L6.60636 11.4012ZM8.37744 16.8183C9.40137 17.8558 10.7513 18.8569 12.3356 19.7003L12.7359 19.063C11.2161 18.2539 9.93255 17.2993 8.96932 16.3233L8.37744 16.8183ZM12.3356 19.7003C14.2229 20.7049 16.156 21.3331 17.8639 21.5614C19.5574 21.7877 21.0935 21.6283 22.1256 20.9794L21.6746 20.3715C20.8828 20.8694 19.5865 21.0477 17.9788 20.8329C16.3854 20.6199 14.5483 20.0278 12.7359 19.063L12.3356 19.7003ZM24.0001 20.0373C24.0001 19.3269 23.3752 18.75 22.6033 18.75V19.4862C22.9325 19.4862 23.2004 19.7324 23.2004 20.0373H24.0001ZM22.6033 18.75C21.8313 18.75 21.2065 19.3269 21.2065 20.0373H22.0062C22.0062 19.7324 22.2741 19.4862 22.6033 19.4862V18.75ZM21.2065 20.0373C21.2065 20.7477 21.8313 21.3246 22.6033 21.3246V20.5884C22.2741 20.5884 22.0062 20.3422 22.0062 20.0373H21.2065ZM22.6033 21.3246C23.3752 21.3246 24.0001 20.7477 24.0001 20.0373H23.2004C23.2004 20.3422 22.9325 20.5884 22.6033 20.5884V21.3246Z"
    />
    <path d="M20.9187 16.0444C20.7761 16.1997 20.7973 16.4319 20.966 16.5631C21.1346 16.6943 21.3869 16.6749 21.5294 16.5196L20.9187 16.0444ZM19.3681 9.88081C19.1473 9.87815 18.966 10.0408 18.9631 10.2441C18.9602 10.4473 19.1369 10.6143 19.3577 10.6169L19.3681 9.88081ZM17.2431 10.8294C17.459 10.7868 17.5965 10.5911 17.5502 10.3923C17.5038 10.1936 17.2912 10.067 17.0753 10.1097L17.2431 10.8294ZM6.27162 19.2187C6.30363 19.4198 6.5067 19.559 6.72521 19.5295C6.9437 19.5001 7.09487 19.3131 7.06286 19.112L6.27162 19.2187ZM21.5294 16.5196C22.3395 15.6372 22.9218 14.7244 23.1988 13.8555C23.4762 12.985 23.4538 12.1315 23.0042 11.4135L22.3115 11.7812C22.6207 12.275 22.6675 12.9075 22.4314 13.6482C22.1948 14.3906 21.6808 15.2142 20.9187 16.0444L21.5294 16.5196ZM23.0042 11.4135C22.3458 10.3619 20.9677 9.89999 19.3681 9.88081L19.3577 10.6169C20.8399 10.6347 21.8603 11.0606 22.3115 11.7812L23.0042 11.4135ZM17.0753 10.1097C15.5761 10.4058 13.9438 10.9865 12.3433 11.8385L12.7436 12.4758C14.2791 11.6584 15.8335 11.1079 17.2431 10.8294L17.0753 10.1097ZM12.3433 11.8385C10.4005 12.8727 8.80789 14.1454 7.7377 15.4331C6.67775 16.7086 6.08629 18.0545 6.27162 19.2187L7.06286 19.112C6.92353 18.2367 7.36576 17.0923 8.37284 15.8804C9.36968 14.6809 10.8775 13.4692 12.7436 12.4758L12.3433 11.8385Z"
    />
    <path d="M11.4992 20.5121C11.4249 20.3206 11.196 20.221 10.9881 20.2894C10.7802 20.3578 10.6719 20.5685 10.7462 20.7599L11.4992 20.5121ZM18.0479 22.3926C18.1615 22.2183 18.1002 21.9922 17.9108 21.8876C17.7215 21.783 17.4759 21.8394 17.3623 22.0138L18.0479 22.3926ZM18.2716 20.0929C18.2057 20.2869 18.3232 20.4933 18.534 20.554C18.7447 20.6146 18.969 20.5064 19.0348 20.3124L18.2716 20.0929ZM15.9582 7.28147C15.7564 7.19886 15.5201 7.28248 15.4304 7.46822C15.3406 7.65398 15.4315 7.87152 15.6332 7.95411L15.9582 7.28147ZM10.7462 20.7599C11.1698 21.8504 11.7363 22.774 12.4146 23.4313C13.0941 24.0896 13.9083 24.5 14.8092 24.5V23.7638C14.1906 23.7638 13.5726 23.4845 12.9943 22.9242C12.4148 22.3626 11.8978 21.5383 11.4992 20.5121L10.7462 20.7599ZM14.8092 24.5C16.1167 24.5 17.2324 23.6434 18.0479 22.3926L17.3623 22.0138C16.6073 23.1716 15.7041 23.7638 14.8092 23.7638V24.5ZM19.0348 20.3124C19.4837 18.99 19.7405 17.4352 19.7405 15.7756H18.9408C18.9408 17.3678 18.6941 18.848 18.2716 20.0929L19.0348 20.3124ZM19.7405 15.7756C19.7405 13.7403 19.3541 11.8605 18.6993 10.3734C18.0504 8.89973 17.1105 7.75324 15.9582 7.28147L15.6332 7.95411C16.5092 8.31273 17.3418 9.24999 17.9582 10.65C18.5688 12.0367 18.9408 13.8205 18.9408 15.7756H19.7405Z"
    />
    <path fill-rule="evenodd" clip-rule="evenodd"
          d="M23.6002 20.0373C23.6002 19.5296 23.1539 19.1181 22.6032 19.1181C22.0527 19.1181 21.6063 19.5296 21.6063 20.0373C21.6063 20.5449 22.0527 20.9565 22.6032 20.9565C23.1539 20.9565 23.6002 20.5449 23.6002 20.0373Z"
          stroke-width="3.6" stroke-linecap="round"/>
    <path fill-rule="evenodd" clip-rule="evenodd"
          d="M6.99691 20.9565C7.54749 20.9565 7.99384 20.5449 7.99384 20.0373C7.99384 19.5296 7.54749 19.1181 6.99691 19.1181C6.44633 19.1181 6 19.5296 6 20.0373C6 20.5449 6.44633 20.9565 6.99691 20.9565Z"
          stroke-width="3.6" stroke-linecap="round"/>
    <path d="M14.8092 8.3384C15.3598 8.3384 15.8061 7.92686 15.8061 7.4192C15.8061 6.91154 15.3598 6.5 14.8092 6.5C14.2586 6.5 13.8123 6.91154 13.8123 7.4192C13.8123 7.92686 14.2586 8.3384 14.8092 8.3384Z"
          stroke-width="3.6" stroke-linecap="round"/>
    <path fill-rule="evenodd" clip-rule="evenodd"
          d="M15.0017 16.5973C14.5094 16.6953 14.0245 16.4069 13.9179 15.9531C13.8118 15.4992 14.1244 15.0521 14.6166 14.9538C15.1088 14.8557 15.5938 15.1442 15.7003 15.598C15.8067 16.0519 15.4939 16.499 15.0017 16.5973Z"
    />
</svg>
