<svg width="32" height="24" viewBox="0 0 32 24" fill="none" xmlns="http://www.w3.org/2000/svg">
    <mask id="mask0_345_932" style="mask-type:luminance" maskUnits="userSpaceOnUse" x="0" y="0" width="32" height="24">
        <path d="M29.7143 0H2.28571C1.02335 0 0 1.07452 0 2.4V21.6C0 22.9255 1.02335 24 2.28571 24H29.7143C30.9767 24 32 22.9255 32 21.6V2.4C32 1.07452 30.9767 0 29.7143 0Z"
              fill="white"/>
    </mask>
    <g mask="url(#mask0_345_932)">
        <path d="M29.7143 0H2.28571C1.02335 0 0 1.07452 0 2.4V21.6C0 22.9255 1.02335 24 2.28571 24H29.7143C30.9767 24 32 22.9255 32 21.6V2.4C32 1.07452 30.9767 0 29.7143 0Z"
              fill="white"/>
        <mask id="mask1_345_932" style="mask-type:alpha" maskUnits="userSpaceOnUse" x="0" y="0" width="32" height="24">
            <path d="M29.7143 0H2.28571C1.02335 0 0 1.07452 0 2.4V21.6C0 22.9255 1.02335 24 2.28571 24H29.7143C30.9767 24 32 22.9255 32 21.6V2.4C32 1.07452 30.9767 0 29.7143 0Z"
                  fill="white"/>
        </mask>
        <g mask="url(#mask1_345_932)">
            <path fill-rule="evenodd" clip-rule="evenodd"
                  d="M32 0H0V1.6H32V0ZM32 3.2H0V4.8H32V3.2ZM0 6.4H32V8H0V6.4ZM32 9.6H0V11.2H32V9.6ZM0 12.8H32V14.4H0V12.8ZM32 16H0V17.6H32V16ZM0 19.2H32V20.8H0V19.2ZM32 22.4H0V24H32V22.4Z"
                  fill="#D02F44"/>
            <path d="M13.7143 0H0V11.2H13.7143V0Z" fill="#46467F"/>
            <g filter="url(#filter0_d_345_932)">
                <path fill-rule="evenodd" clip-rule="evenodd"
                      d="M3.04774 2.39997C3.04774 2.8418 2.70662 3.19997 2.28583 3.19997C1.86505 3.19997 1.52393 2.8418 1.52393 2.39997C1.52393 1.95815 1.86505 1.59998 2.28583 1.59998C2.70662 1.59998 3.04774 1.95815 3.04774 2.39997ZM6.09535 2.39997C6.09535 2.8418 5.75425 3.19997 5.33346 3.19997C4.91267 3.19997 4.57155 2.8418 4.57155 2.39997C4.57155 1.95815 4.91267 1.59998 5.33346 1.59998C5.75425 1.59998 6.09535 1.95815 6.09535 2.39997ZM8.38107 3.19997C8.80186 3.19997 9.14298 2.8418 9.14298 2.39997C9.14298 1.95815 8.80186 1.59998 8.38107 1.59998C7.96028 1.59998 7.61917 1.95815 7.61917 2.39997C7.61917 2.8418 7.96028 3.19997 8.38107 3.19997ZM12.1905 2.39997C12.1905 2.8418 11.8495 3.19997 11.4287 3.19997C11.0079 3.19997 10.6668 2.8418 10.6668 2.39997C10.6668 1.95815 11.0079 1.59998 11.4287 1.59998C11.8495 1.59998 12.1905 1.95815 12.1905 2.39997ZM3.80964 4.79997C4.23043 4.79997 4.57155 4.4418 4.57155 3.99997C4.57155 3.55815 4.23043 3.19997 3.80964 3.19997C3.38885 3.19997 3.04774 3.55815 3.04774 3.99997C3.04774 4.4418 3.38885 4.79997 3.80964 4.79997ZM7.61917 3.99997C7.61917 4.4418 7.27805 4.79997 6.85726 4.79997C6.43647 4.79997 6.09535 4.4418 6.09535 3.99997C6.09535 3.55815 6.43647 3.19997 6.85726 3.19997C7.27805 3.19997 7.61917 3.55815 7.61917 3.99997ZM9.90489 4.79997C10.3257 4.79997 10.6668 4.4418 10.6668 3.99997C10.6668 3.55815 10.3257 3.19997 9.90489 3.19997C9.4841 3.19997 9.14298 3.55815 9.14298 3.99997C9.14298 4.4418 9.4841 4.79997 9.90489 4.79997ZM12.1905 5.59997C12.1905 6.0418 11.8495 6.39997 11.4287 6.39997C11.0079 6.39997 10.6668 6.0418 10.6668 5.59997C10.6668 5.15814 11.0079 4.79997 11.4287 4.79997C11.8495 4.79997 12.1905 5.15814 12.1905 5.59997ZM8.38107 6.39997C8.80186 6.39997 9.14298 6.0418 9.14298 5.59997C9.14298 5.15814 8.80186 4.79997 8.38107 4.79997C7.96028 4.79997 7.61917 5.15814 7.61917 5.59997C7.61917 6.0418 7.96028 6.39997 8.38107 6.39997ZM6.09535 5.59997C6.09535 6.0418 5.75425 6.39997 5.33346 6.39997C4.91267 6.39997 4.57155 6.0418 4.57155 5.59997C4.57155 5.15814 4.91267 4.79997 5.33346 4.79997C5.75425 4.79997 6.09535 5.15814 6.09535 5.59997ZM2.28583 6.39997C2.70662 6.39997 3.04774 6.0418 3.04774 5.59997C3.04774 5.15814 2.70662 4.79997 2.28583 4.79997C1.86505 4.79997 1.52393 5.15814 1.52393 5.59997C1.52393 6.0418 1.86505 6.39997 2.28583 6.39997ZM4.57155 7.19997C4.57155 7.64181 4.23043 7.99997 3.80964 7.99997C3.38885 7.99997 3.04774 7.64181 3.04774 7.19997C3.04774 6.75814 3.38885 6.39997 3.80964 6.39997C4.23043 6.39997 4.57155 6.75814 4.57155 7.19997ZM6.85726 7.99997C7.27805 7.99997 7.61917 7.64181 7.61917 7.19997C7.61917 6.75814 7.27805 6.39997 6.85726 6.39997C6.43647 6.39997 6.09535 6.75814 6.09535 7.19997C6.09535 7.64181 6.43647 7.99997 6.85726 7.99997ZM10.6668 7.19997C10.6668 7.64181 10.3257 7.99997 9.90489 7.99997C9.4841 7.99997 9.14298 7.64181 9.14298 7.19997C9.14298 6.75814 9.4841 6.39997 9.90489 6.39997C10.3257 6.39997 10.6668 6.75814 10.6668 7.19997ZM11.4287 9.59998C11.8495 9.59998 12.1905 9.2418 12.1905 8.79997C12.1905 8.35815 11.8495 7.99997 11.4287 7.99997C11.0079 7.99997 10.6668 8.35815 10.6668 8.79997C10.6668 9.2418 11.0079 9.59998 11.4287 9.59998ZM9.14298 8.79997C9.14298 9.2418 8.80186 9.59998 8.38107 9.59998C7.96028 9.59998 7.61917 9.2418 7.61917 8.79997C7.61917 8.35815 7.96028 7.99997 8.38107 7.99997C8.80186 7.99997 9.14298 8.35815 9.14298 8.79997ZM5.33346 9.59998C5.75425 9.59998 6.09535 9.2418 6.09535 8.79997C6.09535 8.35815 5.75425 7.99997 5.33346 7.99997C4.91267 7.99997 4.57155 8.35815 4.57155 8.79997C4.57155 9.2418 4.91267 9.59998 5.33346 9.59998ZM3.04774 8.79997C3.04774 9.2418 2.70662 9.59998 2.28583 9.59998C1.86505 9.59998 1.52393 9.2418 1.52393 8.79997C1.52393 8.35815 1.86505 7.99997 2.28583 7.99997C2.70662 7.99997 3.04774 8.35815 3.04774 8.79997Z"
                      fill="url(#paint0_linear_345_932)"/>
            </g>
        </g>
    </g>
    <defs>
        <filter id="filter0_d_345_932" x="1.52393" y="1.59998" width="10.6665" height="36.5714"
                filterUnits="userSpaceOnUse" color-interpolation-filters="sRGB">
            <feFlood flood-opacity="0" result="BackgroundImageFix"/>
            <feColorMatrix in="SourceAlpha" type="matrix" values="0 0 0 0 0 0 0 0 0 0 0 0 0 0 0 0 0 0 127 0"
                           result="hardAlpha"/>
            <feOffset dy="28.5714"/>
            <feColorMatrix type="matrix" values="0 0 0 0 0 0 0 0 0 0 0 0 0 0 0 0 0 0 0.06 0"/>
            <feBlend mode="normal" in2="BackgroundImageFix" result="effect1_dropShadow_345_932"/>
            <feBlend mode="normal" in="SourceGraphic" in2="effect1_dropShadow_345_932" result="shape"/>
        </filter>
        <linearGradient id="paint0_linear_345_932" x1="1.52393" y1="1.59998" x2="1.52393" y2="9.59997"
                        gradientUnits="userSpaceOnUse">
            <stop stop-color="white"/>
            <stop offset="1" stop-color="#F0F0F0"/>
        </linearGradient>
    </defs>
</svg>
