<svg viewBox="0 0 30 30" xmlns="http://www.w3.org/2000/svg">
    <path d="M26.2499 17.2504C26.6732 17.2187 26.9999 16.8786 26.9999 16.4708V14.6059C26.9999 14.1975 26.6732 13.858 26.2499 13.8256L23.6798 13.6327C23.5165 13.6207 23.3759 13.5221 23.3129 13.3763L22.4677 11.415C22.4047 11.2699 22.4311 11.1037 22.538 10.9846L24.2138 9.10006C24.4892 8.78947 24.4716 8.32748 24.1705 8.03875L22.7995 6.7204C22.4992 6.43167 22.018 6.41333 21.6957 6.67885L19.7357 8.29016C19.6119 8.3923 19.4384 8.41835 19.2882 8.35849L17.2477 7.54508C17.0968 7.48523 16.9936 7.34789 16.9804 7.19226L16.7804 4.72174C16.7475 4.31411 16.3945 4 15.9697 4H14.0302C13.6054 4 13.2524 4.31411 13.2194 4.72187L13.0188 7.19239C13.0063 7.34875 12.903 7.48536 12.7521 7.54522L10.7116 8.35863C10.5608 8.41848 10.3879 8.39243 10.2634 8.2903L8.30416 6.67898C7.98189 6.41346 7.50143 6.43181 7.2004 6.72054L5.82931 8.03889C5.52903 8.32762 5.5107 8.78961 5.78609 9.1002L7.46186 10.9848C7.56733 11.1038 7.59518 11.27 7.53218 11.4151L6.68698 13.3764C6.62543 13.5222 6.48265 13.6208 6.32075 13.6328L3.75 13.8257C3.32667 13.8581 3 14.1975 3 14.606V16.4701C3 16.8786 3.32667 17.2187 3.75 17.2504L6.32079 17.4427C6.48265 17.4554 6.62548 17.5547 6.68703 17.6998L7.53222 19.6611C7.59522 19.8062 7.56738 19.9731 7.46191 20.0921L5.78614 21.9767C5.51075 22.2866 5.52908 22.7486 5.82936 23.038L7.20044 24.3564C7.50147 24.6451 7.98194 24.6627 8.3042 24.3972L10.2634 22.7859C10.3879 22.6845 10.5608 22.6577 10.7117 22.7183L12.7522 23.531C12.9031 23.5916 13.0063 23.7275 13.0188 23.8845L13.2195 26.3551C13.2524 26.7621 13.6055 27.0769 14.0303 27.0769H15.9697C16.3945 27.0769 16.7476 26.7621 16.7805 26.3551L16.9805 23.8845C16.9937 23.7275 17.0969 23.5916 17.2478 23.531L19.2883 22.7183C19.4384 22.6577 19.6128 22.6845 19.7358 22.7859L21.6958 24.3972C22.0181 24.6627 22.4993 24.6451 22.7996 24.3564L24.1706 23.038C24.4717 22.7486 24.4892 22.2866 24.2139 21.9767L22.5381 20.0921C22.4326 19.9731 22.4048 19.8062 22.4678 19.6611L23.313 17.6998C23.376 17.5547 23.5166 17.4554 23.6799 17.4427L26.2499 17.2504ZM14.9999 19.4378C13.9167 19.4378 12.8979 19.0322 12.1318 18.2962C11.3656 17.5589 10.9438 16.58 10.9438 15.5377C10.9438 14.4962 11.3656 13.5165 12.1318 12.7806C12.8979 12.0433 13.9167 11.6383 14.9999 11.6383C16.0839 11.6383 17.102 12.0432 17.8681 12.7806C18.6342 13.5165 19.0561 14.4962 19.0561 15.5377C19.0561 16.58 18.6342 17.5589 17.8681 18.2962C17.102 19.0322 16.0839 19.4378 14.9999 19.4378Z"
    />
</svg>
