<svg viewBox="0 0 30 35" fill="none" xmlns="http://www.w3.org/2000/svg">
    <g filter="url(#filter0_d_352_2346)">
        <path d="M7.69922 15.8661C7.69922 15.8661 7.9 16.0621 8.15319 16.3682C8.19881 16.4234 8.24611 16.4821 8.29426 16.5439C8.67671 17.0012 8.96012 17.533 9.12653 18.1057C9.36909 19.1891 10.0852 20.0084 11.6248 20.4096C12.1543 20.5663 12.6709 20.7637 13.1699 21.0002M16.5152 20.4131C17.0015 20.0898 17.4635 19.7315 17.8976 19.3408C18.5735 18.6021 19.1653 17.7903 19.6619 16.9206"
              stroke-width="0.75" stroke-linecap="round" stroke-linejoin="round"/>
        <path d="M9.90112 11.5112C9.90112 11.5112 11.5119 13.6305 12.8389 13.4896" stroke-width="0.75"
              stroke-linecap="round" stroke-linejoin="round"/>
        <path d="M12.0916 12.3602C12.0916 12.3602 13.6189 14.6567 15.0041 14.9671" stroke-width="0.75"
              stroke-linecap="round" stroke-linejoin="round"/>
        <path d="M15.0044 14.9671C15.0044 14.9671 12.9487 12.4519 13.5214 8.03349" stroke-width="0.75"
              stroke-linecap="round" stroke-linejoin="round"/>
        <path d="M13.5213 8.03349C13.5213 8.03349 13.1323 9.87906 15.1534 11.2452C16.0328 11.8209 17.0279 12.196 18.0681 12.3439"
              stroke-width="0.75" stroke-linecap="round" stroke-linejoin="round"/>
        <path d="M19.5026 19.576C18.7799 23.1595 15.8679 23.0966 15.8679 23.0966C15.8679 23.0966 21.4949 25.0656 23.3194 17.766"
              stroke-width="0.75" stroke-linecap="round" stroke-linejoin="round"/>
        <path d="M5.02482 21.9112C4.96578 21.2949 5.01226 20.6731 5.16227 20.0726C5.26287 19.5612 5.48571 19.0819 5.81173 18.6757C5.81173 18.6757 5.53824 22.9451 6.384 24.0378"
              stroke-width="0.75" stroke-linecap="round" stroke-linejoin="round"/>
        <path d="M6.38376 24.0379C6.31266 21.9194 6.58802 19.8035 7.19896 17.774C8.17316 15.0029 8.55376 9.61084 8.55376 9.61084C8.55376 9.61084 9.04963 10.3919 9.9009 11.5112"
              stroke-width="0.75" stroke-linecap="round" stroke-linejoin="round"/>
        <path d="M14.4701 18.4219C14.7535 17.7556 15.7456 17.0588 15.9661 17.7429C16.29 18.747 12.8472 18.3295 12.8472 18.3295"
              stroke-width="0.75" stroke-linecap="round" stroke-linejoin="round"/>
        <path d="M25.0003 16.2025C24.462 16.2414 23.9217 16.2417 23.3833 16.2034C22.9299 16.11 22.4632 16.0994 22.006 16.172C21.4521 16.2484 20.4209 15.9321 20.3462 15.4409C20.1691 14.2758 21.8009 15.1751 22.8436 14.7824C21.8953 14.0689 20.2861 13.0704 19.5882 12.5956C19.31 12.4033 18.5441 11.6694 19.2768 11.1404"
              stroke-width="0.75" stroke-linecap="round" stroke-linejoin="round"/>
        <path d="M24.4988 11.0943C24.4988 11.0943 24.3476 10.5465 23.5834 10.9152C22.8192 11.2838 22.1599 12.2239 22.3345 12.755C22.567 13.462 24.2694 14.8747 24.9999 14.3117"
              stroke-width="0.75" stroke-linecap="round" stroke-linejoin="round"/>
        <path d="M22.8529 11.4486C21.4046 11.266 20.0496 10.6348 18.9773 9.64323" stroke-width="0.75"
              stroke-linecap="round" stroke-linejoin="round"/>
        <path d="M16.9282 9.54216C17.5411 9.2004 18.039 8.68451 18.3593 8.05962C18.6795 7.43472 18.8077 6.72884 18.7276 6.03108M18.9128 6.05124C20.4705 8.32833 22.4194 7.46719 22.4194 7.46719C22.4194 7.46719 20.4749 8.78665 20.9425 10.9248"
              stroke-width="0.75" stroke-linecap="round" stroke-linejoin="round"/>
        <path d="M9.30662 18.6657C9.30662 18.6657 8.89357 19.2346 8.18866 18.1162C7.97595 17.7201 7.72511 17.3457 7.4397 16.9985"
              stroke-width="0.75" stroke-linecap="round" stroke-linejoin="round"/>
        <path d="M22.4152 20.2054C22.4152 20.2054 22.8003 23.7886 19.0596 26" stroke-width="0.75"
              stroke-linecap="round" stroke-linejoin="round"/>
        <path d="M18.8996 20.5426C18.8332 20.5761 13.0176 19.7808 9.41284 23.0159" stroke-width="0.75"
              stroke-linecap="round" stroke-linejoin="round"/>
        <path d="M16.9282 9.5422C17.5628 9.49647 18.1999 9.58201 18.8001 9.7935" stroke-width="0.75"
              stroke-linecap="round" stroke-linejoin="round"/>
        <path d="M15.9766 15.2688C16.1223 15.0402 16.3126 14.8436 16.5362 14.6905C16.7597 14.5375 17.0118 14.4313 17.2773 14.3782C17.5429 14.3251 17.8164 14.3263 18.0815 14.3818C18.3466 14.4372 18.5977 14.5456 18.8199 14.7007"
              stroke-width="0.75" stroke-linecap="round" stroke-linejoin="round"/>
        <path d="M17.1584 14.3991C17.3107 14.3036 17.429 14.1623 17.4963 13.9956C17.5637 13.8288 17.5768 13.645 17.5337 13.4703"
              stroke-width="0.75" stroke-linecap="round" stroke-linejoin="round"/>
        <path d="M18.0173 14.3821C18.0173 14.3821 19.0222 14.3253 18.9551 13.5522" stroke-width="0.75"
              stroke-linecap="round" stroke-linejoin="round"/>
        <path d="M12.0146 14.6094C12.0146 14.6094 10.7999 13.6202 9.66216 14.177C8.52444 14.7337 8.69898 15.5901 9.17201 16.2056"
              stroke-width="0.75" stroke-linecap="round" stroke-linejoin="round"/>
        <path d="M9.11005 14.5568C9.01502 14.7135 8.87849 14.8408 8.7156 14.9246C8.55272 15.0083 8.36985 15.0453 8.18726 15.0314"
              stroke-width="0.75" stroke-linecap="round" stroke-linejoin="round"/>
        <path d="M9.7611 14.1325C9.5285 14.2545 9.26053 14.2911 9.00378 14.2359C8.74703 14.1806 8.51773 14.0371 8.35571 13.8302"
              stroke-width="0.75" stroke-linecap="round" stroke-linejoin="round"/>
        <path d="M10.7735 14.041C10.5449 13.9994 10.3301 13.9017 10.1484 13.7568C9.9666 13.6118 9.82354 13.424 9.73193 13.2102"
              stroke-width="0.75" stroke-linecap="round" stroke-linejoin="round"/>
        <path d="M9.17163 16.2058C9.40229 16.4957 9.70382 16.7211 10.047 16.86C10.3902 16.999 10.7634 17.0469 11.1305 16.999C12.2652 16.7458 11.8705 14.7954 11.5951 14.3396"
              stroke-width="0.75" stroke-linecap="round" stroke-linejoin="round"/>
        <path d="M13.5269 15.9768L13.3818 16.3309L13.6477 16.5746" stroke-width="0.75"
              stroke-linecap="round" stroke-linejoin="round"/>
        <path d="M10.8274 15.5935C10.9827 15.5935 11.1086 15.4675 11.1086 15.312C11.1086 15.1565 10.9827 15.0304 10.8274 15.0304C10.672 15.0304 10.5461 15.1565 10.5461 15.312C10.5461 15.4675 10.672 15.5935 10.8274 15.5935Z"
              stroke-width="0.75" stroke-linecap="round" stroke-linejoin="round"/>
        <path d="M18.9771 9.64323C18.9743 9.6369 17.4321 10.3713 21.419 12.4743" stroke-width="0.75"
              stroke-linecap="round" stroke-linejoin="round"/>
        <path d="M8.70641 21.2432C9.17448 23.7832 11.5168 25.1323 12.691 25.9271M10.4718 25.964C9.40895 25.568 7.15618 24.7988 6.43286 21.8441"
              stroke-width="0.75" stroke-linecap="round" stroke-linejoin="round"/>
        <path d="M24.9915 13.6369C24.6934 13.8122 23.2934 13.0153 23.6396 12.3036C23.7188 12.1149 23.8326 11.9428 23.9751 11.796"
              stroke-width="0.75" stroke-linecap="round" stroke-linejoin="round"/>
        <path d="M23.9201 6H6.1044C5.81803 6 5.5434 6.1139 5.34091 6.31664C5.13842 6.51938 5.02466 6.79436 5.02466 7.08108V24.9189C5.02466 25.2056 5.13842 25.4806 5.34091 25.6834C5.5434 25.8861 5.81803 26 6.1044 26H23.9201C24.2065 26 24.4811 25.8861 24.6836 25.6834C24.8861 25.4806 24.9998 25.2056 24.9998 24.9189V7.08108C24.9998 6.79436 24.8861 6.51938 24.6836 6.31664C24.4811 6.1139 24.2065 6 23.9201 6Z"
              stroke-width="0.75" stroke-linecap="round" stroke-linejoin="round"/>
        <path d="M22.1672 6C22.8027 6.25842 23.3805 6.64091 23.8668 7.12517C24.3531 7.60943 24.7383 8.18577 24.9999 8.82059"
              stroke-width="0.75" stroke-linecap="round" stroke-linejoin="round"/>
        <path d="M19.5022 19.576C19.6762 17.6972 19.7168 15.8083 19.6237 13.9237" stroke-width="0.75"
              stroke-linecap="round" stroke-linejoin="round"/>
        <path d="M24.4988 11.0942C24.4988 11.0942 24.7717 10.7608 24.983 10.802" stroke-width="0.75"
              stroke-linecap="round" stroke-linejoin="round"/>
        <path d="M8.70679 21.2432C8.70679 21.2432 10.2082 22.2312 11.2248 21.7809" stroke-width="0.75"
              stroke-linecap="round" stroke-linejoin="round"/>
    </g>
    <defs>
        <filter id="filter0_d_352_2346" x="0.625" y="5.62491" width="28.7502" height="28.7501"
                filterUnits="userSpaceOnUse" color-interpolation-filters="sRGB">
            <feFlood flood-opacity="0" result="BackgroundImageFix"/>
            <feColorMatrix in="SourceAlpha" type="matrix" values="0 0 0 0 0 0 0 0 0 0 0 0 0 0 0 0 0 0 127 0"
                           result="hardAlpha"/>
            <feOffset dy="4"/>
            <feGaussianBlur stdDeviation="2"/>
            <feComposite in2="hardAlpha" operator="out"/>
            <feColorMatrix type="matrix" values="0 0 0 0 0 0 0 0 0 0 0 0 0 0 0 0 0 0 0.25 0"/>
            <feBlend mode="normal" in2="BackgroundImageFix" result="effect1_dropShadow_352_2346"/>
            <feBlend mode="normal" in="SourceGraphic" in2="effect1_dropShadow_352_2346" result="shape"/>
        </filter>
    </defs>
</svg>
