<svg viewBox="0 0 30 30" xmlns="http://www.w3.org/2000/svg">
    <path d="M19.937 21H9.15826M19.937 21H20.7661C21.6781 21 22.4244 21.675 22.4244 22.5V24H7.5V22.5C7.5 21.675 8.24622 21 9.15826 21M19.937 21C19.937 19.05 20.7661 17.25 22.2585 15.9L22.4244 15.75C22.9218 12.15 20.9319 8.55 17.4496 6.75C16.9521 5.775 15.9571 5.025 14.8793 4.725L14.133 4.5V6.75L12.4748 7.5V8.25L8.24622 10.8C7.74874 11.1 7.5 11.55 7.5 12.075V13.5L8.41204 13.35C10.5678 12.975 12.8064 12.75 14.9622 12.75L14.5476 13.125C11.6457 15 9.98739 18 9.15826 21"
          stroke-miterlimit="10" stroke-linecap="round" stroke-linejoin="round"/>
</svg>
