<svg viewBox="0 0 30 31" xmlns="http://www.w3.org/2000/svg">
    <path fill-rule="evenodd" clip-rule="evenodd"
          d="M21.1714 20.2906C21.2475 20.2401 21.3107 20.1673 21.3548 20.0796C21.3988 19.9919 21.4221 19.8923 21.4224 19.7909L21.4314 16.4436C21.4317 16.3421 21.455 16.2426 21.4991 16.1548C21.5432 16.0671 21.6064 15.9944 21.6824 15.9438L23.251 14.9015C23.327 14.851 23.4132 14.8245 23.5008 14.8247C23.5885 14.8249 23.6746 14.8517 23.7505 14.9025C23.8263 14.9533 23.8893 15.0263 23.9331 15.1141C23.9769 15.202 24 15.3016 24 15.403V21.4885C24 21.5903 23.9768 21.6902 23.9327 21.7782C23.8886 21.8663 23.8253 21.9393 23.749 21.99L17.8293 25.9232C17.7537 25.9734 17.6681 25.9999 17.5809 26C17.4937 26.0001 17.408 25.9738 17.3323 25.9238L12.6867 22.8501C12.6102 22.7995 12.5465 22.7265 12.5023 22.6383C12.458 22.5501 12.4347 22.45 12.4347 22.348V19.2796C12.4347 19.2761 12.4382 19.2738 12.4412 19.2755C12.4437 19.2772 12.4472 19.2755 12.4472 19.2715V19.268C12.4472 19.2657 12.4482 19.2634 12.4502 19.2622L16.2763 16.7195C16.2798 16.7172 16.2783 16.7108 16.2743 16.7108C16.2732 16.7108 16.2722 16.7103 16.2715 16.7095C16.2707 16.7086 16.2703 16.7074 16.2703 16.7062L16.2778 13.6979C16.2781 13.5961 16.2553 13.4961 16.2115 13.4078C16.1678 13.3196 16.1047 13.2462 16.0286 13.1952C15.9526 13.1442 15.8662 13.1172 15.7783 13.1171C15.6903 13.117 15.6039 13.1438 15.5278 13.1946L12.6842 15.0901C12.6083 15.1406 12.5223 15.1673 12.4347 15.1673C12.3471 15.1673 12.2611 15.1406 12.1852 15.0901L9.33259 13.19C9.2566 13.1394 9.17042 13.1128 9.08273 13.1128C8.99503 13.1129 8.9089 13.1397 8.83296 13.1904C8.75702 13.2412 8.69396 13.3141 8.6501 13.402C8.60624 13.4898 8.58313 13.5895 8.58307 13.6909V19.128C8.58313 19.2293 8.56017 19.3289 8.5165 19.4168C8.47282 19.5046 8.40996 19.5777 8.33421 19.6286C8.25846 19.6795 8.17248 19.7064 8.08487 19.7068C7.99727 19.7072 7.91112 19.6809 7.83505 19.6306L6.25201 18.5837C6.17533 18.5331 6.11162 18.4598 6.06736 18.3714C6.02309 18.283 5.99985 18.1826 6 18.0805L6.014 8.57716C6.01419 8.47584 6.03738 8.37636 6.08125 8.28868C6.12512 8.20099 6.18813 8.12817 6.26398 8.07751C6.33982 8.02685 6.42584 8.00012 6.51342 8C6.601 7.99988 6.68707 8.02637 6.76302 8.07683L12.1857 11.6798C12.2614 11.7301 12.3473 11.7566 12.4347 11.7566C12.5221 11.7566 12.6079 11.7301 12.6837 11.6798L18.1048 8.07683C18.1809 8.0263 18.2671 7.99981 18.3548 8C18.4425 8.0002 18.5286 8.02708 18.6045 8.07795C18.6804 8.12881 18.7434 8.20188 18.7872 8.28981C18.8309 8.37773 18.8539 8.47743 18.8539 8.57889V18.0845C18.8539 18.1862 18.8308 18.2861 18.7868 18.3742C18.7428 18.4622 18.6795 18.5353 18.6034 18.586L15.7643 20.4774C15.688 20.5283 15.6247 20.6015 15.5808 20.6898C15.5368 20.778 15.5138 20.8781 15.514 20.9799C15.5142 21.0817 15.5376 21.1817 15.5819 21.2697C15.6262 21.3576 15.6898 21.4305 15.7663 21.481L17.3323 22.5123C17.408 22.5622 17.4936 22.5883 17.5807 22.5881C17.6678 22.5879 17.7533 22.5613 17.8288 22.5112L21.1714 20.2906ZM21.4999 11.7636C21.5 11.8659 21.5235 11.9664 21.5681 12.0547C21.6127 12.1431 21.6767 12.2162 21.7536 12.2665C21.8306 12.3169 21.9177 12.3428 22.0061 12.3416C22.0946 12.3403 22.1811 12.3119 22.257 12.2593L23.757 11.2182C23.831 11.1669 23.8923 11.0942 23.9349 11.0074C23.9775 10.9205 23.9999 10.8224 24 10.7225V8.60087C23.9998 8.49863 23.9763 8.39826 23.9317 8.31C23.887 8.22173 23.823 8.14872 23.7461 8.0984C23.6691 8.04808 23.582 8.02225 23.4937 8.02354C23.4053 8.02483 23.3188 8.0532 23.243 8.10575L21.7429 9.14689C21.6689 9.19822 21.6076 9.27086 21.565 9.35772C21.5224 9.44459 21.5 9.54273 21.4999 9.64259V11.7636Z"
    />
</svg>
