<svg viewBox="0 0 26 26" xmlns="http://www.w3.org/2000/svg">
    <path d="M8.78706 5.8171C9.98593 4.92676 11.4063 4.38457 12.8924 4.25V6.70684C11.7609 6.85386 10.6998 7.33859 9.84684 8.09803C8.99389 8.85747 8.3886 9.85651 8.10964 10.9653C7.83067 12.0741 7.89093 13.2413 8.28259 14.3153C8.67425 15.3893 9.37919 16.3204 10.3058 16.9875C11.2324 17.6547 12.3378 18.0271 13.4783 18.0562C14.6189 18.0854 15.7418 17.7701 16.7012 17.1512C17.6605 16.5323 18.4119 15.6385 18.8578 14.5859C19.3036 13.5333 19.4232 12.3707 19.2011 11.2491L21.2663 9.56969C21.822 11.1017 21.8986 12.7758 21.4975 14.3607C21.0692 16.0525 20.1097 17.5615 18.7606 18.6653C17.4116 19.7691 15.7443 20.4091 14.0047 20.491C12.2651 20.5729 10.5453 20.0924 9.09894 19.1203C7.65255 18.1482 6.55613 16.7359 5.97138 15.0918C5.38675 13.4476 5.34483 11.6586 5.85179 9.98866C6.35876 8.31874 7.38777 6.85632 8.78706 5.8171Z"
          stroke-width="0.5" stroke-miterlimit="2" stroke-linecap="round" stroke-linejoin="round"/>
    <path d="M19.7471 6.99025C19.7471 6.99025 18.6763 8.64046 18.3405 9.17514C17.8387 8.42996 17.1689 7.81363 16.3854 7.37599V12.3591C16.3854 13.888 15.1489 15.1273 13.6234 15.1273C12.0981 15.1273 10.8615 13.888 10.8615 12.3591C10.8615 10.8302 12.0981 9.59087 13.6234 9.59087C14.1735 9.58997 14.7111 9.75447 15.1669 10.0631V4.36401C16.9601 4.70974 18.5831 5.67286 19.7471 6.99025Z"
          stroke-width="0.5" stroke-miterlimit="10" stroke-linecap="round" stroke-linejoin="round"/>
</svg>
