<svg viewBox="0 0 30 30" xmlns="http://www.w3.org/2000/svg">
    <path d="M15 3.00037C11.8211 3.00037 8.93325 4.23861 6.78638 6.25645L6.375 5.84471V4.87497C6.375 4.81197 6.35588 4.75572 6.3285 4.7036C6.32325 4.67997 6.31012 4.65447 6.28012 4.62447L4.7655 3.10987H4.76512C4.69725 3.04162 4.6035 3 4.5 3C4.29262 3 4.125 3.16762 4.125 3.37499V4.12498H3.375C3.16763 4.12498 3 4.2926 3 4.49998C3 4.60347 3.042 4.69722 3.10988 4.7651L4.6095 6.2647C4.60987 6.26507 4.60988 6.26507 4.60988 6.26507L4.62525 6.28045C4.65525 6.31045 4.68038 6.32357 4.704 6.32882C4.75575 6.35582 4.81237 6.37495 4.875 6.37495H5.84475L6.25612 6.78669C4.23862 8.93316 3 11.821 3 15.0002C3 21.6275 8.37262 27 15 27C21.6274 27 27 21.6275 27 15.0002C27 8.37292 21.6274 3.00037 15 3.00037ZM15 25.4996C9.201 25.4996 4.5 20.7987 4.5 14.9998C4.5 12.2354 5.57025 9.72215 7.31662 7.8468L8.37712 8.90766C6.90188 10.51 6 12.6493 6 14.9998C6 19.9704 10.0294 23.9997 15 23.9997C19.9706 23.9997 24 19.9704 24 14.9998C24 10.0293 19.9706 5.99995 15 5.99995C12.6495 5.99995 10.5105 6.90144 8.90738 8.37742L7.84688 7.31656C9.72188 5.57021 12.2355 4.49998 15 4.49998C20.799 4.49998 25.5 9.2009 25.5 14.9998C25.5 20.7987 20.799 25.4996 15 25.4996ZM10.5049 11.035C9.57113 12.0929 9 13.4777 9 14.9998C9 18.3136 11.6861 20.9997 15 20.9997C18.3139 20.9997 21 18.3136 21 14.9998C21 11.686 18.3139 8.99991 15 8.99991C13.4779 8.99991 12.093 9.57102 11.0351 10.5048L9.97463 9.44427C11.3051 8.23979 13.0639 7.49993 15 7.49993C19.1423 7.49993 22.5 10.8576 22.5 14.9998C22.5 19.142 19.1423 22.4997 15 22.4997C10.8577 22.4997 7.5 19.142 7.5 14.9998C7.5 13.0637 8.23987 11.3046 9.44438 9.97452L10.5049 11.035ZM12.6326 13.1627C12.2374 13.6705 12 14.3068 12 15.0002C12 16.6569 13.3433 18.0001 15 18.0001C16.6567 18.0001 18 16.6569 18 15.0002C18 13.3435 16.6567 12.0002 15 12.0002C14.307 12.0002 13.6706 12.2376 13.1629 12.6325L12.096 11.5656C12.8801 10.9019 13.8926 10.4999 15 10.4999C17.4851 10.4999 19.5 12.5147 19.5 14.9998C19.5 17.4849 17.4851 19.4997 15 19.4997C12.5149 19.4997 10.5 17.4849 10.5 14.9998C10.5 13.8925 10.902 12.88 11.5658 12.0959L12.6326 13.1627ZM14.7349 15.2649C14.8815 15.4116 15.1185 15.4116 15.2651 15.2649C15.4117 15.1183 15.4117 14.8813 15.2651 14.7347L14.2425 13.7121C14.4656 13.5808 14.7225 13.5002 15 13.5002C15.8284 13.5002 16.5 14.1718 16.5 15.0002C16.5 15.8286 15.8284 16.5002 15 16.5002C14.1716 16.5002 13.5 15.8286 13.5 15.0002C13.5 14.7223 13.5806 14.4654 13.7122 14.2423L14.7349 15.2649Z"
    />
</svg>
