<svg viewBox="0 0 30 30" xmlns="http://www.w3.org/2000/svg">
    <path d="M11.3391 11.3862C10.7583 11.1204 10.3268 10.8545 9.89527 10.5389C9.23142 10.0736 8.61736 9.55855 8.10288 9.01024C6.84156 7.73086 6.17771 6.41824 6.36027 5.33824L5.97856 5.75363C5.06577 6.71732 3.85424 8.41209 3.83765 9.14316C3.85424 9.22624 3.85424 9.22624 3.85424 9.22624C4.0202 9.79116 4.28574 10.3561 4.66746 10.9044V10.921C5.16534 11.7185 6.14452 13.0312 9.62973 14.5598L9.01567 15.7229L13.7124 14.4601L12.0362 10.057L11.3391 11.3862Z"
    />
    <path d="M18.6417 18.697C19.2226 18.9628 19.6541 19.2286 20.0856 19.5443C20.7494 20.0096 21.3635 20.5246 21.878 21.073C23.1393 22.3523 23.8031 23.665 23.6206 24.745L24.0023 24.3462C24.9151 23.3825 26.1266 21.6877 26.1432 20.9566C26.1266 20.8736 26.1266 20.8736 26.1266 20.8736C25.9606 20.3086 25.6951 19.7437 25.3134 19.1954V19.1788C24.8155 18.3813 23.8363 17.0686 20.3511 15.54L20.9652 14.377L16.2684 15.6397L17.9612 19.993L18.6417 18.697Z"
    />
    <path d="M18.7579 11.3529C19.0234 10.7714 19.289 10.3394 19.6043 9.90737C20.069 9.24276 20.5835 8.62799 21.1312 8.11291C22.4091 6.85014 23.7202 6.18553 24.7989 6.3683L24.4006 5.98614C23.438 5.0723 21.7452 3.85937 21.015 3.84276C20.932 3.85937 20.932 3.85937 20.932 3.85937C20.3677 4.02553 19.8035 4.29137 19.2558 4.67353H19.2392C18.4426 5.17199 17.1315 6.1523 15.6046 9.64153L14.4429 9.02676L15.7042 13.7289L20.0856 12.0674L18.7579 11.3529Z"
    />
    <path d="M11.1569 18.6472C10.8913 19.2287 10.6258 19.6607 10.3105 20.0927C9.84577 20.7573 9.33129 21.3721 8.78361 21.8872C7.5057 23.1499 6.1946 23.8145 5.11584 23.6318L5.51415 24.0139C6.47674 24.9278 8.16955 26.1407 8.89978 26.1573C8.98277 26.1407 8.98277 26.1407 8.98277 26.1407C9.54704 25.9745 10.1113 25.7087 10.659 25.3265H10.6756C11.4722 24.8281 12.7833 23.8478 14.3102 20.3585L15.4719 20.9733L14.2106 16.2712L9.84577 17.9327L11.1569 18.6472Z"
    />
</svg>
