<svg viewBox="0 0 30 31" xmlns="http://www.w3.org/2000/svg">
    <path d="M14.9999 4.64394C20.9956 4.64394 25.8558 9.5042 25.8558 15.5C25.8558 21.4956 20.9956 26.3561 14.9999 26.3561C9.00438 26.3561 4.14393 21.4956 4.14393 15.5C4.14393 9.50444 9.00438 4.64394 14.9999 4.64394ZM14.9999 3.5C8.38312 3.5 3 8.88317 3 15.5C3 22.1168 8.38312 27.5 14.9999 27.5C21.6166 27.5 27 22.1168 27 15.5C27 8.88317 21.6166 3.5 14.9999 3.5Z"
    />
    <path d="M10.5561 11.6206C10.5192 12.0312 10.5698 12.4558 10.5424 12.871C10.51 13.2865 10.4592 13.6971 10.3762 14.1078C10.2608 14.6938 9.89622 15.1368 9.39346 15.506C10.3719 16.1428 10.4825 17.1302 10.547 18.1316C10.5794 18.6716 10.5655 19.2161 10.6209 19.7512C10.6624 20.1664 10.8238 20.2727 11.2532 20.2864C11.4285 20.2909 11.6082 20.2864 11.8116 20.2864V21.5692C10.5427 21.786 9.49516 21.4262 9.23659 20.3511C9.15335 19.9589 9.09794 19.5574 9.07971 19.1513C9.05189 18.7222 9.09794 18.293 9.0658 17.8639C8.97345 16.6871 8.82114 16.2904 7.69543 16.235V14.7722C7.77843 14.7538 7.85687 14.7398 7.93986 14.7307C8.55824 14.6983 8.82114 14.5091 8.95498 13.9001C9.01975 13.5587 9.05669 13.2126 9.07036 12.8619C9.11665 12.1929 9.09818 11.51 9.21332 10.8455C9.37475 9.89038 9.96555 9.42887 10.9485 9.37346C11.2253 9.35955 11.5069 9.37346 11.8252 9.37346V10.6841C11.6914 10.6935 11.576 10.7117 11.4561 10.7117C10.6578 10.6839 10.6161 10.9561 10.5561 11.6206ZM12.0927 14.6569H12.0742C11.6127 14.6338 11.216 14.9936 11.1927 15.4551C11.1697 15.9212 11.5295 16.3182 11.991 16.341H12.0464C12.5034 16.3688 12.8953 16.0179 12.9231 15.5612V15.5151C12.9325 15.049 12.5588 14.6662 12.0927 14.6569ZM14.986 14.6569C14.5384 14.6429 14.1644 14.9936 14.1508 15.4367C14.1508 15.4645 14.1508 15.4875 14.1556 15.5151C14.1556 16.0181 14.4969 16.3412 15.0138 16.3412C15.5214 16.3412 15.8399 16.009 15.8399 15.4875C15.8351 14.9845 15.4981 14.6523 14.986 14.6569ZM17.9486 14.6569C17.478 14.6475 17.0856 15.0215 17.0719 15.4921C17.0719 15.9627 17.4501 16.341 17.9208 16.341H17.9301C18.3547 16.4149 18.7838 16.0042 18.8116 15.5105C18.8344 15.0536 18.4192 14.6569 17.9486 14.6569ZM22.0139 14.7259C21.4785 14.7029 21.2108 14.523 21.0772 14.0152C20.994 13.6923 20.9433 13.3553 20.9249 13.0231C20.8879 12.4047 20.8925 11.7818 20.851 11.1634C20.7541 9.69609 19.6929 9.18397 18.1515 9.43751V10.7112C18.3959 10.7112 18.5852 10.7112 18.7745 10.7158C19.1021 10.7203 19.3513 10.8451 19.3835 11.2097C19.4159 11.5419 19.4159 11.8787 19.4483 12.2157C19.513 12.8849 19.5497 13.563 19.6651 14.2229C19.7668 14.7674 20.1405 15.1735 20.6063 15.5058C19.7898 16.0548 19.5497 16.8392 19.5082 17.7207C19.4852 18.3252 19.4713 18.9342 19.4391 19.5435C19.4113 20.0971 19.2177 20.277 18.6593 20.2909C18.5025 20.2955 18.3501 20.3094 18.1748 20.3188V21.6246C18.5025 21.6246 18.8023 21.6431 19.1021 21.6246C20.0342 21.5692 20.5972 21.117 20.7819 20.2125C20.8604 19.714 20.9064 19.2113 20.9203 18.7083C20.9525 18.2468 20.9481 17.7807 20.9942 17.324C21.0633 16.6087 21.3909 16.3134 22.1062 16.2673C22.1756 16.258 22.2401 16.2443 22.3048 16.2213V14.7583C22.1847 14.7444 22.1014 14.7307 22.0139 14.7259Z"
    />
</svg>
