<svg viewBox="0 0 30 30" xmlns="http://www.w3.org/2000/svg">
    <path opacity="0.2"
          d="M10.625 4.06335C8.79984 4.78298 7.25278 5.93766 6.1672 7.39053C5.08162 8.8434 4.50303 10.5335 4.5 12.2607C4.5 14.6562 5.60625 16.9536 7.57538 18.6475C9.54451 20.3414 12.2152 21.293 15 21.293C17.7848 21.293 20.4555 20.3414 22.4246 18.6475C24.3938 16.9536 25.5 14.6562 25.5 12.2607C25.4957 10.5346 24.9165 8.84566 23.831 7.39393C22.7455 5.94221 21.1991 4.78844 19.375 4.06924V4.24565C20.7037 4.90552 21.8073 5.8543 22.5751 6.99684C23.343 8.13938 23.7482 9.43552 23.75 10.7553C23.75 11.7437 23.5237 12.7225 23.0839 13.6357C22.6442 14.5489 21.9997 15.3787 21.1872 16.0776C20.3747 16.7766 19.4101 17.331 18.3485 17.7092C17.2869 18.0875 16.1491 18.2822 15 18.2822C13.8509 18.2822 12.7131 18.0875 11.6515 17.7092C10.5899 17.331 9.62533 16.7766 8.81281 16.0776C8.0003 15.3787 7.35578 14.5489 6.91605 13.6357C6.47633 12.7225 6.25 11.7437 6.25 10.7553C6.25241 9.43602 6.65786 8.14049 7.42571 6.99851C8.19357 5.85653 9.29685 4.90821 10.625 4.24859V4.06335Z"
    />
    <path d="M10.625 3.0004C8.79984 3.72002 7.25278 4.8747 6.1672 6.32757C5.08162 7.78044 4.50303 9.47059 4.5 11.1977C4.5 13.5932 5.60625 15.8906 7.57538 17.5845C9.54451 19.2784 12.2152 20.23 15 20.23C17.7848 20.23 20.4555 19.2784 22.4246 17.5845C24.3938 15.8906 25.5 13.5932 25.5 11.1977C25.4957 9.47159 24.9165 7.7827 23.831 6.33098C22.7455 4.87925 21.1991 3.72548 19.375 3.00628V3.18269C20.7037 3.84256 21.8073 4.79134 22.5751 5.93389C23.343 7.07643 23.7482 8.37256 23.75 9.69231C23.75 10.6808 23.5237 11.6595 23.0839 12.5727C22.6442 13.4859 21.9997 14.3157 21.1872 15.0147C20.3747 15.7136 19.4101 16.268 18.3485 16.6463C17.2869 17.0245 16.1491 17.2192 15 17.2192C13.8509 17.2192 12.7131 17.0245 11.6515 16.6463C10.5899 16.268 9.62533 15.7136 8.81281 15.0147C8.0003 14.3157 7.35578 13.4859 6.91605 12.5727C6.47633 11.6595 6.25 10.6808 6.25 9.69231C6.25241 8.37306 6.65786 7.07753 7.42571 5.93555C8.19357 4.79357 9.29685 3.84525 10.625 3.18563V3.0004Z"
    />
    <path opacity="0.2"
          d="M10.6258 3C8.80037 3.71957 7.25306 4.87431 6.16732 6.32733C5.08158 7.78034 4.50294 9.47069 4.5 11.198C4.50405 11.3684 4.5137 11.5386 4.52895 11.7085C4.67968 9.63352 5.65796 7.66674 7.29871 6.14014C8.06753 4.9091 9.21957 3.88647 10.6258 3.18679V3ZM19.3742 3.00623V3.18264C20.7902 3.88981 21.947 4.92454 22.7134 6.1692C24.3742 7.72188 25.3507 9.72575 25.4735 11.8331C25.491 11.6217 25.4998 11.4099 25.5 11.198C25.4957 9.47175 24.9164 7.78274 23.8307 6.33093C22.7451 4.87913 21.1985 3.72536 19.3742 3.00623ZM23.7194 10.2267C23.5623 12.1243 22.5757 13.9004 20.958 15.1976C19.3403 16.4948 17.2116 17.217 15 17.2188C12.7973 17.2185 10.6758 16.5035 9.05902 15.2166C7.44227 13.9297 6.44922 12.1656 6.27815 10.2765C6.26257 10.436 6.25292 10.5959 6.2492 10.7559C6.24962 12.7521 7.17179 14.6663 8.81286 16.0776C10.4539 17.4889 12.6795 18.2817 15 18.2815C17.3205 18.2817 19.5461 17.4889 21.1871 16.0776C22.8282 14.6663 23.7504 12.7521 23.7508 10.7559C23.7476 10.5792 23.7371 10.4027 23.7194 10.2267Z"
    />
    <path opacity="0.2"
          d="M11.6647 12.7919L13.147 14.2264V23.7635L15 28.2L16.8529 23.7635V14.2264L18.3353 12.7919H16.6676H13.3323H11.6647Z"
    />
    <path d="M11.6647 11.7293L13.147 13.1638V22.7009L15 27.1374L16.8529 22.7009V13.1638L18.3353 11.7293H16.6676H13.3323H11.6647Z"
    />
    <path opacity="0.2"
          d="M11.6656 11.7293L12.7634 12.7919H13.3328H16.6671H17.2365L18.3343 11.7293H16.6671H13.3328H11.6656Z"
    />
</svg>
