<svg viewBox="0 0 30 31" xmlns="http://www.w3.org/2000/svg">
    <path d="M15.0056 13.4321C15.4177 13.4321 15.8206 13.5513 16.1635 13.7745C16.5064 13.9978 16.7741 14.3152 16.9328 14.6868C17.0915 15.0585 17.1341 15.4676 17.0554 15.8629C16.9766 16.2581 16.7799 16.6217 16.49 16.908C16.2002 17.1942 15.8302 17.3903 15.4265 17.4714C15.0229 17.5526 14.6037 17.5153 14.2217 17.3642C13.8398 17.2131 13.5121 16.9549 13.2799 16.6222C13.0478 16.2896 12.9216 15.8972 12.9172 15.4945C12.9157 15.2251 12.9686 14.9581 13.0727 14.7086C13.1769 14.4592 13.3303 14.2322 13.5242 14.0407C13.7181 13.8492 13.9488 13.6968 14.203 13.5924C14.4571 13.488 14.7299 13.4335 15.0056 13.4321ZM9.83481 24.2245C10.5384 24.6392 12.0684 24.0063 13.8553 22.3694C13.2581 21.7062 12.6952 21.0142 12.1689 20.296C11.2681 20.1974 10.3734 20.0517 9.4886 19.8595C8.91903 22.1948 9.13122 23.7989 9.83481 24.2245ZM10.6277 17.9608L10.3039 17.4042C10.1776 17.7107 10.0695 18.0241 9.97999 18.3427C10.2815 18.4082 10.6166 18.4627 10.9628 18.5173L10.6277 17.9608ZM17.9316 17.1314L18.8362 15.4945L17.9316 13.8577C17.5966 13.2793 17.2392 12.7664 16.9153 12.2535C16.3122 12.2208 15.6757 12.2208 15.0056 12.2208C14.3355 12.2208 13.6989 12.2208 13.0959 12.2208C12.772 12.7337 12.4146 13.2466 12.0796 13.8249L11.175 15.4945L12.0796 17.1314C12.4146 17.7098 12.772 18.2227 13.0959 18.7355C13.6989 18.7355 14.3355 18.7355 15.0056 18.7355C15.6757 18.7355 16.3122 18.7355 16.9153 18.7355C17.2392 18.2227 17.5966 17.7098 17.9316 17.1314ZM15.0056 9.79824C14.7934 10.0383 14.57 10.2893 14.3467 10.5839H15.6645C15.4411 10.2893 15.2178 10.0383 15.0056 9.79824ZM15.0056 21.1908C15.2178 20.9508 15.4411 20.6998 15.6645 20.4051H14.3467C14.57 20.6998 14.7934 20.9508 15.0056 21.1908ZM20.1652 6.76458C19.4728 6.34991 17.9316 6.98283 16.1559 8.6197C16.7531 9.28285 17.3159 9.97484 17.8423 10.6931C18.7422 10.7772 19.6369 10.9084 20.5226 11.0859C21.0921 8.75065 20.8799 7.14652 20.1652 6.72093M19.3834 12.9847L19.7073 13.5412C19.8336 13.2347 19.9417 12.9214 20.0312 12.6027C19.7296 12.5373 19.3946 12.4827 19.0484 12.4281L19.3834 12.9847ZM21.0028 5.34596C22.6445 6.26261 22.8232 8.67426 22.1196 11.4897C24.9563 12.3081 27 13.6722 27 15.5055C27 17.3387 24.9563 18.7028 22.1196 19.5212C22.812 22.3367 22.6333 24.7483 21.0028 25.6649C19.3723 26.5816 17.1498 25.534 15.0056 23.537C12.8613 25.534 10.6389 26.5816 8.99721 25.6649C7.35551 24.7483 7.18799 22.3912 7.88041 19.5212C5.04374 18.7028 3 17.3387 3 15.5055C3 13.6722 5.04374 12.2972 7.88041 11.4788C7.18799 8.66335 7.36668 6.25169 8.99721 5.33505C10.6277 4.4184 12.8613 5.466 15.0056 7.46298C17.1498 5.466 19.3723 4.4184 21.0028 5.33505M20.6789 15.4945C21.0668 16.2979 21.4098 17.1211 21.7064 17.9608C24.0517 17.2733 25.3695 16.2912 25.3695 15.4945C25.3695 14.6979 24.0181 13.7158 21.7064 13.0283C21.4098 13.8679 21.0668 14.6912 20.6789 15.4945ZM9.33225 15.4945C8.94438 14.6912 8.60139 13.8679 8.30479 13.0283C5.95952 13.7158 4.64169 14.6979 4.64169 15.4945C4.64169 16.2912 5.99302 17.2733 8.30479 17.9608C8.60139 17.1211 8.94438 16.2979 9.33225 15.4945ZM19.3834 17.9608L19.0484 18.5173C19.3946 18.5173 19.7296 18.4082 20.0312 18.3427C19.9417 18.0241 19.8336 17.7107 19.7073 17.4042L19.3834 17.9608ZM16.1224 22.3694C17.8981 24.0063 19.4728 24.6392 20.1317 24.2245C20.7906 23.8098 21.0586 22.2384 20.4891 19.8595C19.6034 20.0371 18.7087 20.1682 17.8087 20.2524C17.2837 20.9855 16.7208 21.6921 16.1224 22.3694ZM10.6277 13.0283L10.9628 12.4718C10.6166 12.4718 10.2815 12.5809 9.97999 12.6464C10.0695 12.965 10.1776 13.2784 10.3039 13.5849L10.6277 13.0283ZM13.8888 8.6197C12.0796 6.98283 10.5384 6.34991 9.83481 6.76458C9.13122 7.17925 8.91903 8.75065 9.4886 11.1296C10.3742 10.952 11.2689 10.8209 12.1689 10.7367C12.7049 10.0028 13.2789 9.29624 13.8888 8.6197Z"
    />
</svg>
