<svg viewBox="0 0 30 30" xmlns="http://www.w3.org/2000/svg">
    <path d="M12.25 14.8654C12.25 15.0671 12.096 15.2308 11.9062 15.2308H8.46875C8.279 15.2308 8.125 15.0671 8.125 14.8654C8.125 14.6637 8.279 14.5 8.46875 14.5H11.9062C12.096 14.5 12.25 14.6637 12.25 14.8654ZM11.9062 13.0385H8.46875C8.279 13.0385 8.125 13.2022 8.125 13.4038C8.125 13.6055 8.279 13.7692 8.46875 13.7692H11.9062C12.096 13.7692 12.25 13.6055 12.25 13.4038C12.25 13.2022 12.096 13.0385 11.9062 13.0385ZM26 7.92308V21.0769C26 22.2878 25.0767 23.2692 23.9375 23.2692H17.0625C17.0625 23.6726 16.7545 24 16.375 24H13.625C13.2455 24 12.9375 23.6726 12.9375 23.2692H6.0625C4.92331 23.2692 4 22.2878 4 21.0769V7.92308C4 6.71219 4.92331 5.73077 6.0625 5.73077H17.75C17.75 5.32738 18.058 5 18.4375 5H21.1875C21.567 5 21.875 5.32738 21.875 5.73077H23.9375C25.0767 5.73077 26 6.71219 26 7.92308ZM18.4375 14.9282L19.3264 13.9833L19.8125 13.4667L20.2986 13.9833L21.1875 14.9282V5.73077H18.4375V14.9282ZM15.3438 21.5388L15.6318 21.3853C16.012 21.1836 16.4369 21.0769 16.8618 21.0769H23.9375V6.46154H21.875V14.9282C21.875 15.3689 21.5361 15.6605 21.1827 15.6605C21.0136 15.6605 20.8417 15.594 20.7014 15.4449L19.8125 14.5L18.9236 15.4449C18.7833 15.594 18.6114 15.6605 18.4423 15.6605C18.0889 15.6605 17.75 15.3689 17.75 14.9282V6.46154H15.3438V21.5388ZM6.0625 21.0769H13.1382C13.5631 21.0769 13.988 21.1836 14.3682 21.3853L14.6562 21.5388V6.46154H6.0625V21.0769ZM25.3125 7.92308C25.3125 7.3845 25.0341 6.91827 24.625 6.66469V21.0769C24.625 21.4803 24.317 21.8077 23.9375 21.8077H16.8618C16.5414 21.8077 16.2258 21.8866 15.9391 22.0393L15.3073 22.3755C15.2104 22.4267 15.1052 22.453 15 22.453C14.8948 22.453 14.7896 22.4274 14.6927 22.3755L14.0609 22.0393C13.7742 21.8866 13.4586 21.8077 13.1382 21.8077H6.0625C5.683 21.8077 5.375 21.4803 5.375 21.0769V6.66469C4.96594 6.91827 4.6875 7.3845 4.6875 7.92308V21.0769C4.6875 21.883 5.30419 22.5385 6.0625 22.5385H13.625V23.2692H16.375V22.5385H23.9375C24.6958 22.5385 25.3125 21.883 25.3125 21.0769V7.92308ZM11.9062 11.5769H8.46875C8.279 11.5769 8.125 11.7406 8.125 11.9423C8.125 12.144 8.279 12.3077 8.46875 12.3077H11.9062C12.096 12.3077 12.25 12.144 12.25 11.9423C12.25 11.7406 12.096 11.5769 11.9062 11.5769Z"
    />
</svg>
