<svg viewBox="0 0 30 31" xmlns="http://www.w3.org/2000/svg">
    <path d="M19.6324 18.5951C20.4029 18.5215 21 17.9026 21 17.1506C21 17.1208 20.9991 17.091 20.9974 17.0612V17.0654C20.9569 16.2686 20.2778 15.6373 19.4435 15.6291H19.3874C18.5522 15.6589 17.8869 16.3149 17.8869 17.12C17.8869 17.1382 17.8869 17.1564 17.8878 17.1754V17.1729C17.9102 17.5643 18.0776 17.9151 18.3382 18.1798L18.3373 18.179C17.3132 20.0108 15.748 21.4553 13.8472 22.3414L13.7877 22.3662C12.7592 22.9123 11.5323 23.2333 10.2268 23.2333C9.89638 23.2333 9.57024 23.2126 9.25186 23.1729L9.28982 23.1771C8.11552 23.0687 7.1043 22.4788 6.46236 21.6183L6.4546 21.6067C5.99126 20.9821 5.7143 20.2044 5.7143 19.3638C5.7143 18.6713 5.90239 18.021 6.23285 17.4567L6.2225 17.4766C6.69446 16.6194 7.33812 15.9062 8.11552 15.3569L8.13364 15.3453C7.9861 14.9705 7.85409 14.5188 7.7609 14.0546L7.75141 14C3.71083 16.7708 4.12067 20.5609 5.3476 22.3522C6.42008 23.6644 8.07325 24.5 9.93003 24.5C10.0146 24.5 10.0983 24.4983 10.182 24.495H10.1699C10.2001 24.4959 10.2363 24.4959 10.2726 24.4959C10.8308 24.4959 11.3735 24.4338 11.8947 24.3172L11.8464 24.3263C15.3045 23.719 18.1363 21.5819 19.5893 18.6886L19.6169 18.6274L19.6324 18.5951Z"
    />
    <path d="M23.743 15.393C21.7363 13.166 18.8076 11.7681 15.5424 11.7681C15.4431 11.7681 15.3428 11.7697 15.2443 11.7721H15.2593H14.8101C14.5737 11.3113 14.0919 11 13.5357 11C13.519 11 13.5032 11 13.4865 11.0008H13.489H13.4564C12.6497 11.0122 12 11.651 12 12.4378C12 12.4613 12.0008 12.4841 12.0017 12.5069V12.5036C12.0392 13.2863 12.6965 13.9081 13.5048 13.9162H13.5708C14.167 13.8934 14.6706 13.5326 14.8877 13.027L14.8911 13.0173H15.3796C17.5124 13.0197 19.4916 13.6569 21.1283 14.7468L21.0933 14.7249C22.3718 15.5214 23.3588 16.6658 23.9259 18.0206L23.9434 18.0678C24.1605 18.5083 24.2866 19.0252 24.2866 19.5706C24.2866 20.1477 24.1455 20.6922 23.8941 21.1734L23.9033 21.153C23.2545 22.4421 21.9166 23.3134 20.3701 23.3134C20.3133 23.3134 20.2573 23.3126 20.2014 23.3101H20.2097C19.2602 23.2906 18.3642 23.0874 17.5517 22.7355L17.5951 22.7526C17.2786 23.0094 16.7508 23.432 16.3675 23.6897C17.3813 24.1741 18.5705 24.4691 19.8273 24.4976H19.8373C19.8866 24.4992 19.9442 24.5 20.0018 24.5C22.1329 24.5 23.9994 23.3987 25.034 21.7496L25.0491 21.7244C25.3347 21.0653 25.5 20.2996 25.5 19.4958C25.5 17.8865 24.8353 16.4284 23.7588 15.3678L23.7597 15.3686L23.7472 15.3946L23.743 15.393Z"
    />
    <path d="M10.513 19.995C10.5507 20.8297 11.227 21.4939 12.0585 21.5H12.1134C12.9431 21.4714 13.6058 20.7838 13.6058 19.9413C13.6058 19.084 12.9209 18.3877 12.0731 18.3817H12.0156C12.0071 18.3808 11.9968 18.3808 11.9874 18.3808C11.9248 18.3808 11.8648 18.3903 11.8082 18.4094L11.8125 18.4085C10.8953 16.9009 10.3527 15.0746 10.3527 13.1201C10.3527 12.8049 10.3664 12.4932 10.3947 12.1857L10.3921 12.2256C10.4701 10.575 11.0701 9.07954 12.0268 7.88971L12.0165 7.90356C12.866 6.97612 14.0626 6.38554 15.3973 6.34224H15.405C18.3298 6.28682 19.5496 9.96888 19.6439 11.4323L21 11.8419C20.6845 7.35541 17.9226 5 15.2816 5C12.5968 5.14115 10.369 6.96573 9.60519 9.44324L9.59319 9.48827C9.21773 10.5811 9 11.8402 9 13.1504C9 15.3915 9.63519 17.4828 10.7324 19.2502L10.705 19.2026C10.5824 19.3897 10.5095 19.6191 10.5095 19.8659C10.5095 19.9118 10.5121 19.9569 10.5173 20.001L10.5164 19.9958L10.513 19.995Z"
    />
</svg>
