<svg viewBox="0 0 30 31" xmlns="http://www.w3.org/2000/svg">
    <path fill-rule="evenodd" clip-rule="evenodd"
          d="M20.0549 5.15096C21.4393 5.39668 22.8281 6.00078 23.5014 7.24377C24.1951 8.52449 24.1224 9.77067 23.5456 10.8198C23.0004 11.8116 22.0508 12.5529 21.0939 13.0509C20.1299 13.5525 19.0433 13.868 18.0907 13.9298C17.6165 13.9606 17.118 13.9323 16.665 13.7906C16.2091 13.648 15.7076 13.3571 15.4296 12.8112C15.1645 12.291 15.3847 11.6612 15.9213 11.4043C16.4247 11.1634 17.0275 11.3362 17.3191 11.7877C17.3227 11.7889 17.3265 11.7901 17.3306 11.7914C17.4375 11.8249 17.6403 11.8537 17.9461 11.8338C18.5537 11.7944 19.3423 11.5781 20.0687 11.2001C20.8021 10.8185 21.3579 10.3323 21.633 9.832C21.8765 9.38903 21.9389 8.87827 21.5825 8.22023C21.3653 7.8192 20.7832 7.41583 19.6646 7.21727C18.583 7.0253 17.2107 7.07004 15.8019 7.35409C14.3968 7.63741 13.0243 8.14501 11.9364 8.82108C10.8378 9.50375 10.1218 10.2979 9.84663 11.121C9.54904 12.0113 9.65452 12.638 9.9225 13.1527C10.2165 13.7172 10.7548 14.2401 11.4972 14.7998C11.8565 15.0708 12.238 15.3321 12.64 15.6076L12.6619 15.6226C13.0637 15.8979 13.4878 16.189 13.8843 16.4924C14.2182 16.748 14.5593 17.0315 14.8716 17.3506C16.2731 17.0887 17.4873 17.1171 18.4822 17.5583C19.7634 18.1262 20.4057 19.2454 20.7078 20.5122C20.8426 21.0774 20.4791 21.6415 19.8961 21.7721C19.313 21.9028 18.731 21.5505 18.5962 20.9853C18.3794 20.0758 18.0251 19.6656 17.5809 19.4686C17.2553 19.3243 16.7689 19.2421 16.0451 19.3058C16.7126 21.5801 15.5471 23.6397 14.1203 24.8064C13.3517 25.435 12.4107 25.893 11.4701 25.984C10.4862 26.0792 9.43513 25.7594 8.81835 24.7639C8.27368 23.8849 8.26935 22.9502 8.55346 22.1179C8.8268 21.3172 9.36665 20.5965 9.95811 19.9999C10.7015 19.25 11.6364 18.5878 12.5231 18.1273C12.1839 17.8686 11.8126 17.6132 11.4108 17.3379L11.3724 17.3116C10.9826 17.0446 10.5656 16.7589 10.1664 16.4579C9.35252 15.8441 8.50276 15.0883 7.98769 14.0991C7.44665 13.06 7.32224 11.8577 7.7849 10.4735C8.27004 9.02214 9.4273 7.88492 10.7667 7.05263C12.1166 6.21374 13.7467 5.62284 15.3605 5.29745C16.9706 4.97281 18.6334 4.89865 20.0549 5.15096ZM13.9326 19.793C13.2032 20.1139 12.2544 20.7154 11.5209 21.4552C11.0554 21.925 10.746 22.3822 10.611 22.7778C10.4867 23.1419 10.5148 23.4218 10.6763 23.6824C10.7656 23.8266 10.9026 23.9278 11.2548 23.8937C11.6502 23.8555 12.1933 23.634 12.7228 23.2009C13.7364 22.3721 14.3501 21.09 13.9326 19.793ZM17.2812 11.7725L17.283 11.7735L17.2812 11.7725Z"
    />
</svg>
