<svg viewBox="0 0 26 26" xmlns="http://www.w3.org/2000/svg">
    <path d="M19.7117 4.25C20.251 4.25 20.6578 4.81385 20.4402 5.86262L17.8006 20.6919C17.6161 21.7463 17.0816 22 16.3436 21.5095L10.0473 15.9668C10.0229 15.946 10.003 15.9184 9.98929 15.8866C9.97557 15.8547 9.96841 15.8194 9.96841 15.7836C9.96841 15.7478 9.97557 15.7125 9.98929 15.6806C10.003 15.6487 10.0229 15.6212 10.0473 15.6003L17.3181 7.77407C17.6492 7.42448 17.2471 7.25533 16.8119 7.57109L7.68681 14.4332C7.65913 14.4547 7.62771 14.4684 7.59492 14.4733C7.56214 14.4782 7.52885 14.4741 7.49759 14.4614L3.62331 13.001C2.76236 12.7021 2.76236 11.9973 3.81726 11.4955L19.3191 4.36841C19.442 4.29811 19.5755 4.25785 19.7117 4.25Z"
          stroke-width="0.5" stroke-linecap="round" stroke-linejoin="round"/>
</svg>
