<svg viewBox="0 0 26 26" xmlns="http://www.w3.org/2000/svg">
    <path d="M21.8286 8.9761C21.7696 8.91112 21.7327 8.81003 21.7401 8.72339C21.8065 7.27207 21.6074 5.86407 21.106 4.49218C21.0396 4.31889 20.9585 4.25391 20.7741 4.30445C20.3612 4.4272 19.9335 4.52107 19.528 4.66548C18.4072 5.0626 17.3822 5.64024 16.3868 6.26842C16.2835 6.33341 16.1287 6.37673 16.0033 6.35507C14.3737 6.07347 12.7368 6.08791 11.0998 6.33341C10.9376 6.35507 10.7311 6.31897 10.5984 6.23954C9.44071 5.50305 8.26091 4.781 6.91151 4.43442C5.79808 4.1456 6.02667 4.08784 5.7096 5.07704C5.33354 6.2612 5.18606 7.48868 5.26717 8.73061C5.27455 8.81725 5.20818 8.92556 5.14919 9.00499C4.66253 9.5754 4.28647 10.2036 4.05788 10.9112C3.61546 12.2831 3.70394 13.6694 3.98414 15.0485C4.53717 17.7562 6.40273 19.6552 9.1605 20.1245C10.5836 20.37 12.051 20.3917 13.3857 20.5C14.8751 20.3917 16.254 20.3845 17.5961 20.1751C19.9409 19.8068 21.7106 18.5866 22.5954 16.3699C22.9051 15.5973 23.0747 14.7525 23.178 13.9294C23.4139 12.117 23.0969 10.413 21.8286 8.9761ZM20.5234 16.5143C20.2801 17.6407 19.6091 18.4133 18.4883 18.8104C17.4043 19.2003 16.2835 19.3592 15.1406 19.4314C14.5876 19.4675 14.0345 19.4386 13.4815 19.4386C11.992 19.4675 10.5025 19.4097 9.06465 18.9909C7.25808 18.4638 6.44697 17.4096 6.39535 15.5612C6.37323 14.9041 6.44697 14.2687 6.76404 13.6766C7.39081 12.4853 8.47475 12.0665 9.75778 12.0448C10.4583 12.0376 11.1662 12.0954 11.874 12.1603C13.3562 12.2903 14.8235 12.1531 16.2983 12.0737C16.9472 12.0376 17.6108 12.0231 18.2449 12.1315C19.6091 12.3625 20.6414 13.6911 20.6635 15.1857C20.6635 15.6262 20.6119 16.0811 20.5234 16.5143Z"
    />
    <path d="M9.31534 14.0376C8.90978 14.4492 8.76968 14.9691 8.74756 15.4312C8.74756 16.1244 8.95402 16.6803 9.31534 17.0414C9.81675 17.5396 10.5025 17.5251 10.9818 17.0197C11.7044 16.2543 11.6971 14.8174 10.9818 14.0593C10.5025 13.5466 9.802 13.5394 9.31534 14.0376Z"
    />
    <path d="M16.1065 13.9799C15.2806 14.7236 15.2806 16.3626 16.1065 17.0991C16.5857 17.5251 17.2346 17.5035 17.6844 17.0486C18.0974 16.6298 18.2448 16.1027 18.2596 15.5323C18.2448 14.9619 18.0974 14.442 17.6771 14.0232C17.2273 13.5683 16.5784 13.5539 16.1065 13.9799Z"
    />
</svg>
