<svg viewBox="0 0 26 26" xmlns="http://www.w3.org/2000/svg">
    <g clip-path="url(#clip0_339_1315)">
        <path fill-rule="evenodd" clip-rule="evenodd"
              d="M21.75 20.5H18.5V14.8133C18.5 13.2533 17.8118 12.3829 16.5776 12.3829C15.2346 12.3829 14.4375 13.2899 14.4375 14.8133V20.5H11.1875V9.9375H14.4375V11.1253C14.4375 11.1253 15.4572 9.33606 17.7549 9.33606C20.0535 9.33606 21.75 10.7387 21.75 13.641V20.5ZM7.48413 8.24823C6.38806 8.24823 5.5 7.35291 5.5 6.24872C5.5 5.14534 6.38806 4.25 7.48413 4.25C8.57938 4.25 9.46743 5.14534 9.46743 6.24872C9.46825 7.35291 8.57938 8.24823 7.48413 8.24823ZM5.5 20.5H9.5625V9.9375H5.5V20.5Z"
        />
    </g>
    <defs>
        <clipPath id="clip0_339_1315">
            <rect width="16.25" height="16.25" transform="translate(5.5 4.25)"/>
        </clipPath>
    </defs>
</svg>
