<svg viewBox="0 0 26 26" xmlns="http://www.w3.org/2000/svg">
    <path d="M13 21.1944C12.8577 21.1957 12.7187 21.1541 12.6032 21.0756C12.3129 20.9021 5.5 16.5815 5.5 11.3292C5.5 9.45166 6.29018 7.65105 7.6967 6.32344C9.10322 4.99584 11.0109 4.25 13 4.25C14.9891 4.25 16.8968 4.99584 18.3033 6.32344C19.7098 7.65105 20.5 9.45166 20.5 11.3292C20.5 16.5815 13.7258 20.9021 13.3968 21.0756C13.2813 21.1541 13.1423 21.1957 13 21.1944ZM13 5.66584C11.4026 5.66098 9.86858 6.25463 8.73456 7.31646C7.60054 8.37828 6.9593 9.82148 6.95161 11.3292C6.95161 15.1748 11.5871 18.6916 13 19.6689C14.4129 18.6916 19.0484 15.1748 19.0484 11.3292C19.0407 9.82148 18.3994 8.37828 17.2654 7.31646C16.1314 6.25463 14.5974 5.66098 13 5.66584Z"
    />
    <path d="M13 13.4302C12.4737 13.4302 11.9591 13.2828 11.5215 13.0068C11.0838 12.7308 10.7427 12.3385 10.5413 11.8795C10.3399 11.4205 10.2872 10.9154 10.3899 10.4281C10.4926 9.94086 10.746 9.49326 11.1183 9.14196C11.4905 8.79065 11.9647 8.55141 12.4808 8.45449C12.9971 8.35756 13.5322 8.40731 14.0185 8.59743C14.5048 8.78756 14.9204 9.10953 15.2128 9.52261C15.5052 9.93571 15.6613 10.4214 15.6613 10.9182C15.6613 11.5844 15.381 12.2233 14.8818 12.6944C14.3827 13.1655 13.7058 13.4302 13 13.4302ZM13 9.77638C12.7608 9.77638 12.5269 9.84335 12.3279 9.96881C12.1291 10.0943 11.974 10.2726 11.8825 10.4812C11.7908 10.6899 11.7669 10.9195 11.8136 11.141C11.8603 11.3624 11.9755 11.5659 12.1447 11.7256C12.3138 11.8852 12.5294 11.994 12.764 12.0381C12.9987 12.0821 13.2419 12.0595 13.463 11.9731C13.684 11.8866 13.8729 11.7403 14.0058 11.5526C14.1388 11.3648 14.2097 11.144 14.2097 10.9182C14.2097 10.6154 14.0823 10.3249 13.8554 10.1108C13.6286 9.89668 13.3208 9.77638 13 9.77638Z"
    />
</svg>
