<svg viewBox="0 0 26 26" xmlns="http://www.w3.org/2000/svg">
    <path d="M11.3701 5.38499C11.0959 4.69949 10.432 4.25 9.69375 4.25H7.21048C6.26581 4.25 5.5 5.01565 5.5 5.96034C5.5 13.9902 12.0096 20.5 20.0393 20.5C20.9839 20.5 21.7495 19.7341 21.7495 18.7894L21.75 16.3057C21.75 15.5673 21.3006 14.9036 20.6152 14.6293L18.235 13.6776C17.6194 13.4313 16.9183 13.5422 16.4088 13.9668L15.7945 14.4791C15.0772 15.0769 14.0216 15.0293 13.3614 14.3691L11.6317 12.6378C10.9714 11.9774 10.9226 10.9227 11.5204 10.2053L12.0326 9.5911C12.4572 9.08162 12.569 8.38035 12.3227 7.76459L11.3701 5.38499Z"
          stroke-linecap="round" stroke-linejoin="round"/>
</svg>
